STARTFONT 2.3
FONT -FontForge-Bungee Shade-Book-R-Normal--11-110-72-72-P-93-ISO10646-1
SIZE 11 72 72  2
FONTBOUNDINGBOX 29 28 -7 -10
COMMENT "Generated by fontforge, http://fontforge.sourceforge.net"
COMMENT "Copyright 2008 The Bungee Project Authors (david@djr.com)"
STARTPROPERTIES 40
FOUNDRY "FontForge"
FAMILY_NAME "Bungee Shade"
WEIGHT_NAME "Book"
SLANT "R"
SETWIDTH_NAME "Normal"
ADD_STYLE_NAME ""
PIXEL_SIZE 11
POINT_SIZE 110
RESOLUTION_X 72
RESOLUTION_Y 72
SPACING "P"
AVERAGE_WIDTH 93
CHARSET_REGISTRY "ISO10646"
CHARSET_ENCODING "1"
FONTNAME_REGISTRY ""
CHARSET_COLLECTIONS "ISO8859-2 ISO8859-9 ISO8859-4 ISO10646-1"
BITS_PER_PIXEL 2
FONT_NAME "BungeeShade-Regular"
FACE_NAME "Bungee Shade"
COPYRIGHT "Copyright 2008 The Bungee Project Authors (david@djr.com)"
FONT_VERSION "1.000;PS 1.0;hotconv 1.0.72;makeotf.lib2.5.5900"
FONT_ASCENT 9
FONT_DESCENT 2
UNDERLINE_POSITION 0
UNDERLINE_THICKNESS 0
X_HEIGHT 8
CAP_HEIGHT 8
RAW_ASCENT 860
RAW_DESCENT 140
NORM_SPACE 4
RELATIVE_WEIGHT 40
RELATIVE_SETWIDTH 50
SUPERSCRIPT_X 0
SUPERSCRIPT_Y 3
SUPERSCRIPT_SIZE 6
SUBSCRIPT_X 0
SUBSCRIPT_Y 0
SUBSCRIPT_SIZE 6
AVG_LOWERCASE_WIDTH 88
AVG_UPPERCASE_WIDTH 90
ENDPROPERTIES
CHARS 1065
STARTCHAR space
ENCODING 32
SWIDTH 325 0
DWIDTH 4 0
BBX 1 1 0 0
BITMAP
00
ENDCHAR
STARTCHAR exclam
ENCODING 33
SWIDTH 524 0
DWIDTH 6 0
BBX 5 10 0 -1
BITMAP
1400
7400
7400
7400
7400
7440
3A40
3400
7940
7F40
ENDCHAR
STARTCHAR quotedbl
ENCODING 34
SWIDTH 746 0
DWIDTH 8 0
BBX 8 7 0 2
BITMAP
1051
A090
A090
B090
B091
BEFC
1450
ENDCHAR
STARTCHAR numbersign
ENCODING 35
SWIDTH 850 0
DWIDTH 9 0
BBX 9 10 0 -1
BITMAP
051400
081400
714100
782040
642040
610400
E00000
F4A100
79E400
3DF400
ENDCHAR
STARTCHAR dollar
ENCODING 36
SWIDTH 750 0
DWIDTH 8 0
BBX 8 13 0 -3
BITMAP
0600
0400
3040
A07D
B000
B400
7F90
2000
6000
B405
BE04
0BD0
0540
ENDCHAR
STARTCHAR percent
ENCODING 37
SWIDTH 1131 0
DWIDTH 12 0
BBX 12 10 0 -1
BITMAP
055840
621800
A21400
A01440
B56040
7FA158
14A258
00D240
01E7E5
01F2F8
ENDCHAR
STARTCHAR ampersand
ENCODING 38
SWIDTH 866 0
DWIDTH 10 0
BBX 10 9 0 -1
BITMAP
140000
343C00
381400
201400
A0B410
E00000
B00000
B95500
2FF800
ENDCHAR
STARTCHAR quotesingle
ENCODING 39
SWIDTH 456 0
DWIDTH 5 0
BBX 5 7 0 2
BITMAP
1040
7000
B000
B000
B400
BE00
1400
ENDCHAR
STARTCHAR parenleft
ENCODING 40
SWIDTH 529 0
DWIDTH 6 0
BBX 5 13 0 -3
BITMAP
0400
2100
A040
A000
A000
A000
A000
A000
B000
B000
B900
7F80
0500
ENDCHAR
STARTCHAR parenright
ENCODING 41
SWIDTH 529 0
DWIDTH 6 0
BBX 5 13 0 -3
BITMAP
6000
A000
BC00
6C00
2C00
2C00
2C00
2C00
2000
A000
B140
BE00
5000
ENDCHAR
STARTCHAR asterisk
ENCODING 42
SWIDTH 818 0
DWIDTH 9 0
BBX 9 9 0 0
BITMAP
014400
074000
240000
701040
7E0600
181000
1D7500
2FF400
045000
ENDCHAR
STARTCHAR plus
ENCODING 43
SWIDTH 834 0
DWIDTH 9 0
BBX 9 10 0 -1
BITMAP
004000
024000
074000
060000
201000
740040
7F4A00
1B4400
07E000
014000
ENDCHAR
STARTCHAR comma
ENCODING 44
SWIDTH 484 0
DWIDTH 5 0
BBX 5 6 0 -3
BITMAP
2000
B040
B940
7000
7A00
6400
ENDCHAR
STARTCHAR hyphen
ENCODING 45
SWIDTH 520 0
DWIDTH 6 0
BBX 6 4 0 1
BITMAP
6000
A010
BF80
5500
ENDCHAR
STARTCHAR period
ENCODING 46
SWIDTH 484 0
DWIDTH 5 0
BBX 5 4 0 -1
BITMAP
6000
B000
B540
BE00
ENDCHAR
STARTCHAR slash
ENCODING 47
SWIDTH 487 0
DWIDTH 5 0
BBX 4 13 0 -3
BITMAP
08
28
28
34
34
74
70
70
A0
A0
A0
FD
50
ENDCHAR
STARTCHAR zero
ENCODING 48
SWIDTH 827 0
DWIDTH 9 0
BBX 8 10 0 -1
BITMAP
0154
1000
70B0
B0B0
B070
B070
B010
B400
7E59
1FE4
ENDCHAR
STARTCHAR one
ENCODING 49
SWIDTH 701 0
DWIDTH 8 0
BBX 8 10 0 -1
BITMAP
1000
7000
B900
7D00
0D00
0D00
1904
6040
B555
BFF4
ENDCHAR
STARTCHAR two
ENCODING 50
SWIDTH 739 0
DWIDTH 8 0
BBX 8 10 0 -1
BITMAP
1400
7550
7F80
1800
2000
6014
A050
A000
B555
BFF8
ENDCHAR
STARTCHAR three
ENCODING 51
SWIDTH 737 0
DWIDTH 8 0
BBX 7 10 0 -1
BITMAP
1000
A000
BF80
6800
2810
2FD0
2000
6000
B554
BFE0
ENDCHAR
STARTCHAR four
ENCODING 52
SWIDTH 809 0
DWIDTH 9 0
BBX 8 10 0 -1
BITMAP
1050
70A0
B0A0
B0A0
B000
B000
7900
3FE0
05B5
00BD
ENDCHAR
STARTCHAR five
ENCODING 53
SWIDTH 747 0
DWIDTH 8 0
BBX 7 10 0 -1
BITMAP
1000
7000
B068
B000
B000
BFD0
6000
7000
B554
BFE0
ENDCHAR
STARTCHAR six
ENCODING 54
SWIDTH 793 0
DWIDTH 9 0
BBX 8 10 0 -1
BITMAP
0154
2000
7069
B000
B000
B0A0
B050
B400
7E59
1FE4
ENDCHAR
STARTCHAR seven
ENCODING 55
SWIDTH 727 0
DWIDTH 8 0
BBX 7 10 0 -1
BITMAP
1000
A540
FFC0
5500
0400
2814
3420
3400
3940
3F00
ENDCHAR
STARTCHAR eight
ENCODING 56
SWIDTH 811 0
DWIDTH 9 0
BBX 8 10 0 -1
BITMAP
0154
1400
3470
7954
3000
A0B0
A050
B000
BE59
2FE4
ENDCHAR
STARTCHAR nine
ENCODING 57
SWIDTH 793 0
DWIDTH 9 0
BBX 8 10 0 -1
BITMAP
0154
2000
60A0
A054
B404
BFA0
2800
2800
3959
3FE4
ENDCHAR
STARTCHAR colon
ENCODING 58
SWIDTH 484 0
DWIDTH 5 0
BBX 5 9 0 -1
BITMAP
2000
B000
B000
B540
7A40
7000
B000
B540
BE00
ENDCHAR
STARTCHAR semicolon
ENCODING 59
SWIDTH 484 0
DWIDTH 5 0
BBX 5 10 0 -3
BITMAP
6000
B000
B540
BA40
6000
B040
B940
7000
7A00
6400
ENDCHAR
STARTCHAR less
ENCODING 60
SWIDTH 814 0
DWIDTH 9 0
BBX 8 7 0 -1
BITMAP
0400
2019
7054
7800
7F90
1BFE
0018
ENDCHAR
STARTCHAR equal
ENCODING 61
SWIDTH 834 0
DWIDTH 9 0
BBX 8 8 0 -1
BITMAP
2000
7000
7AAA
2554
3000
7400
7FFE
1554
ENDCHAR
STARTCHAR greater
ENCODING 62
SWIDTH 814 0
DWIDTH 9 0
BBX 9 9 0 -1
BITMAP
1A4000
346900
740140
7E9000
0B9000
140000
745400
7A9000
100000
ENDCHAR
STARTCHAR question
ENCODING 63
SWIDTH 756 0
DWIDTH 8 0
BBX 8 10 0 -1
BITMAP
1000
A140
BE90
5800
2C56
2FFC
2810
2800
3950
2F40
ENDCHAR
STARTCHAR at
ENCODING 64
SWIDTH 967 0
DWIDTH 11 0
BBX 10 13 0 -3
BITMAP
040010
21FF80
71AAC0
B20080
B21880
B22880
B21480
B20000
B2AA80
B46A40
7E5540
1FFE00
015400
ENDCHAR
STARTCHAR A
ENCODING 65
SWIDTH 830 0
DWIDTH 9 0
BBX 9 10 0 -1
BITMAP
010000
080000
186000
347000
700000
B10000
B00000
B0B400
B5B940
BD7E00
ENDCHAR
STARTCHAR B
ENCODING 66
SWIDTH 825 0
DWIDTH 9 0
BBX 8 10 0 -1
BITMAP
1400
7050
B0A0
B011
B154
B0B4
B010
B000
B555
7FF8
ENDCHAR
STARTCHAR C
ENCODING 67
SWIDTH 728 0
DWIDTH 8 0
BBX 8 10 0 -1
BITMAP
0001
1015
70BD
B050
B000
B000
B000
B400
7E55
1FF8
ENDCHAR
STARTCHAR D
ENCODING 68
SWIDTH 846 0
DWIDTH 9 0
BBX 8 10 0 -1
BITMAP
1400
7000
B050
B074
B074
B074
B060
B000
B555
7FF8
ENDCHAR
STARTCHAR E
ENCODING 69
SWIDTH 754 0
DWIDTH 8 0
BBX 8 10 0 -1
BITMAP
1401
7000
B07D
B000
B100
B064
B064
B000
B555
7FF8
ENDCHAR
STARTCHAR F
ENCODING 70
SWIDTH 718 0
DWIDTH 8 0
BBX 8 10 0 -1
BITMAP
1401
7010
B07D
B014
B100
B004
B070
B040
B540
7D00
ENDCHAR
STARTCHAR G
ENCODING 71
SWIDTH 808 0
DWIDTH 9 0
BBX 8 10 0 -1
BITMAP
0001
2015
70BD
B054
B060
B0B0
B010
B400
7E55
1FFD
ENDCHAR
STARTCHAR H
ENCODING 72
SWIDTH 859 0
DWIDTH 9 0
BBX 9 10 0 -1
BITMAP
141440
707400
B06400
B00000
B10100
B00000
B07400
B07400
B57940
7E3E00
ENDCHAR
STARTCHAR I
ENCODING 73
SWIDTH 705 0
DWIDTH 8 0
BBX 7 10 0 -1
BITMAP
1000
7040
B804
BD04
1D00
1D00
1900
6000
B554
BFF4
ENDCHAR
STARTCHAR J
ENCODING 74
SWIDTH 788 0
DWIDTH 9 0
BBX 7 10 0 -1
BITMAP
0010
00E0
00E0
00E0
60E0
A0E0
A000
B000
7E58
2FE0
ENDCHAR
STARTCHAR K
ENCODING 75
SWIDTH 846 0
DWIDTH 9 0
BBX 9 10 0 -1
BITMAP
141400
706000
B05000
B00000
B11000
B05000
B07400
B07400
B57940
7D3E00
ENDCHAR
STARTCHAR L
ENCODING 76
SWIDTH 795 0
DWIDTH 9 0
BBX 8 10 0 -1
BITMAP
1400
7000
B000
B000
B020
B070
B010
B000
B555
7FFD
ENDCHAR
STARTCHAR M
ENCODING 77
SWIDTH 949 0
DWIDTH 10 0
BBX 10 10 0 -1
BITMAP
140410
701800
B01000
B00000
B04100
B0AD00
B06D00
B01D00
B51E50
7D0F80
ENDCHAR
STARTCHAR N
ENCODING 78
SWIDTH 853 0
DWIDTH 9 0
BBX 9 10 0 -1
BITMAP
145440
712400
B00400
B00000
B04000
B09100
B0B400
B0B400
B57940
7D3E00
ENDCHAR
STARTCHAR O
ENCODING 79
SWIDTH 837 0
DWIDTH 9 0
BBX 9 10 0 -1
BITMAP
015400
100000
70B400
B0B400
B07400
B07400
B01000
B40040
7E5900
1FF400
ENDCHAR
STARTCHAR P
ENCODING 80
SWIDTH 782 0
DWIDTH 9 0
BBX 8 10 0 -1
BITMAP
1400
7000
B060
B0B0
B000
B155
B078
B040
B500
7D00
ENDCHAR
STARTCHAR Q
ENCODING 81
SWIDTH 837 0
DWIDTH 9 0
BBX 9 11 0 -3
BITMAP
100000
701000
B0B400
B07400
B07400
B07400
B41040
7E0600
2F4400
0BE000
014000
ENDCHAR
STARTCHAR R
ENCODING 82
SWIDTH 843 0
DWIDTH 9 0
BBX 9 10 0 -1
BITMAP
140000
700000
B06000
B05000
B10400
B00000
B07400
B07400
B57940
7D3E00
ENDCHAR
STARTCHAR S
ENCODING 83
SWIDTH 750 0
DWIDTH 8 0
BBX 8 10 0 -1
BITMAP
0400
2000
607D
B001
B400
BF90
2000
6000
B554
BFE0
ENDCHAR
STARTCHAR T
ENCODING 84
SWIDTH 756 0
DWIDTH 8 0
BBX 8 10 0 -1
BITMAP
1000
E544
FE0E
5E04
0E00
0E00
0E00
0E00
0E50
0FD0
ENDCHAR
STARTCHAR U
ENCODING 85
SWIDTH 846 0
DWIDTH 9 0
BBX 9 10 0 -1
BITMAP
101440
707400
B07400
B07400
B07400
B07400
B01000
B40040
7E5900
1BF400
ENDCHAR
STARTCHAR V
ENCODING 86
SWIDTH 830 0
DWIDTH 9 0
BBX 9 10 0 -1
BITMAP
101440
B07400
B07400
B07400
B07000
B42000
780000
3C0000
2E5400
1FF400
ENDCHAR
STARTCHAR W
ENCODING 87
SWIDTH 931 0
DWIDTH 10 0
BBX 10 10 0 -1
BITMAP
100510
700D00
B01900
B04100
B00000
B00000
B01000
742400
7D7940
2F3E00
ENDCHAR
STARTCHAR X
ENCODING 88
SWIDTH 837 0
DWIDTH 9 0
BBX 9 10 0 -1
BITMAP
101440
707400
B02000
B80000
3C4000
240000
307000
70B400
B57940
BD7E00
ENDCHAR
STARTCHAR Y
ENCODING 89
SWIDTH 805 0
DWIDTH 9 0
BBX 7 10 0 -1
BITMAP
1014
A070
A0B0
B060
B400
7C10
2E00
0F00
0B50
0BD0
ENDCHAR
STARTCHAR Z
ENCODING 90
SWIDTH 760 0
DWIDTH 8 0
BBX 8 10 0 -1
BITMAP
1001
7140
BF40
1600
0800
1400
6010
A000
B555
BFFC
ENDCHAR
STARTCHAR bracketleft
ENCODING 91
SWIDTH 529 0
DWIDTH 6 0
BBX 5 13 0 -3
BITMAP
6000
A100
A040
A000
A000
A000
A000
A000
A000
A100
B000
BF80
5500
ENDCHAR
STARTCHAR backslash
ENCODING 92
SWIDTH 487 0
DWIDTH 5 0
BBX 5 13 0 -3
BITMAP
6000
E000
F000
B000
B000
7400
7400
7800
3800
3800
2C00
2F80
0500
ENDCHAR
STARTCHAR bracketright
ENCODING 93
SWIDTH 529 0
DWIDTH 6 0
BBX 5 13 0 -3
BITMAP
6000
A000
BC00
6C00
2C00
2C00
2C00
2C00
2000
A000
B000
BF80
5500
ENDCHAR
STARTCHAR asciicircum
ENCODING 94
SWIDTH 814 0
DWIDTH 9 0
BBX 8 9 0 0
BITMAP
0100
0800
1800
2450
34A0
70B0
60B4
BDBE
5014
ENDCHAR
STARTCHAR underscore
ENCODING 95
SWIDTH 834 0
DWIDTH 9 0
BBX 9 4 0 -3
BITMAP
300000
740040
7FFE00
155400
ENDCHAR
STARTCHAR grave
ENCODING 96
SWIDTH 600 0
DWIDTH 7 0
BBX 6 4 0 7
BITMAP
1000
A000
BA50
6BD0
ENDCHAR
STARTCHAR a
ENCODING 97
SWIDTH 830 0
DWIDTH 9 0
BBX 9 10 0 -1
BITMAP
010000
080000
186000
347000
700000
B10000
B00000
B0B400
B5B940
BD7E00
ENDCHAR
STARTCHAR b
ENCODING 98
SWIDTH 825 0
DWIDTH 9 0
BBX 8 10 0 -1
BITMAP
1400
7050
B0A0
B011
B154
B0B4
B010
B000
B555
7FF8
ENDCHAR
STARTCHAR c
ENCODING 99
SWIDTH 728 0
DWIDTH 8 0
BBX 8 10 0 -1
BITMAP
0001
1015
70BD
B050
B000
B000
B000
B400
7E55
1FF8
ENDCHAR
STARTCHAR d
ENCODING 100
SWIDTH 846 0
DWIDTH 9 0
BBX 8 10 0 -1
BITMAP
1400
7000
B050
B074
B074
B074
B060
B000
B555
7FF8
ENDCHAR
STARTCHAR e
ENCODING 101
SWIDTH 754 0
DWIDTH 8 0
BBX 8 10 0 -1
BITMAP
1401
7000
B07D
B000
B100
B064
B064
B000
B555
7FF8
ENDCHAR
STARTCHAR f
ENCODING 102
SWIDTH 718 0
DWIDTH 8 0
BBX 8 10 0 -1
BITMAP
1401
7010
B07D
B014
B100
B004
B070
B040
B540
7D00
ENDCHAR
STARTCHAR g
ENCODING 103
SWIDTH 808 0
DWIDTH 9 0
BBX 8 10 0 -1
BITMAP
0001
2015
70BD
B054
B060
B0B0
B010
B400
7E55
1FFD
ENDCHAR
STARTCHAR h
ENCODING 104
SWIDTH 859 0
DWIDTH 9 0
BBX 9 10 0 -1
BITMAP
141440
707400
B06400
B00000
B10100
B00000
B07400
B07400
B57940
7E3E00
ENDCHAR
STARTCHAR i
ENCODING 105
SWIDTH 705 0
DWIDTH 8 0
BBX 7 10 0 -1
BITMAP
1000
7040
B804
BD04
1D00
1D00
1900
6000
B554
BFF4
ENDCHAR
STARTCHAR j
ENCODING 106
SWIDTH 788 0
DWIDTH 9 0
BBX 7 10 0 -1
BITMAP
0010
00E0
00E0
00E0
60E0
A0E0
A000
B000
7E58
2FE0
ENDCHAR
STARTCHAR k
ENCODING 107
SWIDTH 846 0
DWIDTH 9 0
BBX 9 10 0 -1
BITMAP
141400
706000
B05000
B00000
B11000
B05000
B07400
B07400
B57940
7D3E00
ENDCHAR
STARTCHAR l
ENCODING 108
SWIDTH 795 0
DWIDTH 9 0
BBX 8 10 0 -1
BITMAP
1400
7000
B000
B000
B020
B070
B010
B000
B555
7FFD
ENDCHAR
STARTCHAR m
ENCODING 109
SWIDTH 949 0
DWIDTH 10 0
BBX 10 10 0 -1
BITMAP
140410
701800
B01000
B00000
B04100
B0AD00
B06D00
B01D00
B51E50
7D0F80
ENDCHAR
STARTCHAR n
ENCODING 110
SWIDTH 853 0
DWIDTH 9 0
BBX 9 10 0 -1
BITMAP
145440
712400
B00400
B00000
B04000
B09100
B0B400
B0B400
B57940
7D3E00
ENDCHAR
STARTCHAR o
ENCODING 111
SWIDTH 837 0
DWIDTH 9 0
BBX 9 10 0 -1
BITMAP
015400
100000
70B400
B0B400
B07400
B07400
B01000
B40040
7E5900
1FF400
ENDCHAR
STARTCHAR p
ENCODING 112
SWIDTH 782 0
DWIDTH 9 0
BBX 8 10 0 -1
BITMAP
1400
7000
B060
B0B0
B000
B155
B078
B040
B500
7D00
ENDCHAR
STARTCHAR q
ENCODING 113
SWIDTH 837 0
DWIDTH 9 0
BBX 9 11 0 -3
BITMAP
100000
701000
B0B400
B07400
B07400
B07400
B41040
7E0600
2F4400
0BE000
014000
ENDCHAR
STARTCHAR r
ENCODING 114
SWIDTH 843 0
DWIDTH 9 0
BBX 9 10 0 -1
BITMAP
140000
700000
B06000
B05000
B10400
B00000
B07400
B07400
B57940
7D3E00
ENDCHAR
STARTCHAR s
ENCODING 115
SWIDTH 750 0
DWIDTH 8 0
BBX 8 10 0 -1
BITMAP
0400
2000
607D
B001
B400
BF90
2000
6000
B554
BFE0
ENDCHAR
STARTCHAR t
ENCODING 116
SWIDTH 756 0
DWIDTH 8 0
BBX 8 10 0 -1
BITMAP
1000
E544
FE0E
5E04
0E00
0E00
0E00
0E00
0E50
0FD0
ENDCHAR
STARTCHAR u
ENCODING 117
SWIDTH 846 0
DWIDTH 9 0
BBX 9 10 0 -1
BITMAP
101440
707400
B07400
B07400
B07400
B07400
B01000
B40040
7E5900
1BF400
ENDCHAR
STARTCHAR v
ENCODING 118
SWIDTH 830 0
DWIDTH 9 0
BBX 9 10 0 -1
BITMAP
101440
B07400
B07400
B07400
B07000
B42000
780000
3C0000
2E5400
1FF400
ENDCHAR
STARTCHAR w
ENCODING 119
SWIDTH 931 0
DWIDTH 10 0
BBX 10 10 0 -1
BITMAP
100510
700D00
B01900
B04100
B00000
B00000
B01000
742400
7D7940
2F3E00
ENDCHAR
STARTCHAR x
ENCODING 120
SWIDTH 837 0
DWIDTH 9 0
BBX 9 10 0 -1
BITMAP
101440
707400
B02000
B80000
3C4000
240000
307000
70B400
B57940
BD7E00
ENDCHAR
STARTCHAR y
ENCODING 121
SWIDTH 805 0
DWIDTH 9 0
BBX 7 10 0 -1
BITMAP
1014
A070
A0B0
B060
B400
7C10
2E00
0F00
0B50
0BD0
ENDCHAR
STARTCHAR z
ENCODING 122
SWIDTH 760 0
DWIDTH 8 0
BBX 8 10 0 -1
BITMAP
1001
7140
BF40
1600
0800
1400
6010
A000
B555
BFFC
ENDCHAR
STARTCHAR braceleft
ENCODING 123
SWIDTH 555 0
DWIDTH 6 0
BBX 6 13 0 -3
BITMAP
0400
2400
3410
7400
6000
A040
E000
F400
7400
7400
7D50
2FD0
0500
ENDCHAR
STARTCHAR bar
ENCODING 124
SWIDTH 447 0
DWIDTH 5 0
BBX 4 13 0 -3
BITMAP
30
B0
B0
B0
B0
B0
B0
B0
B0
B0
B0
BE
14
ENDCHAR
STARTCHAR braceright
ENCODING 125
SWIDTH 555 0
DWIDTH 6 0
BBX 6 13 0 -3
BITMAP
6000
A000
B800
7C00
2D00
2D00
1C10
2800
2000
A000
B100
BD00
5000
ENDCHAR
STARTCHAR asciitilde
ENCODING 126
SWIDTH 834 0
DWIDTH 9 0
BBX 9 4 0 1
BITMAP
200000
714040
BFFE00
556400
ENDCHAR
STARTCHAR uni00A0
ENCODING 160
SWIDTH 325 0
DWIDTH 4 0
BBX 1 1 0 0
BITMAP
00
ENDCHAR
STARTCHAR exclamdown
ENCODING 161
SWIDTH 523 0
DWIDTH 6 0
BBX 5 10 0 -1
BITMAP
1400
7400
7E80
3400
3400
7400
7400
7400
7940
7F00
ENDCHAR
STARTCHAR cent
ENCODING 162
SWIDTH 728 0
DWIDTH 8 0
BBX 8 13 0 -3
BITMAP
0040
0200
0905
2410
7001
B0BC
B050
B000
B400
7E01
2F44
0BE0
0140
ENDCHAR
STARTCHAR sterling
ENCODING 163
SWIDTH 795 0
DWIDTH 9 0
BBX 8 9 0 -1
BITMAP
1440
7078
6010
A010
F070
B000
B000
B555
7FFD
ENDCHAR
STARTCHAR currency
ENCODING 164
SWIDTH 921 0
DWIDTH 10 0
BBX 9 10 0 -2
BITMAP
100100
740000
BC0000
2C3800
2C3800
2C2500
244000
209500
BAFF40
240600
ENDCHAR
STARTCHAR yen
ENCODING 165
SWIDTH 803 0
DWIDTH 9 0
BBX 8 10 0 -1
BITMAP
1014
A070
B070
B410
7801
2410
7905
7F09
1B54
0BD0
ENDCHAR
STARTCHAR brokenbar
ENCODING 166
SWIDTH 447 0
DWIDTH 5 0
BBX 4 13 0 -3
BITMAP
20
B0
B0
B0
B5
B9
30
B0
B0
B0
B0
BE
14
ENDCHAR
STARTCHAR section
ENCODING 167
SWIDTH 750 0
DWIDTH 8 0
BBX 7 10 0 -1
BITMAP
0154
2100
7068
B100
B090
B804
7E90
2000
B554
BFE0
ENDCHAR
STARTCHAR dieresis
ENCODING 168
SWIDTH 600 0
DWIDTH 7 0
BBX 6 5 0 7
BITMAP
1040
5140
D140
FFF0
5540
ENDCHAR
STARTCHAR copyright
ENCODING 169
SWIDTH 967 0
DWIDTH 11 0
BBX 10 13 0 -3
BITMAP
040000
22FF80
7154C0
B200C0
B31EC0
B315C0
B301C0
B350C0
B2FF80
B41410
7E5540
1FFE00
015000
ENDCHAR
STARTCHAR ordfeminine
ENCODING 170
SWIDTH 620 0
DWIDTH 7 0
BBX 7 10 0 -1
BITMAP
0540
2440
7140
A000
E180
E694
F9A4
6000
F550
BFD0
ENDCHAR
STARTCHAR guillemotleft
ENCODING 171
SWIDTH 912 0
DWIDTH 10 0
BBX 10 6 0 0
BITMAP
001000
202000
A06040
B01000
BE6E50
1B9B80
ENDCHAR
STARTCHAR logicalnot
ENCODING 172
SWIDTH 834 0
DWIDTH 9 0
BBX 8 7 0 -1
BITMAP
2000
7400
7FF4
1574
0038
003E
0014
ENDCHAR
STARTCHAR uni00AD
ENCODING 173
SWIDTH 520 0
DWIDTH 6 0
BBX 6 4 0 1
BITMAP
6000
A010
BF80
5500
ENDCHAR
STARTCHAR registered
ENCODING 174
SWIDTH 660 0
DWIDTH 7 0
BBX 7 8 0 1
BITMAP
07F4
2824
B864
B854
B894
BAA4
7FE0
1A40
ENDCHAR
STARTCHAR macron
ENCODING 175
SWIDTH 600 0
DWIDTH 7 0
BBX 6 4 0 7
BITMAP
6000
A000
BFE0
5540
ENDCHAR
STARTCHAR degree
ENCODING 176
SWIDTH 583 0
DWIDTH 6 0
BBX 6 7 0 2
BITMAP
0550
2000
A240
A140
B000
BE80
1A00
ENDCHAR
STARTCHAR plusminus
ENCODING 177
SWIDTH 834 0
DWIDTH 9 0
BBX 9 10 0 -1
BITMAP
014000
074000
060000
301000
750540
7F4A00
160400
300000
755540
7FFE00
ENDCHAR
STARTCHAR twosuperior
ENCODING 178
SWIDTH 585 0
DWIDTH 6 0
BBX 6 9 0 0
BITMAP
1150
7A00
7900
2010
6140
A000
A000
BFD0
5540
ENDCHAR
STARTCHAR threesuperior
ENCODING 179
SWIDTH 584 0
DWIDTH 6 0
BBX 6 9 0 0
BITMAP
1540
A000
BA00
7450
3A40
2000
B010
BF80
5500
ENDCHAR
STARTCHAR acute
ENCODING 180
SWIDTH 600 0
DWIDTH 7 0
BBX 6 3 0 7
BITMAP
2000
A5A0
BA80
ENDCHAR
STARTCHAR mu
ENCODING 181
SWIDTH 813 0
DWIDTH 9 0
BBX 7 9 0 -2
BITMAP
2020
B0B0
B0B0
B0B0
B150
B100
B004
BAA4
7D00
ENDCHAR
STARTCHAR paragraph
ENCODING 182
SWIDTH 782 0
DWIDTH 9 0
BBX 8 9 0 -1
BITMAP
2004
A000
E000
E044
B800
7D20
1D20
1E65
0FB8
ENDCHAR
STARTCHAR periodcentered
ENCODING 183
SWIDTH 464 0
DWIDTH 5 0
BBX 5 4 0 1
BITMAP
6000
A000
B540
BE00
ENDCHAR
STARTCHAR cedilla
ENCODING 184
SWIDTH 600 0
DWIDTH 7 0
BBX 4 5 1 -4
BITMAP
14
60
A1
FC
50
ENDCHAR
STARTCHAR onesuperior
ENCODING 185
SWIDTH 557 0
DWIDTH 6 0
BBX 5 9 0 0
BITMAP
1540
7400
BC00
2C00
2800
6000
B000
BFC0
5500
ENDCHAR
STARTCHAR ordmasculine
ENCODING 186
SWIDTH 625 0
DWIDTH 7 0
BBX 6 10 0 -1
BITMAP
0150
6000
A180
A180
A180
B550
BA90
6000
B550
BFE0
ENDCHAR
STARTCHAR guillemotright
ENCODING 187
SWIDTH 912 0
DWIDTH 10 0
BBX 10 8 0 -1
BITMAP
151540
706050
B41400
B91900
202010
B6F680
BDBE00
505000
ENDCHAR
STARTCHAR onequarter
ENCODING 188
SWIDTH 1303 0
DWIDTH 14 0
BBX 14 10 0 -1
BITMAP
25450000
741C0000
BC1C1140
2C285240
18285240
65549140
BFF4A400
5570FF40
00751B90
00B807C0
ENDCHAR
STARTCHAR onehalf
ENCODING 189
SWIDTH 1260 0
DWIDTH 14 0
BBX 13 10 0 -1
BITMAP
15450000
741C0000
BC1C1000
2C285000
18287900
65546040
BFF49140
5570C000
0075E540
00B9FF40
ENDCHAR
STARTCHAR threequarters
ENCODING 190
SWIDTH 1313 0
DWIDTH 14 0
BBX 14 10 0 -1
BITMAP
25450000
BA1D0000
641C1100
34082240
3A486240
65586140
BFB4A400
5570BF40
00751790
007C07D0
ENDCHAR
STARTCHAR questiondown
ENCODING 191
SWIDTH 756 0
DWIDTH 8 0
BBX 8 10 0 -1
BITMAP
0040
0340
0794
0694
1000
6014
A064
B000
B955
2FFC
ENDCHAR
STARTCHAR Agrave
ENCODING 192
SWIDTH 830 0
DWIDTH 9 0
BBX 9 13 0 -1
BITMAP
069400
1DAE00
2C0000
1C6900
080000
146000
307000
700000
B10000
B00000
B0B400
B5B940
BD7E00
ENDCHAR
STARTCHAR Aacute
ENCODING 193
SWIDTH 830 0
DWIDTH 9 0
BBX 9 13 0 -1
BITMAP
015900
0BE900
2C0100
2D5400
1C0000
186000
347000
700000
B10000
B00000
B0B400
B5B940
BD7E00
ENDCHAR
STARTCHAR Acircumflex
ENCODING 194
SWIDTH 830 0
DWIDTH 9 0
BBX 9 12 0 -1
BITMAP
0C0000
2EB900
2D0000
180000
146000
307000
700000
B10000
B00000
B0B400
B5B940
BD7E00
ENDCHAR
STARTCHAR Atilde
ENCODING 195
SWIDTH 830 0
DWIDTH 9 0
BBX 9 12 0 -1
BITMAP
080000
2C4100
2E5400
1C0000
186000
347000
700000
B10000
B00000
B0B400
B5B940
BD7E00
ENDCHAR
STARTCHAR Adieresis
ENCODING 196
SWIDTH 830 0
DWIDTH 9 0
BBX 9 13 0 -1
BITMAP
001000
182000
282000
2E5500
1C0000
186000
347000
700000
B10000
B00000
B0B400
B5B940
BD7E00
ENDCHAR
STARTCHAR Aring
ENCODING 197
SWIDTH 830 0
DWIDTH 9 0
BBX 9 13 0 -1
BITMAP
040000
1C0000
2C7000
2C5000
180000
246000
307000
700000
B10000
B00000
B0B400
B5B940
BD7E00
ENDCHAR
STARTCHAR AE
ENCODING 198
SWIDTH 1105 0
DWIDTH 12 0
BBX 12 10 0 -1
BITMAP
050001
180100
24307D
307000
706100
B10064
B00060
B0B000
B5B955
BD7FF8
ENDCHAR
STARTCHAR Ccedilla
ENCODING 199
SWIDTH 728 0
DWIDTH 8 0
BBX 8 11 0 -3
BITMAP
2000
7000
B0B8
B050
B000
B000
B400
7E05
1B04
0BD0
0500
ENDCHAR
STARTCHAR Egrave
ENCODING 200
SWIDTH 754 0
DWIDTH 8 0
BBX 8 13 0 -1
BITMAP
0654
2ABD
3800
2158
7000
B07D
B000
B100
B064
B064
B000
B555
7FF8
ENDCHAR
STARTCHAR Eacute
ENCODING 201
SWIDTH 754 0
DWIDTH 8 0
BBX 8 13 0 -1
BITMAP
0159
0BE9
2C01
2254
7000
B07D
B000
B100
B064
B064
B000
B555
7FF8
ENDCHAR
STARTCHAR Ecircumflex
ENCODING 202
SWIDTH 754 0
DWIDTH 8 0
BBX 8 13 0 -1
BITMAP
0510
2800
39A4
3401
7000
B07D
B000
B100
B064
B064
B000
B555
7FF8
ENDCHAR
STARTCHAR Edieresis
ENCODING 203
SWIDTH 754 0
DWIDTH 8 0
BBX 8 13 0 -1
BITMAP
0410
1850
3850
3956
7000
707D
B000
B100
B064
B064
B000
B555
7FF8
ENDCHAR
STARTCHAR Igrave
ENCODING 204
SWIDTH 705 0
DWIDTH 8 0
BBX 7 13 0 -1
BITMAP
0A50
2ABC
7400
3154
7040
B804
BD04
1D00
1D00
1900
6000
B554
BFF4
ENDCHAR
STARTCHAR Iacute
ENCODING 205
SWIDTH 705 0
DWIDTH 8 0
BBX 7 13 0 -1
BITMAP
0168
1FA8
7404
7550
7040
B804
BD04
1D00
1D00
1900
6000
B554
BFF4
ENDCHAR
STARTCHAR Icircumflex
ENCODING 206
SWIDTH 705 0
DWIDTH 8 0
BBX 7 13 0 -1
BITMAP
0404
2400
7AA4
7000
7040
B804
BD04
1D00
1D00
1900
6000
B554
BFF4
ENDCHAR
STARTCHAR Idieresis
ENCODING 207
SWIDTH 705 0
DWIDTH 8 0
BBX 8 13 0 -1
BITMAP
0040
3080
B080
B555
7040
B804
BD04
1D00
1D00
1900
6000
B554
BFF4
ENDCHAR
STARTCHAR Eth
ENCODING 208
SWIDTH 856 0
DWIDTH 9 0
BBX 8 10 0 -1
BITMAP
1400
7000
7074
6024
A124
F074
B000
7000
7955
7FF8
ENDCHAR
STARTCHAR Ntilde
ENCODING 209
SWIDTH 853 0
DWIDTH 9 0
BBX 9 12 0 -1
BITMAP
080000
1D4000
24B440
712400
B00400
B00000
B04000
B09100
B0B400
B0B400
B57940
7D3E00
ENDCHAR
STARTCHAR Ograve
ENCODING 210
SWIDTH 837 0
DWIDTH 9 0
BBX 8 13 0 -1
BITMAP
0BF9
1DAE
2D54
1559
3000
B0B4
B0B4
B074
B074
B010
B400
7E59
1FE4
ENDCHAR
STARTCHAR Oacute
ENCODING 211
SWIDTH 837 0
DWIDTH 9 0
BBX 8 13 0 -1
BITMAP
02BE
1FE9
2D55
1654
3000
B0B4
B0B4
B074
B074
B010
B400
7E59
1FE4
ENDCHAR
STARTCHAR Ocircumflex
ENCODING 212
SWIDTH 837 0
DWIDTH 9 0
BBX 8 14 0 -1
BITMAP
0040
0501
1C00
2DA9
1901
3000
B0B4
B0B4
B074
B074
B010
B400
7E59
1FF4
ENDCHAR
STARTCHAR Otilde
ENCODING 213
SWIDTH 837 0
DWIDTH 9 0
BBX 9 14 0 -1
BITMAP
010000
080000
1C0000
2D4000
195500
300000
B0B400
B0B400
B07400
B07400
B01000
B40040
7E5900
1FF400
ENDCHAR
STARTCHAR Odieresis
ENCODING 214
SWIDTH 837 0
DWIDTH 9 0
BBX 9 13 0 -1
BITMAP
182000
282000
282000
2E5900
340040
B0B400
B0B400
B07400
B07400
B01000
B40040
7E5900
1FF400
ENDCHAR
STARTCHAR multiply
ENCODING 215
SWIDTH 834 0
DWIDTH 9 0
BBX 8 8 0 0
BITMAP
0400
2800
7D00
1D00
0400
2870
7DBD
1824
ENDCHAR
STARTCHAR Oslash
ENCODING 216
SWIDTH 837 0
DWIDTH 9 0
BBX 9 11 0 -2
BITMAP
015400
100900
70A500
B09000
B05400
B15400
B25400
B54040
785900
3EF400
280000
ENDCHAR
STARTCHAR Ugrave
ENCODING 217
SWIDTH 846 0
DWIDTH 9 0
BBX 9 13 0 -1
BITMAP
069400
1DAE00
2C0000
205540
707400
B07400
B07400
B07400
B07400
B01000
B40040
7E5900
1BF400
ENDCHAR
STARTCHAR Uacute
ENCODING 218
SWIDTH 846 0
DWIDTH 9 0
BBX 9 13 0 -1
BITMAP
005A00
07E900
1D0100
211040
707400
B07400
B07400
B07400
B07400
B01000
B40040
7E5900
1BF400
ENDCHAR
STARTCHAR Ucircumflex
ENCODING 219
SWIDTH 846 0
DWIDTH 9 0
BBX 9 12 0 -1
BITMAP
0C5400
1FFE00
20B440
707400
B07400
B07400
B07400
B07400
B00000
B40040
7E5900
1BF400
ENDCHAR
STARTCHAR Udieresis
ENCODING 220
SWIDTH 846 0
DWIDTH 9 0
BBX 9 13 0 -1
BITMAP
182000
282000
2C2000
79B940
B07400
B07400
B07400
B07400
B07400
B01000
740000
7E5900
1BF400
ENDCHAR
STARTCHAR Yacute
ENCODING 221
SWIDTH 805 0
DWIDTH 9 0
BBX 8 13 0 -1
BITMAP
0159
0BE9
2C01
2210
A070
A0B0
B060
B400
7C10
2E00
0F00
0B50
0BD0
ENDCHAR
STARTCHAR Thorn
ENCODING 222
SWIDTH 792 0
DWIDTH 9 0
BBX 8 10 0 -1
BITMAP
1400
7000
B100
B060
B0B0
B000
B155
B078
B500
7D00
ENDCHAR
STARTCHAR germandbls
ENCODING 223
SWIDTH 859 0
DWIDTH 9 0
BBX 9 10 0 -1
BITMAP
140000
700000
B05000
B05000
B05000
B07800
B05000
B05000
B5A540
7EFD00
ENDCHAR
STARTCHAR agrave
ENCODING 224
SWIDTH 830 0
DWIDTH 9 0
BBX 9 13 0 -1
BITMAP
069400
1DAE00
2C0000
1C6900
080000
146000
307000
700000
B10000
B00000
B0B400
B5B940
BD7E00
ENDCHAR
STARTCHAR aacute
ENCODING 225
SWIDTH 830 0
DWIDTH 9 0
BBX 9 13 0 -1
BITMAP
015900
0BE900
2C0100
2D5400
1C0000
186000
347000
700000
B10000
B00000
B0B400
B5B940
BD7E00
ENDCHAR
STARTCHAR acircumflex
ENCODING 226
SWIDTH 830 0
DWIDTH 9 0
BBX 9 12 0 -1
BITMAP
0C0000
2EB900
2D0000
180000
146000
307000
700000
B10000
B00000
B0B400
B5B940
BD7E00
ENDCHAR
STARTCHAR atilde
ENCODING 227
SWIDTH 830 0
DWIDTH 9 0
BBX 9 12 0 -1
BITMAP
080000
2C4100
2E5400
1C0000
186000
347000
700000
B10000
B00000
B0B400
B5B940
BD7E00
ENDCHAR
STARTCHAR adieresis
ENCODING 228
SWIDTH 830 0
DWIDTH 9 0
BBX 9 13 0 -1
BITMAP
001000
182000
282000
2E5500
1C0000
186000
347000
700000
B10000
B00000
B0B400
B5B940
BD7E00
ENDCHAR
STARTCHAR aring
ENCODING 229
SWIDTH 830 0
DWIDTH 9 0
BBX 9 13 0 -1
BITMAP
040000
1C0000
2C7000
2C5000
180000
246000
307000
700000
B10000
B00000
B0B400
B5B940
BD7E00
ENDCHAR
STARTCHAR ae
ENCODING 230
SWIDTH 1105 0
DWIDTH 12 0
BBX 12 10 0 -1
BITMAP
050001
180100
24307D
307000
706100
B10064
B00060
B0B000
B5B955
BD7FF8
ENDCHAR
STARTCHAR ccedilla
ENCODING 231
SWIDTH 728 0
DWIDTH 8 0
BBX 8 11 0 -3
BITMAP
2000
7000
B0B8
B050
B000
B000
B400
7E05
1B04
0BD0
0500
ENDCHAR
STARTCHAR egrave
ENCODING 232
SWIDTH 754 0
DWIDTH 8 0
BBX 8 13 0 -1
BITMAP
0654
2ABD
3800
2158
7000
B07D
B000
B100
B064
B064
B000
B555
7FF8
ENDCHAR
STARTCHAR eacute
ENCODING 233
SWIDTH 754 0
DWIDTH 8 0
BBX 8 13 0 -1
BITMAP
0159
0BE9
2C01
2254
7000
B07D
B000
B100
B064
B064
B000
B555
7FF8
ENDCHAR
STARTCHAR ecircumflex
ENCODING 234
SWIDTH 754 0
DWIDTH 8 0
BBX 8 13 0 -1
BITMAP
0510
2800
39A4
3401
7000
B07D
B000
B100
B064
B064
B000
B555
7FF8
ENDCHAR
STARTCHAR edieresis
ENCODING 235
SWIDTH 754 0
DWIDTH 8 0
BBX 8 13 0 -1
BITMAP
0410
1850
3850
3956
7000
707D
B000
B100
B064
B064
B000
B555
7FF8
ENDCHAR
STARTCHAR igrave
ENCODING 236
SWIDTH 705 0
DWIDTH 8 0
BBX 7 13 0 -1
BITMAP
0A50
2ABC
7400
3154
7040
B804
BD04
1D00
1D00
1900
6000
B554
BFF4
ENDCHAR
STARTCHAR iacute
ENCODING 237
SWIDTH 705 0
DWIDTH 8 0
BBX 7 13 0 -1
BITMAP
0168
1FA8
7404
7550
7040
B804
BD04
1D00
1D00
1900
6000
B554
BFF4
ENDCHAR
STARTCHAR icircumflex
ENCODING 238
SWIDTH 705 0
DWIDTH 8 0
BBX 7 13 0 -1
BITMAP
0404
2400
7AA4
7000
7040
B804
BD04
1D00
1D00
1900
6000
B554
BFF4
ENDCHAR
STARTCHAR idieresis
ENCODING 239
SWIDTH 705 0
DWIDTH 8 0
BBX 8 13 0 -1
BITMAP
0040
3080
B080
B555
7040
B804
BD04
1D00
1D00
1900
6000
B554
BFF4
ENDCHAR
STARTCHAR eth
ENCODING 240
SWIDTH 856 0
DWIDTH 9 0
BBX 8 10 0 -1
BITMAP
1400
7000
7074
6024
A124
F074
B000
7000
7955
7FF8
ENDCHAR
STARTCHAR ntilde
ENCODING 241
SWIDTH 853 0
DWIDTH 9 0
BBX 9 12 0 -1
BITMAP
080000
1D4000
24B440
712400
B00400
B00000
B04000
B09100
B0B400
B0B400
B57940
7D3E00
ENDCHAR
STARTCHAR ograve
ENCODING 242
SWIDTH 837 0
DWIDTH 9 0
BBX 8 13 0 -1
BITMAP
0BF9
1DAE
2D54
1559
3000
B0B4
B0B4
B074
B074
B010
B400
7E59
1FE4
ENDCHAR
STARTCHAR oacute
ENCODING 243
SWIDTH 837 0
DWIDTH 9 0
BBX 8 13 0 -1
BITMAP
02BE
1FE9
2D55
1654
3000
B0B4
B0B4
B074
B074
B010
B400
7E59
1FE4
ENDCHAR
STARTCHAR ocircumflex
ENCODING 244
SWIDTH 837 0
DWIDTH 9 0
BBX 8 14 0 -1
BITMAP
0040
0501
1C00
2DA9
1901
3000
B0B4
B0B4
B074
B074
B010
B400
7E59
1FF4
ENDCHAR
STARTCHAR otilde
ENCODING 245
SWIDTH 837 0
DWIDTH 9 0
BBX 9 14 0 -1
BITMAP
010000
080000
1C0000
2D4000
195500
300000
B0B400
B0B400
B07400
B07400
B01000
B40040
7E5900
1FF400
ENDCHAR
STARTCHAR odieresis
ENCODING 246
SWIDTH 837 0
DWIDTH 9 0
BBX 9 13 0 -1
BITMAP
182000
282000
282000
2E5900
340040
B0B400
B0B400
B07400
B07400
B01000
B40040
7E5900
1FF400
ENDCHAR
STARTCHAR divide
ENCODING 247
SWIDTH 834 0
DWIDTH 9 0
BBX 8 9 0 -2
BITMAP
0700
0694
2000
7000
BA9A
6B05
0704
0BE0
0140
ENDCHAR
STARTCHAR oslash
ENCODING 248
SWIDTH 837 0
DWIDTH 9 0
BBX 9 11 0 -2
BITMAP
015400
100900
70A500
B09000
B05400
B15400
B25400
B54040
785900
3EF400
280000
ENDCHAR
STARTCHAR ugrave
ENCODING 249
SWIDTH 846 0
DWIDTH 9 0
BBX 9 13 0 -1
BITMAP
069400
1DAE00
2C0000
205540
707400
B07400
B07400
B07400
B07400
B01000
B40040
7E5900
1BF400
ENDCHAR
STARTCHAR uacute
ENCODING 250
SWIDTH 846 0
DWIDTH 9 0
BBX 9 13 0 -1
BITMAP
005A00
07E900
1D0100
211040
707400
B07400
B07400
B07400
B07400
B01000
B40040
7E5900
1BF400
ENDCHAR
STARTCHAR ucircumflex
ENCODING 251
SWIDTH 846 0
DWIDTH 9 0
BBX 9 12 0 -1
BITMAP
0C5400
1FFE00
20B440
707400
B07400
B07400
B07400
B07400
B00000
B40040
7E5900
1BF400
ENDCHAR
STARTCHAR udieresis
ENCODING 252
SWIDTH 846 0
DWIDTH 9 0
BBX 9 13 0 -1
BITMAP
182000
282000
2C2000
79B940
B07400
B07400
B07400
B07400
B07400
B01000
740000
7E5900
1BF400
ENDCHAR
STARTCHAR yacute
ENCODING 253
SWIDTH 805 0
DWIDTH 9 0
BBX 8 13 0 -1
BITMAP
0159
0BE9
2C01
2210
A070
A0B0
B060
B400
7C10
2E00
0F00
0B50
0BD0
ENDCHAR
STARTCHAR thorn
ENCODING 254
SWIDTH 792 0
DWIDTH 9 0
BBX 8 10 0 -1
BITMAP
1400
7000
B100
B060
B0B0
B000
B155
B078
B500
7D00
ENDCHAR
STARTCHAR ydieresis
ENCODING 255
SWIDTH 805 0
DWIDTH 9 0
BBX 9 13 0 -1
BITMAP
041000
185000
385000
35F940
A0B000
A0B000
A06000
B40000
7C1000
2E0000
0F0000
0B5000
0BD000
ENDCHAR
STARTCHAR Amacron
ENCODING 256
SWIDTH 830 0
DWIDTH 9 0
BBX 9 12 0 -1
BITMAP
080000
2C0000
2E5500
1C0000
186000
347000
700000
B10000
B00000
B0B400
B5B940
BD7E00
ENDCHAR
STARTCHAR amacron
ENCODING 257
SWIDTH 830 0
DWIDTH 9 0
BBX 9 12 0 -1
BITMAP
080000
2C0000
2E5500
1C0000
186000
347000
700000
B10000
B00000
B0B400
B5B940
BD7E00
ENDCHAR
STARTCHAR Abreve
ENCODING 258
SWIDTH 830 0
DWIDTH 9 0
BBX 9 13 0 -1
BITMAP
081000
2C0000
2E0000
1E5500
080100
186000
347040
700000
B10000
B00000
B0B400
B5B940
BD7E00
ENDCHAR
STARTCHAR abreve
ENCODING 259
SWIDTH 830 0
DWIDTH 9 0
BBX 9 13 0 -1
BITMAP
081000
2C0000
2E0000
1E5500
080100
186000
347040
700000
B10000
B00000
B0B400
B5B940
BD7E00
ENDCHAR
STARTCHAR Aogonek
ENCODING 260
SWIDTH 830 0
DWIDTH 9 0
BBX 9 13 0 -4
BITMAP
010000
080000
186000
347000
700000
B10000
B00000
B0B400
B5B400
BD7100
007440
007F40
001400
ENDCHAR
STARTCHAR aogonek
ENCODING 261
SWIDTH 830 0
DWIDTH 9 0
BBX 9 13 0 -4
BITMAP
010000
080000
186000
347000
700000
B10000
B00000
B0B400
B5B400
BD7100
007440
007F40
001400
ENDCHAR
STARTCHAR Cacute
ENCODING 262
SWIDTH 728 0
DWIDTH 8 0
BBX 8 13 0 -1
BITMAP
0059
0BE9
1C01
1954
1015
70BD
B050
B000
B000
B000
B400
7E55
2FF8
ENDCHAR
STARTCHAR cacute
ENCODING 263
SWIDTH 728 0
DWIDTH 8 0
BBX 8 13 0 -1
BITMAP
0059
0BE9
1C01
1954
1015
70BD
B050
B000
B000
B000
B400
7E55
2FF8
ENDCHAR
STARTCHAR Ccircumflex
ENCODING 264
SWIDTH 728 0
DWIDTH 8 0
BBX 8 13 0 -1
BITMAP
0440
1800
2DA5
2901
2015
70BD
B050
B000
B000
B000
B400
7E55
2FF8
ENDCHAR
STARTCHAR ccircumflex
ENCODING 265
SWIDTH 728 0
DWIDTH 8 0
BBX 8 13 0 -1
BITMAP
0440
1800
2DA5
2901
2015
70BD
B050
B000
B000
B000
B400
7E55
2FF8
ENDCHAR
STARTCHAR Cdotaccent
ENCODING 266
SWIDTH 728 0
DWIDTH 8 0
BBX 8 13 0 -1
BITMAP
0200
0B00
0B00
0901
3015
70BD
B050
B000
B000
B000
B400
7E55
1FF8
ENDCHAR
STARTCHAR cdotaccent
ENCODING 267
SWIDTH 728 0
DWIDTH 8 0
BBX 8 13 0 -1
BITMAP
0200
0B00
0B00
0901
3015
70BD
B050
B000
B000
B000
B400
7E55
1FF8
ENDCHAR
STARTCHAR Ccaron
ENCODING 268
SWIDTH 728 0
DWIDTH 8 0
BBX 8 14 0 -1
BITMAP
0500
1840
2800
2E44
1901
1015
70BD
B050
B000
B000
B000
B400
7E55
2FF8
ENDCHAR
STARTCHAR ccaron
ENCODING 269
SWIDTH 728 0
DWIDTH 8 0
BBX 8 14 0 -1
BITMAP
0500
1840
2800
2E44
1901
1015
70BD
B050
B000
B000
B000
B400
7E55
2FF8
ENDCHAR
STARTCHAR Dcaron
ENCODING 270
SWIDTH 846 0
DWIDTH 9 0
BBX 8 14 0 -1
BITMAP
0100
0941
1C00
1E44
1000
7000
B050
B074
B074
B074
B060
B000
B555
7FF8
ENDCHAR
STARTCHAR dcaron
ENCODING 271
SWIDTH 846 0
DWIDTH 9 0
BBX 8 14 0 -1
BITMAP
0100
0941
1C00
1E44
1000
7000
B050
B074
B074
B074
B060
B000
B555
7FF8
ENDCHAR
STARTCHAR Dcroat
ENCODING 272
SWIDTH 856 0
DWIDTH 9 0
BBX 8 10 0 -1
BITMAP
1400
7000
7074
6024
A124
F074
B000
7000
7955
7FF8
ENDCHAR
STARTCHAR dcroat
ENCODING 273
SWIDTH 856 0
DWIDTH 9 0
BBX 8 10 0 -1
BITMAP
1400
7000
7074
6024
A124
F074
B000
7000
7955
7FF8
ENDCHAR
STARTCHAR Emacron
ENCODING 274
SWIDTH 754 0
DWIDTH 8 0
BBX 8 12 0 -1
BITMAP
1800
3800
3401
7000
B07D
B000
B100
B064
B064
B000
B555
7FF8
ENDCHAR
STARTCHAR emacron
ENCODING 275
SWIDTH 754 0
DWIDTH 8 0
BBX 8 12 0 -1
BITMAP
1800
3800
3401
7000
B07D
B000
B100
B064
B064
B000
B555
7FF8
ENDCHAR
STARTCHAR Ebreve
ENCODING 276
SWIDTH 754 0
DWIDTH 8 0
BBX 8 14 0 -1
BITMAP
0010
1850
2800
2D00
2401
7000
B07D
B000
B100
B064
B064
B000
B555
7FF8
ENDCHAR
STARTCHAR ebreve
ENCODING 277
SWIDTH 754 0
DWIDTH 8 0
BBX 8 14 0 -1
BITMAP
0010
1850
2800
2D00
2401
7000
B07D
B000
B100
B064
B064
B000
B555
7FF8
ENDCHAR
STARTCHAR Edotaccent
ENCODING 278
SWIDTH 754 0
DWIDTH 8 0
BBX 8 13 0 -1
BITMAP
0600
0E00
0E00
1401
7000
B07D
B000
B100
B064
B064
B000
B555
7FF8
ENDCHAR
STARTCHAR edotaccent
ENCODING 279
SWIDTH 754 0
DWIDTH 8 0
BBX 8 13 0 -1
BITMAP
0600
0E00
0E00
1401
7000
B07D
B000
B100
B064
B064
B000
B555
7FF8
ENDCHAR
STARTCHAR Eogonek
ENCODING 280
SWIDTH 754 0
DWIDTH 8 0
BBX 8 13 0 -4
BITMAP
1001
7000
B07D
B000
B100
B064
B064
B000
B541
7FD5
01E1
01FD
0054
ENDCHAR
STARTCHAR eogonek
ENCODING 281
SWIDTH 754 0
DWIDTH 8 0
BBX 8 13 0 -4
BITMAP
1001
7000
B07D
B000
B100
B064
B064
B000
B541
7FD5
01E1
01FD
0054
ENDCHAR
STARTCHAR Ecaron
ENCODING 282
SWIDTH 754 0
DWIDTH 8 0
BBX 8 14 0 -1
BITMAP
0500
1940
2800
2E04
2401
7000
B07D
B000
B100
B064
B064
B000
B555
7FF8
ENDCHAR
STARTCHAR ecaron
ENCODING 283
SWIDTH 754 0
DWIDTH 8 0
BBX 8 14 0 -1
BITMAP
0500
1940
2800
2E04
2401
7000
B07D
B000
B100
B064
B064
B000
B555
7FF8
ENDCHAR
STARTCHAR Gcircumflex
ENCODING 284
SWIDTH 808 0
DWIDTH 9 0
BBX 8 13 0 -1
BITMAP
0101
0800
1EB9
1800
1015
70BD
B054
B060
B0B0
B010
B400
7E55
2FFD
ENDCHAR
STARTCHAR gcircumflex
ENCODING 285
SWIDTH 808 0
DWIDTH 9 0
BBX 8 13 0 -1
BITMAP
0101
0800
1EB9
1800
1015
70BD
B054
B060
B0B0
B010
B400
7E55
2FFD
ENDCHAR
STARTCHAR Gbreve
ENCODING 286
SWIDTH 808 0
DWIDTH 9 0
BBX 8 13 0 -1
BITMAP
0810
1C00
1E00
1901
1015
70BD
B054
B060
B0B0
B010
B400
7E55
2FFD
ENDCHAR
STARTCHAR gbreve
ENCODING 287
SWIDTH 808 0
DWIDTH 9 0
BBX 8 13 0 -1
BITMAP
0810
1C00
1E00
1901
1015
70BD
B054
B060
B0B0
B010
B400
7E55
2FFD
ENDCHAR
STARTCHAR Gdotaccent
ENCODING 288
SWIDTH 808 0
DWIDTH 9 0
BBX 8 14 0 -1
BITMAP
0040
0200
0700
0740
0501
1015
70BD
B054
B060
B0B0
B010
B400
7E55
2FFD
ENDCHAR
STARTCHAR gdotaccent
ENCODING 289
SWIDTH 808 0
DWIDTH 9 0
BBX 8 14 0 -1
BITMAP
0040
0200
0700
0740
0501
1015
70BD
B054
B060
B0B0
B010
B400
7E55
2FFD
ENDCHAR
STARTCHAR Gcommaaccent
ENCODING 290
SWIDTH 808 0
DWIDTH 9 0
BBX 9 14 0 -5
BITMAP
015500
100100
70BD00
B05400
B06000
B0B000
B01000
B40000
7F9A40
2F0500
070000
079000
075000
079000
ENDCHAR
STARTCHAR gcommaaccent
ENCODING 291
SWIDTH 808 0
DWIDTH 9 0
BBX 9 14 0 -5
BITMAP
015500
100100
70BD00
B05400
B06000
B0B000
B01000
B40000
7F9A40
2F0500
070000
079000
075000
079000
ENDCHAR
STARTCHAR Hcircumflex
ENCODING 292
SWIDTH 859 0
DWIDTH 9 0
BBX 9 13 0 -1
BITMAP
010000
080000
1EFE00
247440
707400
B06400
B00000
B10100
B00000
B07400
B07400
B57940
7E3E00
ENDCHAR
STARTCHAR hcircumflex
ENCODING 293
SWIDTH 859 0
DWIDTH 9 0
BBX 9 13 0 -1
BITMAP
010000
080000
1EFE00
247440
707400
B06400
B00000
B10100
B00000
B07400
B07400
B57940
7E3E00
ENDCHAR
STARTCHAR Hbar
ENCODING 294
SWIDTH 879 0
DWIDTH 10 0
BBX 10 10 0 -1
BITMAP
140400
701400
A10100
F07410
B00000
710100
700000
707800
797940
7E3E00
ENDCHAR
STARTCHAR hbar
ENCODING 295
SWIDTH 879 0
DWIDTH 10 0
BBX 10 10 0 -1
BITMAP
140400
701400
A10100
F07410
B00000
710100
700000
707800
797940
7E3E00
ENDCHAR
STARTCHAR Itilde
ENCODING 296
SWIDTH 705 0
DWIDTH 8 0
BBX 7 13 0 -1
BITMAP
0004
1400
7500
7000
7040
B804
BD04
1D00
1D00
1900
6000
B554
BFF4
ENDCHAR
STARTCHAR itilde
ENCODING 297
SWIDTH 705 0
DWIDTH 8 0
BBX 7 13 0 -1
BITMAP
0004
1400
7500
7000
7040
B804
BD04
1D00
1D00
1900
6000
B554
BFF4
ENDCHAR
STARTCHAR Imacron
ENCODING 298
SWIDTH 705 0
DWIDTH 8 0
BBX 8 13 0 -1
BITMAP
0400
2400
7400
7555
7040
B804
BD04
1D00
1D00
1900
6000
B554
BFF4
ENDCHAR
STARTCHAR imacron
ENCODING 299
SWIDTH 705 0
DWIDTH 8 0
BBX 8 13 0 -1
BITMAP
0400
2400
7400
7555
7040
B804
BD04
1D00
1D00
1900
6000
B554
BFF4
ENDCHAR
STARTCHAR Ibreve
ENCODING 300
SWIDTH 705 0
DWIDTH 8 0
BBX 7 14 0 -1
BITMAP
0410
2440
7400
7900
2000
7040
B804
BD04
1D00
1D00
1900
6000
B554
BFF4
ENDCHAR
STARTCHAR ibreve
ENCODING 301
SWIDTH 705 0
DWIDTH 8 0
BBX 7 14 0 -1
BITMAP
0410
2440
7400
7900
2000
7040
B804
BD04
1D00
1D00
1900
6000
B554
BFF4
ENDCHAR
STARTCHAR Iogonek
ENCODING 302
SWIDTH 705 0
DWIDTH 8 0
BBX 8 13 0 -4
BITMAP
1000
7040
B804
BD04
1D00
1D00
1900
6010
B545
BF84
03D0
02F8
0050
ENDCHAR
STARTCHAR iogonek
ENCODING 303
SWIDTH 705 0
DWIDTH 8 0
BBX 8 13 0 -4
BITMAP
1000
7040
B804
BD04
1D00
1D00
1900
6010
B545
BF84
03D0
02F8
0050
ENDCHAR
STARTCHAR Idotaccent
ENCODING 304
SWIDTH 705 0
DWIDTH 8 0
BBX 7 14 0 -1
BITMAP
0100
0500
0D00
1D00
1000
7040
B804
BD04
1D00
1D00
1900
6000
B554
BFF4
ENDCHAR
STARTCHAR dotlessi
ENCODING 305
SWIDTH 705 0
DWIDTH 8 0
BBX 7 10 0 -1
BITMAP
1000
7040
B804
BD04
1D00
1D00
1900
6000
B554
BFF4
ENDCHAR
STARTCHAR IJ
ENCODING 306
SWIDTH 844 0
DWIDTH 9 0
BBX 9 10 0 -1
BITMAP
141440
707400
B07400
B07400
B0B400
BFB400
696000
300000
755500
7FF400
ENDCHAR
STARTCHAR ij
ENCODING 307
SWIDTH 844 0
DWIDTH 9 0
BBX 9 10 0 -1
BITMAP
141440
707400
B07400
B07400
B0B400
BFB400
696000
300000
755500
7FF400
ENDCHAR
STARTCHAR Jcircumflex
ENCODING 308
SWIDTH 788 0
DWIDTH 9 0
BBX 9 13 0 -1
BITMAP
004000
024000
03AE40
03A040
00E000
00E000
00E000
60E000
A0E000
A00000
B00000
7E5800
2FE000
ENDCHAR
STARTCHAR jcircumflex
ENCODING 309
SWIDTH 788 0
DWIDTH 9 0
BBX 9 13 0 -1
BITMAP
004000
024000
03AE40
03A040
00E000
00E000
00E000
60E000
A0E000
A00000
B00000
7E5800
2FE000
ENDCHAR
STARTCHAR Kcommaaccent
ENCODING 310
SWIDTH 846 0
DWIDTH 9 0
BBX 9 14 0 -5
BITMAP
156400
705000
B04000
B11000
B01000
B07400
B07400
B07400
B56540
7F0600
070000
079000
075000
079000
ENDCHAR
STARTCHAR kcommaaccent
ENCODING 311
SWIDTH 846 0
DWIDTH 9 0
BBX 9 14 0 -5
BITMAP
156400
705000
B04000
B11000
B01000
B07400
B07400
B07400
B56540
7F0600
070000
079000
075000
079000
ENDCHAR
STARTCHAR kgreenlandic
ENCODING 312
SWIDTH 846 0
DWIDTH 9 0
BBX 9 10 0 -1
BITMAP
141400
706000
B05000
B00000
B11000
B05000
B07400
B07400
B57940
7D3E00
ENDCHAR
STARTCHAR Lacute
ENCODING 313
SWIDTH 795 0
DWIDTH 9 0
BBX 8 13 0 -1
BITMAP
05A4
2FA4
7004
7A10
7000
B000
B000
B020
B070
B010
B000
B555
7FFD
ENDCHAR
STARTCHAR lacute
ENCODING 314
SWIDTH 795 0
DWIDTH 9 0
BBX 8 13 0 -1
BITMAP
05A4
2FA4
7004
7A10
7000
B000
B000
B020
B070
B010
B000
B555
7FFD
ENDCHAR
STARTCHAR Lcommaaccent
ENCODING 315
SWIDTH 795 0
DWIDTH 9 0
BBX 9 14 0 -5
BITMAP
100000
700000
B00000
B00000
B02000
B07000
B01000
B00000
BA9A40
7F0500
070000
0B9000
074000
078000
ENDCHAR
STARTCHAR lcommaaccent
ENCODING 316
SWIDTH 795 0
DWIDTH 9 0
BBX 9 14 0 -5
BITMAP
100000
700000
B00000
B00000
B02000
B07000
B01000
B00000
BA9A40
7F0500
070000
0B9000
074000
078000
ENDCHAR
STARTCHAR Lcaron
ENCODING 317
SWIDTH 795 0
DWIDTH 9 0
BBX 8 10 0 -1
BITMAP
1410
7070
B065
B079
B070
B070
B010
B000
B555
7FFD
ENDCHAR
STARTCHAR lcaron
ENCODING 318
SWIDTH 795 0
DWIDTH 9 0
BBX 8 10 0 -1
BITMAP
1410
7070
B065
B079
B070
B070
B010
B000
B555
7FFD
ENDCHAR
STARTCHAR Ldot
ENCODING 319
SWIDTH 795 0
DWIDTH 9 0
BBX 8 10 0 -1
BITMAP
1400
7000
B070
B075
B079
B070
B010
B000
B555
7FFD
ENDCHAR
STARTCHAR ldot
ENCODING 320
SWIDTH 795 0
DWIDTH 9 0
BBX 8 10 0 -1
BITMAP
1400
7000
B070
B075
B079
B070
B010
B000
B555
7FFD
ENDCHAR
STARTCHAR Lslash
ENCODING 321
SWIDTH 805 0
DWIDTH 9 0
BBX 8 10 0 -1
BITMAP
1400
7000
7000
9100
E070
F070
B010
7000
7955
7FFD
ENDCHAR
STARTCHAR lslash
ENCODING 322
SWIDTH 805 0
DWIDTH 9 0
BBX 8 10 0 -1
BITMAP
1400
7000
7000
9100
E070
F070
B010
7000
7955
7FFD
ENDCHAR
STARTCHAR Nacute
ENCODING 323
SWIDTH 853 0
DWIDTH 9 0
BBX 9 13 0 -1
BITMAP
005A00
07E900
1D0100
251040
712400
B00400
B00000
B04000
B09100
B0B400
B0B400
B57940
7D3E00
ENDCHAR
STARTCHAR nacute
ENCODING 324
SWIDTH 853 0
DWIDTH 9 0
BBX 9 13 0 -1
BITMAP
005A00
07E900
1D0100
251040
712400
B00400
B00000
B04000
B09100
B0B400
B0B400
B57940
7D3E00
ENDCHAR
STARTCHAR Ncommaaccent
ENCODING 325
SWIDTH 853 0
DWIDTH 9 0
BBX 9 14 0 -5
BITMAP
156540
702400
B00000
B00000
B04000
B0A100
B0B400
B07400
B56540
7F0600
070000
079000
075000
07D000
ENDCHAR
STARTCHAR ncommaaccent
ENCODING 326
SWIDTH 853 0
DWIDTH 9 0
BBX 9 14 0 -5
BITMAP
156540
702400
B00000
B00000
B04000
B0A100
B0B400
B07400
B56540
7F0600
070000
079000
075000
07D000
ENDCHAR
STARTCHAR Ncaron
ENCODING 327
SWIDTH 853 0
DWIDTH 9 0
BBX 9 13 0 -1
BITMAP
080000
1C0000
2E4400
24A440
712400
B00400
B00000
B04000
B09100
B0B400
B0B400
B57940
7D3E00
ENDCHAR
STARTCHAR ncaron
ENCODING 328
SWIDTH 853 0
DWIDTH 9 0
BBX 9 13 0 -1
BITMAP
080000
1C0000
2E4400
24A440
712400
B00400
B00000
B04000
B09100
B0B400
B0B400
B57940
7D3E00
ENDCHAR
STARTCHAR napostrophe
ENCODING 329
SWIDTH 853 0
DWIDTH 9 0
BBX 9 14 0 -1
BITMAP
200000
B00000
B40000
700000
755940
713400
B00400
B00000
B04000
B09100
B0B400
B0B400
B57940
7D3E00
ENDCHAR
STARTCHAR Eng
ENCODING 330
SWIDTH 846 0
DWIDTH 9 0
BBX 8 11 0 -2
BITMAP
0054
1000
7074
B0B4
B074
B074
B074
B050
B590
7EE5
01F8
ENDCHAR
STARTCHAR eng
ENCODING 331
SWIDTH 846 0
DWIDTH 9 0
BBX 8 11 0 -2
BITMAP
0054
1000
7074
B0B4
B074
B074
B074
B050
B590
7EE5
01F8
ENDCHAR
STARTCHAR Omacron
ENCODING 332
SWIDTH 837 0
DWIDTH 9 0
BBX 9 12 0 -1
BITMAP
1C0000
2C0000
1E5900
340040
B0B400
B0B400
B07400
B07400
B01000
B40040
7E5900
1FF400
ENDCHAR
STARTCHAR omacron
ENCODING 333
SWIDTH 837 0
DWIDTH 9 0
BBX 9 12 0 -1
BITMAP
1C0000
2C0000
1E5900
340040
B0B400
B0B400
B07400
B07400
B01000
B40040
7E5900
1FF400
ENDCHAR
STARTCHAR Obreve
ENCODING 334
SWIDTH 837 0
DWIDTH 9 0
BBX 9 13 0 -1
BITMAP
081000
2C0000
1E0400
0E5400
300000
70B400
B0B400
B07400
B07400
B01000
B40040
7E5900
1FF400
ENDCHAR
STARTCHAR obreve
ENCODING 335
SWIDTH 837 0
DWIDTH 9 0
BBX 9 13 0 -1
BITMAP
081000
2C0000
1E0400
0E5400
300000
70B400
B0B400
B07400
B07400
B01000
B40040
7E5900
1FF400
ENDCHAR
STARTCHAR Ohungarumlaut
ENCODING 336
SWIDTH 837 0
DWIDTH 9 0
BBX 9 15 0 -1
BITMAP
010000
051400
0D3000
1C3000
2C6000
1E5900
340040
B0B400
B0B400
B07400
B07400
B01000
B40040
7E5900
1FF400
ENDCHAR
STARTCHAR ohungarumlaut
ENCODING 337
SWIDTH 837 0
DWIDTH 9 0
BBX 9 15 0 -1
BITMAP
010000
051400
0D3000
1C3000
2C6000
1E5900
340040
B0B400
B0B400
B07400
B07400
B01000
B40040
7E5900
1FF400
ENDCHAR
STARTCHAR OE
ENCODING 338
SWIDTH 1115 0
DWIDTH 12 0
BBX 12 10 0 -1
BITMAP
000001
200100
70B07D
B0B000
B0B100
B0B064
B06064
B40000
7E5555
2FFFF8
ENDCHAR
STARTCHAR oe
ENCODING 339
SWIDTH 1115 0
DWIDTH 12 0
BBX 12 10 0 -1
BITMAP
000001
200100
70B07D
B0B000
B0B100
B0B064
B06064
B40000
7E5555
2FFFF8
ENDCHAR
STARTCHAR Racute
ENCODING 340
SWIDTH 843 0
DWIDTH 9 0
BBX 9 13 0 -1
BITMAP
016900
0BE900
2C0100
229400
700000
B06000
B05000
B10400
B00000
B07400
B07400
B57940
7D3E00
ENDCHAR
STARTCHAR racute
ENCODING 341
SWIDTH 843 0
DWIDTH 9 0
BBX 9 13 0 -1
BITMAP
016900
0BE900
2C0100
229400
700000
B06000
B05000
B10400
B00000
B07400
B07400
B57940
7D3E00
ENDCHAR
STARTCHAR Rcommaaccent
ENCODING 342
SWIDTH 843 0
DWIDTH 9 0
BBX 9 14 0 -5
BITMAP
155400
700000
B06000
B05000
B10400
B00000
B07400
B07400
B56540
7F4600
074400
079400
075000
07D000
ENDCHAR
STARTCHAR rcommaaccent
ENCODING 343
SWIDTH 843 0
DWIDTH 9 0
BBX 9 14 0 -5
BITMAP
155400
700000
B06000
B05000
B10400
B00000
B07400
B07400
B56540
7F4600
074400
079400
075000
07D000
ENDCHAR
STARTCHAR Rcaron
ENCODING 344
SWIDTH 843 0
DWIDTH 9 0
BBX 9 14 0 -1
BITMAP
010000
084100
1C0000
1E4400
155400
700000
706000
B05000
B10400
B00000
B07400
B07400
B57940
7D3E00
ENDCHAR
STARTCHAR rcaron
ENCODING 345
SWIDTH 843 0
DWIDTH 9 0
BBX 9 14 0 -1
BITMAP
010000
084100
1C0000
1E4400
155400
700000
706000
B05000
B10400
B00000
B07400
B07400
B57940
7D3E00
ENDCHAR
STARTCHAR Sacute
ENCODING 346
SWIDTH 750 0
DWIDTH 8 0
BBX 8 13 0 -1
BITMAP
0159
0FE9
3804
3550
2000
607D
B001
B400
BF90
2000
6000
B554
BFE0
ENDCHAR
STARTCHAR sacute
ENCODING 347
SWIDTH 750 0
DWIDTH 8 0
BBX 8 13 0 -1
BITMAP
0159
0FE9
3804
3550
2000
607D
B001
B400
BF90
2000
6000
B554
BFE0
ENDCHAR
STARTCHAR Scircumflex
ENCODING 348
SWIDTH 750 0
DWIDTH 8 0
BBX 8 13 0 -1
BITMAP
0400
1800
3AA4
3900
2000
607D
B001
B400
BF90
2000
6000
B554
BFE0
ENDCHAR
STARTCHAR scircumflex
ENCODING 349
SWIDTH 750 0
DWIDTH 8 0
BBX 8 13 0 -1
BITMAP
0400
1800
3AA4
3900
2000
607D
B001
B400
BF90
2000
6000
B554
BFE0
ENDCHAR
STARTCHAR Scedilla
ENCODING 350
SWIDTH 750 0
DWIDTH 8 0
BBX 8 12 0 -3
BITMAP
0400
2000
607D
B001
B400
BF90
2000
6000
B504
BD10
0F80
0500
ENDCHAR
STARTCHAR scedilla
ENCODING 351
SWIDTH 750 0
DWIDTH 8 0
BBX 8 12 0 -3
BITMAP
0400
2000
607D
B001
B400
BF90
2000
6000
B504
BD10
0F80
0500
ENDCHAR
STARTCHAR Scaron
ENCODING 352
SWIDTH 750 0
DWIDTH 8 0
BBX 8 14 0 -1
BITMAP
0500
1940
3800
3E14
1900
1000
607D
B001
B400
BF90
2000
6000
B554
BFE0
ENDCHAR
STARTCHAR scaron
ENCODING 353
SWIDTH 750 0
DWIDTH 8 0
BBX 8 14 0 -1
BITMAP
0500
1940
3800
3E14
1900
1000
607D
B001
B400
BF90
2000
6000
B554
BFE0
ENDCHAR
STARTCHAR Tcommaaccent
ENCODING 354
SWIDTH 756 0
DWIDTH 8 0
BBX 8 14 0 -5
BITMAP
1554
E000
FE0E
5E04
0E00
0E00
0E00
0E00
0F50
0E00
0A00
0F40
0A00
0B40
ENDCHAR
STARTCHAR tcommaaccent
ENCODING 355
SWIDTH 756 0
DWIDTH 8 0
BBX 8 14 0 -5
BITMAP
1554
E000
FE0E
5E04
0E00
0E00
0E00
0E00
0F50
0E00
0A00
0F40
0A00
0B40
ENDCHAR
STARTCHAR Tcaron
ENCODING 356
SWIDTH 756 0
DWIDTH 8 0
BBX 8 14 0 -1
BITMAP
0500
1940
3800
3E14
2000
A544
FE0E
5E04
0E00
0E00
0E00
0E00
0E50
0FD0
ENDCHAR
STARTCHAR tcaron
ENCODING 357
SWIDTH 756 0
DWIDTH 8 0
BBX 8 14 0 -1
BITMAP
0500
1940
3800
3E14
2000
A544
FE0E
5E04
0E00
0E00
0E00
0E00
0E50
0FD0
ENDCHAR
STARTCHAR Tbar
ENCODING 358
SWIDTH 756 0
DWIDTH 8 0
BBX 8 10 0 -1
BITMAP
1000
E040
FE0A
5904
2440
7905
7E04
1E00
0E50
0FD0
ENDCHAR
STARTCHAR tbar
ENCODING 359
SWIDTH 756 0
DWIDTH 8 0
BBX 8 10 0 -1
BITMAP
1000
E040
FE0A
5904
2440
7905
7E04
1E00
0E50
0FD0
ENDCHAR
STARTCHAR Utilde
ENCODING 360
SWIDTH 846 0
DWIDTH 9 0
BBX 9 14 0 -1
BITMAP
010000
041000
1C0000
1D5000
20B440
707400
B07400
B07400
B07400
B07400
B01000
B40040
7E5900
1BF400
ENDCHAR
STARTCHAR utilde
ENCODING 361
SWIDTH 846 0
DWIDTH 9 0
BBX 9 14 0 -1
BITMAP
010000
041000
1C0000
1D5000
20B440
707400
B07400
B07400
B07400
B07400
B01000
B40040
7E5900
1BF400
ENDCHAR
STARTCHAR Umacron
ENCODING 362
SWIDTH 846 0
DWIDTH 9 0
BBX 9 12 0 -1
BITMAP
080000
1C0000
19B940
707400
B07400
B07400
B07400
B07400
B01000
B40000
7E5900
1FF400
ENDCHAR
STARTCHAR umacron
ENCODING 363
SWIDTH 846 0
DWIDTH 9 0
BBX 9 12 0 -1
BITMAP
080000
1C0000
19B940
707400
B07400
B07400
B07400
B07400
B01000
B40000
7E5900
1FF400
ENDCHAR
STARTCHAR Ubreve
ENCODING 364
SWIDTH 846 0
DWIDTH 9 0
BBX 9 13 0 -1
BITMAP
081000
2C0000
2E0000
10B440
707400
B07400
B07400
B07400
B07400
B01000
B40040
7E5900
1BF400
ENDCHAR
STARTCHAR ubreve
ENCODING 365
SWIDTH 846 0
DWIDTH 9 0
BBX 9 13 0 -1
BITMAP
081000
2C0000
2E0000
10B440
707400
B07400
B07400
B07400
B07400
B01000
B40040
7E5900
1BF400
ENDCHAR
STARTCHAR Uring
ENCODING 366
SWIDTH 846 0
DWIDTH 9 0
BBX 9 15 0 -1
BITMAP
051100
0C7000
1C1000
2C0000
2E0000
10B440
707400
B07400
B07400
B07400
B07400
B07400
B40040
7E5900
1BF400
ENDCHAR
STARTCHAR uring
ENCODING 367
SWIDTH 846 0
DWIDTH 9 0
BBX 9 15 0 -1
BITMAP
051100
0C7000
1C1000
2C0000
2E0000
10B440
707400
B07400
B07400
B07400
B07400
B07400
B40040
7E5900
1BF400
ENDCHAR
STARTCHAR Uhungarumlaut
ENCODING 368
SWIDTH 846 0
DWIDTH 9 0
BBX 9 14 0 -1
BITMAP
051400
0D2400
0C3000
1C3000
19B940
707400
B07400
B07400
B07400
B07400
B01000
B40000
7E5900
1FF400
ENDCHAR
STARTCHAR uhungarumlaut
ENCODING 369
SWIDTH 846 0
DWIDTH 9 0
BBX 9 14 0 -1
BITMAP
051400
0D2400
0C3000
1C3000
19B940
707400
B07400
B07400
B07400
B07400
B01000
B40000
7E5900
1FF400
ENDCHAR
STARTCHAR Uogonek
ENCODING 370
SWIDTH 846 0
DWIDTH 9 0
BBX 9 13 0 -4
BITMAP
101440
707400
B07400
B07400
B07400
B07400
B01000
B41400
7E0500
2F5000
078000
07F400
015000
ENDCHAR
STARTCHAR uogonek
ENCODING 371
SWIDTH 846 0
DWIDTH 9 0
BBX 9 13 0 -4
BITMAP
101440
707400
B07400
B07400
B07400
B07400
B01000
B41400
7E0500
2F5000
078000
07F400
015000
ENDCHAR
STARTCHAR Wcircumflex
ENCODING 372
SWIDTH 931 0
DWIDTH 10 0
BBX 10 13 0 -1
BITMAP
010000
060000
0EBE00
206D10
700D00
B01900
B04100
B00000
B00000
B01000
742400
7D7940
2F3E00
ENDCHAR
STARTCHAR wcircumflex
ENCODING 373
SWIDTH 931 0
DWIDTH 10 0
BBX 10 13 0 -1
BITMAP
010000
060000
0EBE00
206D10
700D00
B01900
B04100
B00000
B00000
B01000
742400
7D7940
2F3E00
ENDCHAR
STARTCHAR Ycircumflex
ENCODING 374
SWIDTH 805 0
DWIDTH 9 0
BBX 8 13 0 -1
BITMAP
0400
1800
2EF9
20B4
A070
A0B0
B060
B400
7C10
2E00
0F00
0B50
0BD0
ENDCHAR
STARTCHAR ycircumflex
ENCODING 375
SWIDTH 805 0
DWIDTH 9 0
BBX 8 13 0 -1
BITMAP
0400
1800
2EF9
20B4
A070
A0B0
B060
B400
7C10
2E00
0F00
0B50
0BD0
ENDCHAR
STARTCHAR Ydieresis
ENCODING 376
SWIDTH 805 0
DWIDTH 9 0
BBX 9 13 0 -1
BITMAP
041000
185000
385000
35F940
A0B000
A0B000
A06000
B40000
7C1000
2E0000
0F0000
0B5000
0BD000
ENDCHAR
STARTCHAR Zacute
ENCODING 377
SWIDTH 760 0
DWIDTH 8 0
BBX 8 13 0 -1
BITMAP
0159
0BE9
2801
3254
7140
BF40
1600
0800
1400
6010
A000
B555
BFFC
ENDCHAR
STARTCHAR zacute
ENCODING 378
SWIDTH 760 0
DWIDTH 8 0
BBX 8 13 0 -1
BITMAP
0159
0BE9
2801
3254
7140
BF40
1600
0800
1400
6010
A000
B555
BFFC
ENDCHAR
STARTCHAR Zdotaccent
ENCODING 379
SWIDTH 760 0
DWIDTH 8 0
BBX 8 13 0 -1
BITMAP
0600
0A00
0E00
1001
7140
BF40
1600
0800
1400
6010
A000
B555
BFFC
ENDCHAR
STARTCHAR zdotaccent
ENCODING 380
SWIDTH 760 0
DWIDTH 8 0
BBX 8 13 0 -1
BITMAP
0600
0A00
0E00
1001
7140
BF40
1600
0800
1400
6010
A000
B555
BFFC
ENDCHAR
STARTCHAR Zcaron
ENCODING 381
SWIDTH 760 0
DWIDTH 8 0
BBX 8 14 0 -1
BITMAP
0500
1940
3800
3E14
2001
7140
BF40
1600
0800
1400
6010
A000
B555
BFFC
ENDCHAR
STARTCHAR zcaron
ENCODING 382
SWIDTH 760 0
DWIDTH 8 0
BBX 8 14 0 -1
BITMAP
0500
1940
3800
3E14
2001
7140
BF40
1600
0800
1400
6010
A000
B555
BFFC
ENDCHAR
STARTCHAR Schwa
ENCODING 399
SWIDTH 815 0
DWIDTH 9 0
BBX 8 10 0 -1
BITMAP
0554
2800
2FF0
2000
7100
B0B0
B000
B400
7E59
2FE4
ENDCHAR
STARTCHAR florin
ENCODING 402
SWIDTH 674 0
DWIDTH 7 0
BBX 7 10 0 -1
BITMAP
0040
0500
0D04
1814
A040
BC1C
6010
A010
B540
BD00
ENDCHAR
STARTCHAR Ohorn
ENCODING 416
SWIDTH 847 0
DWIDTH 9 0
BBX 8 11 0 -1
BITMAP
0001
0005
1001
70B4
B0B4
B074
B074
B010
B400
7E59
2FE4
ENDCHAR
STARTCHAR ohorn
ENCODING 417
SWIDTH 847 0
DWIDTH 9 0
BBX 8 11 0 -1
BITMAP
0001
0005
1001
70B4
B0B4
B074
B074
B010
B400
7E59
2FE4
ENDCHAR
STARTCHAR Uhorn
ENCODING 431
SWIDTH 856 0
DWIDTH 9 0
BBX 9 11 0 -1
BITMAP
000500
101400
707400
B07400
B07400
B07400
B07400
B01000
B40040
7E5900
1FF400
ENDCHAR
STARTCHAR uhorn
ENCODING 432
SWIDTH 856 0
DWIDTH 9 0
BBX 9 11 0 -1
BITMAP
000500
101400
707400
B07400
B07400
B07400
B07400
B01000
B40040
7E5900
1FF400
ENDCHAR
STARTCHAR Acaron
ENCODING 461
SWIDTH 830 0
DWIDTH 9 0
BBX 9 14 0 -1
BITMAP
010000
084000
2C0000
2E4400
1D0000
080000
186000
347000
700000
B10000
B00000
B0B400
B5B940
BD7E00
ENDCHAR
STARTCHAR acaron
ENCODING 462
SWIDTH 830 0
DWIDTH 9 0
BBX 9 14 0 -1
BITMAP
010000
084000
2C0000
2E4400
1D0000
080000
186000
347000
700000
B10000
B00000
B0B400
B5B940
BD7E00
ENDCHAR
STARTCHAR Icaron
ENCODING 463
SWIDTH 705 0
DWIDTH 8 0
BBX 7 14 0 -1
BITMAP
0400
2504
7400
7D10
2000
7040
B804
BD04
1D00
1D00
1900
6000
B554
BFF4
ENDCHAR
STARTCHAR icaron
ENCODING 464
SWIDTH 705 0
DWIDTH 8 0
BBX 7 14 0 -1
BITMAP
0400
2504
7400
7D10
2000
7040
B804
BD04
1D00
1D00
1900
6000
B554
BFF4
ENDCHAR
STARTCHAR Ocaron
ENCODING 465
SWIDTH 837 0
DWIDTH 9 0
BBX 9 14 0 -1
BITMAP
010000
0C4000
2C0000
1E4400
090400
300000
70B400
B0B400
B07400
B07400
B01000
B40040
7E5900
1FF400
ENDCHAR
STARTCHAR ocaron
ENCODING 466
SWIDTH 837 0
DWIDTH 9 0
BBX 9 14 0 -1
BITMAP
010000
0C4000
2C0000
1E4400
090400
300000
70B400
B0B400
B07400
B07400
B01000
B40040
7E5900
1FF400
ENDCHAR
STARTCHAR Ucaron
ENCODING 467
SWIDTH 846 0
DWIDTH 9 0
BBX 9 13 0 -1
BITMAP
080100
1C0000
1E4400
20A440
707400
B07400
B07400
B07400
B07400
B01000
B40040
7E5900
1BF400
ENDCHAR
STARTCHAR ucaron
ENCODING 468
SWIDTH 846 0
DWIDTH 9 0
BBX 9 13 0 -1
BITMAP
080100
1C0000
1E4400
20A440
707400
B07400
B07400
B07400
B07400
B01000
B40040
7E5900
1BF400
ENDCHAR
STARTCHAR Udieresismacron
ENCODING 469
SWIDTH 846 0
DWIDTH 9 0
BBX 9 15 0 -1
BITMAP
080000
1D6500
182000
282000
2C2000
29B940
707400
B07400
B07400
B07400
B07400
B01000
B40000
7E5900
1BF400
ENDCHAR
STARTCHAR udieresismacron
ENCODING 470
SWIDTH 846 0
DWIDTH 9 0
BBX 9 15 0 -1
BITMAP
080000
1D6500
182000
282000
2C2000
29B940
707400
B07400
B07400
B07400
B07400
B01000
B40000
7E5900
1BF400
ENDCHAR
STARTCHAR Udieresisacute
ENCODING 471
SWIDTH 846 0
DWIDTH 9 0
BBX 9 16 0 -1
BITMAP
00BC00
02FC00
024800
185800
281000
2C2000
79B940
B07400
B07400
B07400
B07400
B07400
B01000
740000
7E5900
1BF400
ENDCHAR
STARTCHAR udieresisacute
ENCODING 472
SWIDTH 846 0
DWIDTH 9 0
BBX 9 16 0 -1
BITMAP
00BC00
02FC00
024800
185800
281000
2C2000
79B940
B07400
B07400
B07400
B07400
B07400
B01000
740000
7E5900
1BF400
ENDCHAR
STARTCHAR Udieresiscaron
ENCODING 473
SWIDTH 846 0
DWIDTH 9 0
BBX 9 17 0 -1
BITMAP
010000
084000
1D0100
1E6400
082000
282000
2C2000
39B940
B07400
B07400
B07400
B07400
B07400
B01000
B40000
7E5900
1BF400
ENDCHAR
STARTCHAR udieresiscaron
ENCODING 474
SWIDTH 846 0
DWIDTH 9 0
BBX 9 17 0 -1
BITMAP
010000
084000
1D0100
1E6400
082000
282000
2C2000
39B940
B07400
B07400
B07400
B07400
B07400
B01000
B40000
7E5900
1BF400
ENDCHAR
STARTCHAR Udieresisgrave
ENCODING 475
SWIDTH 846 0
DWIDTH 9 0
BBX 9 16 0 -1
BITMAP
02F400
07F400
064000
189400
281000
2C2000
79B940
B07400
B07400
B07400
B07400
B07400
B01000
740000
7E5900
1BF400
ENDCHAR
STARTCHAR udieresisgrave
ENCODING 476
SWIDTH 846 0
DWIDTH 9 0
BBX 9 16 0 -1
BITMAP
02F400
07F400
064000
189400
281000
2C2000
79B940
B07400
B07400
B07400
B07400
B07400
B01000
740000
7E5900
1BF400
ENDCHAR
STARTCHAR Gcaron
ENCODING 486
SWIDTH 808 0
DWIDTH 9 0
BBX 8 14 0 -1
BITMAP
0100
0840
2C00
2E44
1901
1015
70BD
B054
B060
B0B0
B010
B400
7E55
2FFD
ENDCHAR
STARTCHAR gcaron
ENCODING 487
SWIDTH 808 0
DWIDTH 9 0
BBX 8 14 0 -1
BITMAP
0100
0840
2C00
2E44
1901
1015
70BD
B054
B060
B0B0
B010
B400
7E55
2FFD
ENDCHAR
STARTCHAR Scommaaccent
ENCODING 536
SWIDTH 750 0
DWIDTH 8 0
BBX 8 14 0 -5
BITMAP
0154
2001
A068
B000
B400
7F90
2000
B000
BA58
BE00
0A00
0F40
0B00
0B80
ENDCHAR
STARTCHAR scommaaccent
ENCODING 537
SWIDTH 750 0
DWIDTH 8 0
BBX 8 14 0 -5
BITMAP
0154
2001
A068
B000
B400
7F90
2000
B000
BA58
BE00
0A00
0F40
0B00
0B80
ENDCHAR
STARTCHAR uni021A
ENCODING 538
SWIDTH 756 0
DWIDTH 8 0
BBX 8 14 0 -5
BITMAP
1554
E000
FE0E
5E04
0E00
0E00
0E00
0E00
0F50
0E00
0A00
0F40
0A00
0B40
ENDCHAR
STARTCHAR uni021B
ENCODING 539
SWIDTH 756 0
DWIDTH 8 0
BBX 8 14 0 -5
BITMAP
1554
E000
FE0E
5E04
0E00
0E00
0E00
0E00
0F50
0E00
0A00
0F40
0A00
0B40
ENDCHAR
STARTCHAR dotlessj
ENCODING 567
SWIDTH 788 0
DWIDTH 9 0
BBX 7 10 0 -1
BITMAP
0010
00E0
00E0
00E0
60E0
A0E0
A000
B000
7E58
2FE0
ENDCHAR
STARTCHAR ascript
ENCODING 593
SWIDTH 846 0
DWIDTH 9 0
BBX 9 10 0 -1
BITMAP
015400
100000
70B000
B0B400
B07400
B07400
B01000
B40000
7E5540
2FFE00
ENDCHAR
STARTCHAR schwa
ENCODING 601
SWIDTH 815 0
DWIDTH 9 0
BBX 8 10 0 -1
BITMAP
0554
2800
2FF0
2000
7100
B0B0
B000
B400
7E59
2FE4
ENDCHAR
STARTCHAR gscript
ENCODING 609
SWIDTH 815 0
DWIDTH 9 0
BBX 8 11 0 -3
BITMAP
1000
6060
A0B0
B000
B900
7FF0
1800
2800
2805
2FF8
1540
ENDCHAR
STARTCHAR commaturnedmod
ENCODING 699
SWIDTH 600 0
DWIDTH 7 0
BBX 4 6 1 3
BITMAP
05
61
A0
A0
BE
54
ENDCHAR
STARTCHAR apostrophemod
ENCODING 700
SWIDTH 600 0
DWIDTH 7 0
BBX 3 5 1 4
BITMAP
60
A0
B4
B0
B8
ENDCHAR
STARTCHAR ringhalfright
ENCODING 702
SWIDTH 412 0
DWIDTH 5 0
BBX 4 6 0 3
BITMAP
15
A0
F8
65
FD
50
ENDCHAR
STARTCHAR ringhalfleft
ENCODING 703
SWIDTH 412 0
DWIDTH 5 0
BBX 4 6 0 3
BITMAP
15
61
E1
F5
BE
14
ENDCHAR
STARTCHAR circumflex
ENCODING 710
SWIDTH 600 0
DWIDTH 7 0
BBX 6 4 0 7
BITMAP
1000
A140
BFF0
5140
ENDCHAR
STARTCHAR caron
ENCODING 711
SWIDTH 600 0
DWIDTH 7 0
BBX 6 5 0 7
BITMAP
1000
A000
B810
BF80
0500
ENDCHAR
STARTCHAR verticallinemod
ENCODING 712
SWIDTH 456 0
DWIDTH 5 0
BBX 4 7 0 2
BITMAP
10
70
B0
B0
B0
BE
14
ENDCHAR
STARTCHAR firsttonechinese
ENCODING 713
SWIDTH 600 0
DWIDTH 7 0
BBX 6 4 0 7
BITMAP
6000
A000
BFE0
5540
ENDCHAR
STARTCHAR secondtonechinese
ENCODING 714
SWIDTH 600 0
DWIDTH 7 0
BBX 6 3 0 7
BITMAP
2000
A5A0
BA80
ENDCHAR
STARTCHAR fourthtonechinese
ENCODING 715
SWIDTH 600 0
DWIDTH 7 0
BBX 6 4 0 7
BITMAP
1000
A000
BA50
6BD0
ENDCHAR
STARTCHAR verticallinelowmod
ENCODING 716
SWIDTH 456 0
DWIDTH 5 0
BBX 4 7 0 -3
BITMAP
10
70
B0
B0
B0
BE
14
ENDCHAR
STARTCHAR breve
ENCODING 728
SWIDTH 600 0
DWIDTH 7 0
BBX 6 5 0 7
BITMAP
0040
6140
F410
BFD0
1500
ENDCHAR
STARTCHAR dotaccent
ENCODING 729
SWIDTH 600 0
DWIDTH 7 0
BBX 4 4 1 7
BITMAP
60
A0
BE
54
ENDCHAR
STARTCHAR ring
ENCODING 730
SWIDTH 600 0
DWIDTH 7 0
BBX 6 6 0 7
BITMAP
1140
A280
E000
F410
BFD0
1500
ENDCHAR
STARTCHAR ogonek
ENCODING 731
SWIDTH 600 0
DWIDTH 7 0
BBX 5 6 1 -4
BITMAP
0500
2000
A100
B440
BE00
1400
ENDCHAR
STARTCHAR tilde
ENCODING 732
SWIDTH 600 0
DWIDTH 7 0
BBX 6 4 0 7
BITMAP
2000
A500
BFD0
5540
ENDCHAR
STARTCHAR hungarumlaut
ENCODING 733
SWIDTH 600 0
DWIDTH 7 0
BBX 7 5 -1 7
BITMAP
1860
2490
34D0
7FF4
1450
ENDCHAR
STARTCHAR gravecmb
ENCODING 768
SWIDTH 100 0
DWIDTH 1 0
BBX 7 4 -3 7
BITMAP
1000
7000
BA54
6BE0
ENDCHAR
STARTCHAR acutecmb
ENCODING 769
SWIDTH 100 0
DWIDTH 1 0
BBX 6 3 -3 7
BITMAP
2000
B5A0
BE80
ENDCHAR
STARTCHAR circumflexcmb
ENCODING 770
SWIDTH 100 0
DWIDTH 1 0
BBX 7 4 -3 7
BITMAP
1000
7140
BFF4
5050
ENDCHAR
STARTCHAR tildecmb
ENCODING 771
SWIDTH 100 0
DWIDTH 1 0
BBX 6 4 -3 7
BITMAP
2000
7100
BFE0
5540
ENDCHAR
STARTCHAR uni0304
ENCODING 772
SWIDTH 600 0
DWIDTH 7 0
BBX 6 4 0 7
BITMAP
6000
A000
BFE0
5540
ENDCHAR
STARTCHAR brevecmb
ENCODING 774
SWIDTH 100 0
DWIDTH 1 0
BBX 7 4 -3 7
BITMAP
6040
B514
7FD0
1500
ENDCHAR
STARTCHAR dotaccentcmb
ENCODING 775
SWIDTH 100 0
DWIDTH 1 0
BBX 4 4 -2 7
BITMAP
30
B0
BF
54
ENDCHAR
STARTCHAR dieresiscmb
ENCODING 776
SWIDTH 100 0
DWIDTH 1 0
BBX 7 5 -3 7
BITMAP
0040
6080
A080
BFF4
5550
ENDCHAR
STARTCHAR hookcmb
ENCODING 777
SWIDTH 100 0
DWIDTH 1 0
BBX 5 5 -2 7
BITMAP
3000
B900
7940
3F40
1400
ENDCHAR
STARTCHAR ringcmb
ENCODING 778
SWIDTH 100 0
DWIDTH 1 0
BBX 7 6 -3 7
BITMAP
1040
71C0
B040
B514
7FD0
1500
ENDCHAR
STARTCHAR hungarumlautcmb
ENCODING 779
SWIDTH 100 0
DWIDTH 1 0
BBX 7 6 -3 7
BITMAP
0010
1490
34C0
70C0
BFF4
5540
ENDCHAR
STARTCHAR caroncmb
ENCODING 780
SWIDTH 100 0
DWIDTH 1 0
BBX 6 5 -3 7
BITMAP
1000
7000
B910
7FD0
0500
ENDCHAR
STARTCHAR horncmb
ENCODING 795
SWIDTH 100 0
DWIDTH 1 0
BBX 3 5 -2 5
BITMAP
04
20
70
B8
50
ENDCHAR
STARTCHAR dotbelowcmb
ENCODING 803
SWIDTH 100 0
DWIDTH 1 0
BBX 4 4 -2 -5
BITMAP
30
B0
BF
54
ENDCHAR
STARTCHAR dieresisbelowcmb
ENCODING 804
SWIDTH 100 0
DWIDTH 1 0
BBX 7 5 -3 -4
BITMAP
0040
6080
A080
BFF4
5550
ENDCHAR
STARTCHAR commaaccent
ENCODING 806
SWIDTH 600 0
DWIDTH 7 0
BBX 3 5 1 -5
BITMAP
60
A0
B4
B0
B8
ENDCHAR
STARTCHAR cedillacmb
ENCODING 807
SWIDTH 100 0
DWIDTH 1 0
BBX 4 5 -2 -4
BITMAP
14
30
61
BD
50
ENDCHAR
STARTCHAR ogonekcmb
ENCODING 808
SWIDTH 100 0
DWIDTH 1 0
BBX 5 6 -2 -4
BITMAP
0500
2400
3540
7840
7F40
1500
ENDCHAR
STARTCHAR brevebelowcmb
ENCODING 814
SWIDTH 100 0
DWIDTH 1 0
BBX 7 4 -3 -5
BITMAP
6040
B514
7FD0
1500
ENDCHAR
STARTCHAR macronbelowcmb
ENCODING 817
SWIDTH 100 0
DWIDTH 1 0
BBX 6 4 -3 -5
BITMAP
2000
B000
BFE0
5540
ENDCHAR
STARTCHAR uni0394
ENCODING 916
SWIDTH 830 0
DWIDTH 9 0
BBX 9 10 0 -2
BITMAP
050000
1C0000
281000
346000
30B000
70B000
B10000
B00000
BFFF40
155400
ENDCHAR
STARTCHAR uni03A9
ENCODING 937
SWIDTH 877 0
DWIDTH 10 0
BBX 9 9 0 -2
BITMAP
140000
707400
707400
707400
743400
602100
A02000
FFFF80
551500
ENDCHAR
STARTCHAR uni03BC
ENCODING 956
SWIDTH 813 0
DWIDTH 9 0
BBX 7 9 0 -2
BITMAP
2020
B0B0
B0B0
B0B0
B150
B100
B004
BAA4
7D00
ENDCHAR
STARTCHAR pi
ENCODING 960
SWIDTH 821 0
DWIDTH 9 0
BBX 8 8 0 -2
BITMAP
2000
B010
B0B0
B0B0
B0B0
B0B0
BEBE
1414
ENDCHAR
STARTCHAR Ddotbelow
ENCODING 7692
SWIDTH 846 0
DWIDTH 9 0
BBX 9 14 0 -5
BITMAP
100000
700000
B05000
B07400
B07400
B07400
B06000
B00040
BA9A00
7F0400
070000
074000
07E000
014000
ENDCHAR
STARTCHAR ddotbelow
ENCODING 7693
SWIDTH 846 0
DWIDTH 9 0
BBX 9 14 0 -5
BITMAP
100000
700000
B05000
B07400
B07400
B07400
B06000
B00040
BA9A00
7F0400
070000
074000
07E000
014000
ENDCHAR
STARTCHAR Dlinebelow
ENCODING 7694
SWIDTH 846 0
DWIDTH 9 0
BBX 8 13 0 -4
BITMAP
1000
7000
B050
B074
B074
B074
B060
B000
BEA9
7C00
1C55
2FF8
0550
ENDCHAR
STARTCHAR dlinebelow
ENCODING 7695
SWIDTH 846 0
DWIDTH 9 0
BBX 8 13 0 -4
BITMAP
1000
7000
B050
B074
B074
B074
B060
B000
BEA9
7C00
1C55
2FF8
0550
ENDCHAR
STARTCHAR Gmacron
ENCODING 7712
SWIDTH 808 0
DWIDTH 9 0
BBX 8 13 0 -1
BITMAP
0100
0800
1D00
1E95
1415
70BD
B054
B060
B0B0
B010
B400
7E55
2FFD
ENDCHAR
STARTCHAR gmacron
ENCODING 7713
SWIDTH 808 0
DWIDTH 9 0
BBX 8 13 0 -1
BITMAP
0100
0800
1D00
1E95
1415
70BD
B054
B060
B0B0
B010
B400
7E55
2FFD
ENDCHAR
STARTCHAR Hdotbelow
ENCODING 7716
SWIDTH 859 0
DWIDTH 9 0
BBX 9 14 0 -5
BITMAP
141440
707400
B06400
B00000
B10100
B00000
B07400
B07400
B5A540
7F4600
074000
074000
07E000
014000
ENDCHAR
STARTCHAR hdotbelow
ENCODING 7717
SWIDTH 859 0
DWIDTH 9 0
BBX 9 14 0 -5
BITMAP
141440
707400
B06400
B00000
B10100
B00000
B07400
B07400
B5A540
7F4600
074000
074000
07E000
014000
ENDCHAR
STARTCHAR Hbrevebelow
ENCODING 7722
SWIDTH 859 0
DWIDTH 9 0
BBX 9 13 0 -4
BITMAP
101440
707400
B06400
B00000
B15500
B07400
B07400
B07400
BE7A80
7C3000
1D0100
1FA900
0BE000
ENDCHAR
STARTCHAR hbrevebelow
ENCODING 7723
SWIDTH 859 0
DWIDTH 9 0
BBX 9 13 0 -4
BITMAP
101440
707400
B06400
B00000
B15500
B07400
B07400
B07400
BE7A80
7C3000
1D0100
1FA900
0BE000
ENDCHAR
STARTCHAR Ldotbelow
ENCODING 7734
SWIDTH 795 0
DWIDTH 9 0
BBX 9 14 0 -5
BITMAP
100000
700000
B00000
B00000
B02000
B07000
B01000
B00000
BA9A40
7F0500
070000
0B4000
0BE000
014000
ENDCHAR
STARTCHAR ldotbelow
ENCODING 7735
SWIDTH 795 0
DWIDTH 9 0
BBX 9 14 0 -5
BITMAP
100000
700000
B00000
B00000
B02000
B07000
B01000
B00000
BA9A40
7F0500
070000
0B4000
0BE000
014000
ENDCHAR
STARTCHAR Ldotbelowmacron
ENCODING 7736
SWIDTH 795 0
DWIDTH 9 0
BBX 9 16 0 -5
BITMAP
180000
2C0000
29B800
705000
B00000
B00000
B02000
B07000
B01000
B00000
BA9A40
7F0500
070000
0B4000
0BE000
014000
ENDCHAR
STARTCHAR ldotbelowmacron
ENCODING 7737
SWIDTH 795 0
DWIDTH 9 0
BBX 9 16 0 -5
BITMAP
180000
2C0000
29B800
705000
B00000
B00000
B02000
B07000
B01000
B00000
BA9A40
7F0500
070000
0B4000
0BE000
014000
ENDCHAR
STARTCHAR Llinebelow
ENCODING 7738
SWIDTH 795 0
DWIDTH 9 0
BBX 8 13 0 -4
BITMAP
1000
7000
B000
B000
B020
B070
B010
B000
B956
7800
2C00
2FF8
1550
ENDCHAR
STARTCHAR llinebelow
ENCODING 7739
SWIDTH 795 0
DWIDTH 9 0
BBX 8 13 0 -4
BITMAP
1000
7000
B000
B000
B020
B070
B010
B000
B956
7800
2C00
2FF8
1550
ENDCHAR
STARTCHAR Mdotbelow
ENCODING 7746
SWIDTH 949 0
DWIDTH 10 0
BBX 10 14 0 -5
BITMAP
140410
701800
B01000
B00000
B04100
B0AD00
B06D00
B01D00
B55A50
7E8280
028000
038000
03F400
015000
ENDCHAR
STARTCHAR mdotbelow
ENCODING 7747
SWIDTH 949 0
DWIDTH 10 0
BBX 10 14 0 -5
BITMAP
140410
701800
B01000
B00000
B04100
B0AD00
B06D00
B01D00
B55A50
7E8280
028000
038000
03F400
015000
ENDCHAR
STARTCHAR Ndotaccent
ENCODING 7748
SWIDTH 853 0
DWIDTH 9 0
BBX 9 14 0 -1
BITMAP
004000
020000
070000
074000
14B440
713400
B00400
B00000
B04000
B09100
B0B400
B0B400
B57940
7D3E00
ENDCHAR
STARTCHAR ndotaccent
ENCODING 7749
SWIDTH 853 0
DWIDTH 9 0
BBX 9 14 0 -1
BITMAP
004000
020000
070000
074000
14B440
713400
B00400
B00000
B04000
B09100
B0B400
B0B400
B57940
7D3E00
ENDCHAR
STARTCHAR Ndotbelow
ENCODING 7750
SWIDTH 853 0
DWIDTH 9 0
BBX 9 14 0 -5
BITMAP
145440
712400
B00400
B00000
B04000
B09100
B0B400
B0B400
B56540
7F0600
070000
074000
07E000
014000
ENDCHAR
STARTCHAR ndotbelow
ENCODING 7751
SWIDTH 853 0
DWIDTH 9 0
BBX 9 14 0 -5
BITMAP
145440
712400
B00400
B00000
B04000
B09100
B0B400
B0B400
B56540
7F0600
070000
074000
07E000
014000
ENDCHAR
STARTCHAR Nlinebelow
ENCODING 7752
SWIDTH 853 0
DWIDTH 9 0
BBX 9 13 0 -4
BITMAP
105440
712400
B00400
B00000
B04000
B09100
B0B400
B07400
BE6A40
7C0000
1D0100
1FFC00
055000
ENDCHAR
STARTCHAR nlinebelow
ENCODING 7753
SWIDTH 853 0
DWIDTH 9 0
BBX 9 13 0 -4
BITMAP
105440
712400
B00400
B00000
B04000
B09100
B0B400
B07400
BE6A40
7C0000
1D0100
1FFC00
055000
ENDCHAR
STARTCHAR Rdotbelow
ENCODING 7770
SWIDTH 843 0
DWIDTH 9 0
BBX 9 14 0 -5
BITMAP
140000
700000
B06000
B05000
B10400
B00000
B07400
B07400
B56540
7F4600
074000
074000
07F000
014000
ENDCHAR
STARTCHAR rdotbelow
ENCODING 7771
SWIDTH 843 0
DWIDTH 9 0
BBX 9 14 0 -5
BITMAP
140000
700000
B06000
B05000
B10400
B00000
B07400
B07400
B56540
7F4600
074000
074000
07F000
014000
ENDCHAR
STARTCHAR Rdotbelowmacron
ENCODING 7772
SWIDTH 843 0
DWIDTH 9 0
BBX 9 16 0 -5
BITMAP
180000
380000
395400
700000
706000
B05000
B10400
B00000
B07400
B07400
B56540
7F4600
074000
074000
07F000
014000
ENDCHAR
STARTCHAR rdotbelowmacron
ENCODING 7773
SWIDTH 843 0
DWIDTH 9 0
BBX 9 16 0 -5
BITMAP
180000
380000
395400
700000
706000
B05000
B10400
B00000
B07400
B07400
B56540
7F4600
074000
074000
07F000
014000
ENDCHAR
STARTCHAR Rlinebelow
ENCODING 7774
SWIDTH 843 0
DWIDTH 9 0
BBX 9 13 0 -4
BITMAP
115400
700000
B06000
B05000
B10400
B05400
B07400
B07400
BE6A80
7C0100
1D0100
1FF800
055000
ENDCHAR
STARTCHAR rlinebelow
ENCODING 7775
SWIDTH 843 0
DWIDTH 9 0
BBX 9 13 0 -4
BITMAP
115400
700000
B06000
B05000
B10400
B05400
B07400
B07400
BE6A80
7C0100
1D0100
1FF800
055000
ENDCHAR
STARTCHAR Sdotaccent
ENCODING 7776
SWIDTH 750 0
DWIDTH 8 0
BBX 8 14 0 -1
BITMAP
0100
0600
0E00
0E00
1900
7000
A07D
B001
B400
7F90
2000
6000
B554
BFE0
ENDCHAR
STARTCHAR sdotaccent
ENCODING 7777
SWIDTH 750 0
DWIDTH 8 0
BBX 8 14 0 -1
BITMAP
0100
0600
0E00
0E00
1900
7000
A07D
B001
B400
7F90
2000
6000
B554
BFE0
ENDCHAR
STARTCHAR Sdotbelow
ENCODING 7778
SWIDTH 750 0
DWIDTH 8 0
BBX 8 14 0 -5
BITMAP
0400
2000
607D
B000
B400
BF90
2000
6001
BA59
BE00
0A00
0E00
0FD0
0540
ENDCHAR
STARTCHAR sdotbelow
ENCODING 7779
SWIDTH 750 0
DWIDTH 8 0
BBX 8 14 0 -5
BITMAP
0400
2000
607D
B000
B400
BF90
2000
6001
BA59
BE00
0A00
0E00
0FD0
0540
ENDCHAR
STARTCHAR Tdotbelow
ENCODING 7788
SWIDTH 756 0
DWIDTH 8 0
BBX 8 14 0 -5
BITMAP
1000
E544
FE0E
5E04
0E00
0E00
0E00
0E00
0F50
0E00
0A00
0E00
0FD0
0540
ENDCHAR
STARTCHAR tdotbelow
ENCODING 7789
SWIDTH 756 0
DWIDTH 8 0
BBX 8 14 0 -5
BITMAP
1000
E544
FE0E
5E04
0E00
0E00
0E00
0E00
0F50
0E00
0A00
0E00
0FD0
0540
ENDCHAR
STARTCHAR Tlinebelow
ENCODING 7790
SWIDTH 756 0
DWIDTH 8 0
BBX 8 13 0 -4
BITMAP
1554
E000
FE0E
5E04
0E00
0E00
0E00
0E00
0A50
1800
3800
3FF4
1550
ENDCHAR
STARTCHAR tlinebelow
ENCODING 7791
SWIDTH 756 0
DWIDTH 8 0
BBX 8 13 0 -4
BITMAP
1554
E000
FE0E
5E04
0E00
0E00
0E00
0E00
0A50
1800
3800
3FF4
1550
ENDCHAR
STARTCHAR Wgrave
ENCODING 7808
SWIDTH 931 0
DWIDTH 10 0
BBX 10 13 0 -1
BITMAP
029500
0AAF00
0D0000
105510
700D00
B01900
B04100
B00000
B00000
B01000
742400
7D7940
2F3E00
ENDCHAR
STARTCHAR wgrave
ENCODING 7809
SWIDTH 931 0
DWIDTH 10 0
BBX 10 13 0 -1
BITMAP
029500
0AAF00
0D0000
105510
700D00
B01900
B04100
B00000
B00000
B01000
742400
7D7940
2F3E00
ENDCHAR
STARTCHAR Wacute
ENCODING 7810
SWIDTH 931 0
DWIDTH 10 0
BBX 10 13 0 -1
BITMAP
005600
02FA40
0E0100
100410
700D00
B01900
B04100
B00000
B00000
B01000
742400
7D7940
2F3E00
ENDCHAR
STARTCHAR wacute
ENCODING 7811
SWIDTH 931 0
DWIDTH 10 0
BBX 10 13 0 -1
BITMAP
005600
02FA40
0E0100
100410
700D00
B01900
B04100
B00000
B00000
B01000
742400
7D7940
2F3E00
ENDCHAR
STARTCHAR Wdieresis
ENCODING 7812
SWIDTH 931 0
DWIDTH 10 0
BBX 10 13 0 -1
BITMAP
011000
091000
1D2000
19BE50
701D00
B01900
B04100
B00000
B00000
B01000
742400
7D7940
2F3E00
ENDCHAR
STARTCHAR wdieresis
ENCODING 7813
SWIDTH 931 0
DWIDTH 10 0
BBX 10 13 0 -1
BITMAP
011000
091000
1D2000
19BE50
701D00
B01900
B04100
B00000
B00000
B01000
742400
7D7940
2F3E00
ENDCHAR
STARTCHAR Ydotaccent
ENCODING 7822
SWIDTH 805 0
DWIDTH 9 0
BBX 7 13 0 -1
BITMAP
0200
0B00
0B00
10B4
A0B0
A0B0
B060
B400
7C10
2E00
0F00
0B50
0BD0
ENDCHAR
STARTCHAR ydotaccent
ENCODING 7823
SWIDTH 805 0
DWIDTH 9 0
BBX 7 13 0 -1
BITMAP
0200
0B00
0B00
10B4
A0B0
A0B0
B060
B400
7C10
2E00
0F00
0B50
0BD0
ENDCHAR
STARTCHAR Zdotbelow
ENCODING 7826
SWIDTH 760 0
DWIDTH 8 0
BBX 8 14 0 -5
BITMAP
1001
7140
BF40
1500
0800
1000
6010
A000
BA5A
BE08
0A00
0A00
0BD0
0540
ENDCHAR
STARTCHAR zdotbelow
ENCODING 7827
SWIDTH 760 0
DWIDTH 8 0
BBX 8 14 0 -5
BITMAP
1001
7140
BF40
1500
0800
1000
6010
A000
BA5A
BE08
0A00
0A00
0BD0
0540
ENDCHAR
STARTCHAR tdieresis
ENCODING 7831
SWIDTH 756 0
DWIDTH 8 0
BBX 8 13 0 -1
BITMAP
0450
2450
7450
6000
E544
FE0E
5E04
0E00
0E00
0E00
0E00
0E50
0FD0
ENDCHAR
STARTCHAR Germandbls
ENCODING 7838
SWIDTH 859 0
DWIDTH 9 0
BBX 9 10 0 -1
BITMAP
140000
700000
B05000
B05000
B05000
B07800
B05000
B05000
B5A540
7EFD00
ENDCHAR
STARTCHAR Adotbelow
ENCODING 7840
SWIDTH 830 0
DWIDTH 9 0
BBX 9 14 0 -5
BITMAP
010000
080000
186000
347000
700000
B10000
B00000
B0B400
B5A540
BF0600
070000
0B4000
07E000
014000
ENDCHAR
STARTCHAR adotbelow
ENCODING 7841
SWIDTH 830 0
DWIDTH 9 0
BBX 9 14 0 -5
BITMAP
010000
080000
186000
347000
700000
B10000
B00000
B0B400
B5A540
BF0600
070000
0B4000
07E000
014000
ENDCHAR
STARTCHAR Ahookabove
ENCODING 7842
SWIDTH 830 0
DWIDTH 9 0
BBX 9 13 0 -1
BITMAP
079000
0B5400
07F800
050000
080000
186000
347000
700000
B10000
B00000
B0B400
B5B940
BD7E00
ENDCHAR
STARTCHAR ahookabove
ENCODING 7843
SWIDTH 830 0
DWIDTH 9 0
BBX 9 13 0 -1
BITMAP
079000
0B5400
07F800
050000
080000
186000
347000
700000
B10000
B00000
B0B400
B5B940
BD7E00
ENDCHAR
STARTCHAR Acircumflexacute
ENCODING 7844
SWIDTH 830 0
DWIDTH 9 0
BBX 9 16 0 -1
BITMAP
000600
007F00
00A100
014500
080000
2EB900
2D0000
180000
146000
307000
700000
B10000
B00000
B0B400
B5B940
BD7E00
ENDCHAR
STARTCHAR acircumflexacute
ENCODING 7845
SWIDTH 830 0
DWIDTH 9 0
BBX 9 16 0 -1
BITMAP
000600
007F00
00A100
014500
080000
2EB900
2D0000
180000
146000
307000
700000
B10000
B00000
B0B400
B5B940
BD7E00
ENDCHAR
STARTCHAR Acircumflexgrave
ENCODING 7846
SWIDTH 830 0
DWIDTH 9 0
BBX 9 16 0 -1
BITMAP
001400
007F00
00E500
015900
080000
2EB900
2D0000
180000
146000
307000
700000
B10000
B00000
B0B400
B5B940
BD7E00
ENDCHAR
STARTCHAR acircumflexgrave
ENCODING 7847
SWIDTH 830 0
DWIDTH 9 0
BBX 9 16 0 -1
BITMAP
001400
007F00
00E500
015900
080000
2EB900
2D0000
180000
146000
307000
700000
B10000
B00000
B0B400
B5B940
BD7E00
ENDCHAR
STARTCHAR Acircumflexhookabove
ENCODING 7848
SWIDTH 830 0
DWIDTH 9 0
BBX 9 17 0 -1
BITMAP
001000
006040
00B900
006500
000500
080000
2EB900
2D0000
180000
146000
307000
700000
B10000
B00000
B0B400
B5B940
BD7E00
ENDCHAR
STARTCHAR acircumflexhookabove
ENCODING 7849
SWIDTH 830 0
DWIDTH 9 0
BBX 9 17 0 -1
BITMAP
001000
006040
00B900
006500
000500
080000
2EB900
2D0000
180000
146000
307000
700000
B10000
B00000
B0B400
B5B940
BD7E00
ENDCHAR
STARTCHAR Acircumflextilde
ENCODING 7850
SWIDTH 830 0
DWIDTH 9 0
BBX 9 15 0 -1
BITMAP
080000
2E9800
194500
1C0000
2EB900
2D0000
180000
146000
307000
700000
B10000
B00000
B0B400
B5B940
BD7E00
ENDCHAR
STARTCHAR acircumflextilde
ENCODING 7851
SWIDTH 830 0
DWIDTH 9 0
BBX 9 15 0 -1
BITMAP
080000
2E9800
194500
1C0000
2EB900
2D0000
180000
146000
307000
700000
B10000
B00000
B0B400
B5B940
BD7E00
ENDCHAR
STARTCHAR Acircumflexdotbelow
ENCODING 7852
SWIDTH 830 0
DWIDTH 9 0
BBX 9 16 0 -5
BITMAP
0C0000
2EB900
2D0000
180000
146000
307000
700000
B10000
B00000
B0B400
B5A540
BF0600
070000
0B4000
07E000
014000
ENDCHAR
STARTCHAR acircumflexdotbelow
ENCODING 7853
SWIDTH 830 0
DWIDTH 9 0
BBX 9 16 0 -5
BITMAP
0C0000
2EB900
2D0000
180000
146000
307000
700000
B10000
B00000
B0B400
B5A540
BF0600
070000
0B4000
07E000
014000
ENDCHAR
STARTCHAR Abreveacute
ENCODING 7854
SWIDTH 830 0
DWIDTH 9 0
BBX 9 16 0 -1
BITMAP
006C00
01FC00
018800
081800
2C0000
2E0000
1E5500
080100
186000
347040
700000
B10000
B00000
B0B400
B5B940
BD7E00
ENDCHAR
STARTCHAR abreveacute
ENCODING 7855
SWIDTH 830 0
DWIDTH 9 0
BBX 9 16 0 -1
BITMAP
006C00
01FC00
018800
081800
2C0000
2E0000
1E5500
080100
186000
347040
700000
B10000
B00000
B0B400
B5B940
BD7E00
ENDCHAR
STARTCHAR Abrevegrave
ENCODING 7856
SWIDTH 830 0
DWIDTH 9 0
BBX 9 16 0 -1
BITMAP
02E000
0FF000
0D4000
0C9000
2C0000
2E0000
1E5500
080100
186000
347040
700000
B10000
B00000
B0B400
B5B940
BD7E00
ENDCHAR
STARTCHAR abrevegrave
ENCODING 7857
SWIDTH 830 0
DWIDTH 9 0
BBX 9 16 0 -1
BITMAP
02E000
0FF000
0D4000
0C9000
2C0000
2E0000
1E5500
080100
186000
347040
700000
B10000
B00000
B0B400
B5B940
BD7E00
ENDCHAR
STARTCHAR Abrevehookabove
ENCODING 7858
SWIDTH 830 0
DWIDTH 9 0
BBX 9 16 0 -1
BITMAP
079000
078500
02B400
081000
2C0000
2E0000
1E5500
080100
186000
347040
700000
B10000
B00000
B0B400
B5B940
BD7E00
ENDCHAR
STARTCHAR abrevehookabove
ENCODING 7859
SWIDTH 830 0
DWIDTH 9 0
BBX 9 16 0 -1
BITMAP
079000
078500
02B400
081000
2C0000
2E0000
1E5500
080100
186000
347040
700000
B10000
B00000
B0B400
B5B940
BD7E00
ENDCHAR
STARTCHAR Abrevetilde
ENCODING 7860
SWIDTH 830 0
DWIDTH 9 0
BBX 9 16 0 -1
BITMAP
000400
080000
2EB500
1C6000
2C0000
2E0000
1E5500
080100
186000
347040
700000
B10000
B00000
B0B400
B5B940
BD7E00
ENDCHAR
STARTCHAR abrevetilde
ENCODING 7861
SWIDTH 830 0
DWIDTH 9 0
BBX 9 16 0 -1
BITMAP
000400
080000
2EB500
1C6000
2C0000
2E0000
1E5500
080100
186000
347040
700000
B10000
B00000
B0B400
B5B940
BD7E00
ENDCHAR
STARTCHAR Abrevedotbelow
ENCODING 7862
SWIDTH 830 0
DWIDTH 9 0
BBX 9 17 0 -5
BITMAP
081000
2C0000
2E0000
1E5500
080100
186000
347040
700000
B10000
B00000
B0B400
B5A540
BF0600
070000
0B4000
07E000
014000
ENDCHAR
STARTCHAR abrevedotbelow
ENCODING 7863
SWIDTH 830 0
DWIDTH 9 0
BBX 9 17 0 -5
BITMAP
081000
2C0000
2E0000
1E5500
080100
186000
347040
700000
B10000
B00000
B0B400
B5A540
BF0600
070000
0B4000
07E000
014000
ENDCHAR
STARTCHAR Edotbelow
ENCODING 7864
SWIDTH 754 0
DWIDTH 8 0
BBX 8 14 0 -5
BITMAP
1001
7000
B07D
B000
B100
B064
B064
B000
BA5A
7E08
0A00
0A00
0BD0
0540
ENDCHAR
STARTCHAR edotbelow
ENCODING 7865
SWIDTH 754 0
DWIDTH 8 0
BBX 8 14 0 -5
BITMAP
1001
7000
B07D
B000
B100
B064
B064
B000
BA5A
7E08
0A00
0A00
0BD0
0540
ENDCHAR
STARTCHAR Ehookabove
ENCODING 7866
SWIDTH 754 0
DWIDTH 8 0
BBX 8 13 0 -1
BITMAP
0A50
0F14
0BF4
1401
7000
B07D
B000
B100
B064
B064
B000
B555
7FF8
ENDCHAR
STARTCHAR ehookabove
ENCODING 7867
SWIDTH 754 0
DWIDTH 8 0
BBX 8 13 0 -1
BITMAP
0A50
0F14
0BF4
1401
7000
B07D
B000
B100
B064
B064
B000
B555
7FF8
ENDCHAR
STARTCHAR Etilde
ENCODING 7868
SWIDTH 754 0
DWIDTH 8 0
BBX 8 12 0 -1
BITMAP
1800
2940
3401
7000
B07D
B000
B100
B064
B064
B000
B555
7FF8
ENDCHAR
STARTCHAR etilde
ENCODING 7869
SWIDTH 754 0
DWIDTH 8 0
BBX 8 12 0 -1
BITMAP
1800
2940
3401
7000
B07D
B000
B100
B064
B064
B000
B555
7FF8
ENDCHAR
STARTCHAR Ecircumflexacute
ENCODING 7870
SWIDTH 754 0
DWIDTH 8 0
BBX 8 16 0 -1
BITMAP
0016
007E
00E1
0155
1800
39A4
3401
7000
B07D
B000
B100
B064
B064
B000
B555
7FF8
ENDCHAR
STARTCHAR ecircumflexacute
ENCODING 7871
SWIDTH 754 0
DWIDTH 8 0
BBX 8 16 0 -1
BITMAP
0016
007E
00E1
0155
1800
39A4
3401
7000
B07D
B000
B100
B064
B064
B000
B555
7FF8
ENDCHAR
STARTCHAR Ecircumflexgrave
ENCODING 7872
SWIDTH 754 0
DWIDTH 8 0
BBX 8 16 0 -1
BITMAP
0014
00BE
01D5
0555
1800
39A4
3401
7000
B07D
B000
B100
B064
B064
B000
B555
7FF8
ENDCHAR
STARTCHAR ecircumflexgrave
ENCODING 7873
SWIDTH 754 0
DWIDTH 8 0
BBX 8 16 0 -1
BITMAP
0014
00BE
01D5
0555
1800
39A4
3401
7000
B07D
B000
B100
B064
B064
B000
B555
7FF8
ENDCHAR
STARTCHAR Ecircumflexhookabove
ENCODING 7874
SWIDTH 754 0
DWIDTH 8 0
BBX 8 17 0 -1
BITMAP
0010
0090
00F5
0065
0415
1800
39A4
3401
7000
B07D
B000
B100
B064
B064
B000
B555
7FF8
ENDCHAR
STARTCHAR ecircumflexhookabove
ENCODING 7875
SWIDTH 754 0
DWIDTH 8 0
BBX 8 17 0 -1
BITMAP
0010
0090
00F5
0065
0415
1800
39A4
3401
7000
B07D
B000
B100
B064
B064
B000
B555
7FF8
ENDCHAR
STARTCHAR Ecircumflextilde
ENCODING 7876
SWIDTH 754 0
DWIDTH 8 0
BBX 8 15 0 -1
BITMAP
1800
3E94
1914
2800
39A4
3401
7000
B07D
B000
B100
B064
B064
B000
B555
7FF8
ENDCHAR
STARTCHAR ecircumflextilde
ENCODING 7877
SWIDTH 754 0
DWIDTH 8 0
BBX 8 15 0 -1
BITMAP
1800
3E94
1914
2800
39A4
3401
7000
B07D
B000
B100
B064
B064
B000
B555
7FF8
ENDCHAR
STARTCHAR Ecircumflexdotbelow
ENCODING 7878
SWIDTH 754 0
DWIDTH 8 0
BBX 8 17 0 -5
BITMAP
0510
2800
39A4
3401
7000
B07D
B000
B100
B064
B064
B000
BA5A
7E08
0A00
0E00
0FD0
0540
ENDCHAR
STARTCHAR ecircumflexdotbelow
ENCODING 7879
SWIDTH 754 0
DWIDTH 8 0
BBX 8 17 0 -5
BITMAP
0510
2800
39A4
3401
7000
B07D
B000
B100
B064
B064
B000
BA5A
7E08
0A00
0E00
0FD0
0540
ENDCHAR
STARTCHAR Ihookabove
ENCODING 7880
SWIDTH 705 0
DWIDTH 8 0
BBX 7 13 0 -1
BITMAP
1E40
2D14
0FE0
2000
B040
B804
BD04
1D00
1D00
1900
6000
B554
BFF4
ENDCHAR
STARTCHAR ihookabove
ENCODING 7881
SWIDTH 705 0
DWIDTH 8 0
BBX 7 13 0 -1
BITMAP
1E40
2D14
0FE0
2000
B040
B804
BD04
1D00
1D00
1900
6000
B554
BFF4
ENDCHAR
STARTCHAR Idotbelow
ENCODING 7882
SWIDTH 705 0
DWIDTH 8 0
BBX 8 14 0 -5
BITMAP
1000
7040
B804
BD04
1D00
1D00
1900
6000
BA69
BD04
0D00
1D10
1FD0
0500
ENDCHAR
STARTCHAR idotbelow
ENCODING 7883
SWIDTH 705 0
DWIDTH 8 0
BBX 8 14 0 -5
BITMAP
1000
7040
B804
BD04
1D00
1D00
1900
6000
BA69
BD04
0D00
1D10
1FD0
0500
ENDCHAR
STARTCHAR Odotbelow
ENCODING 7884
SWIDTH 837 0
DWIDTH 9 0
BBX 8 13 0 -5
BITMAP
1000
7010
B0B4
B074
B074
B074
B000
B800
3F59
0B00
0744
07E0
0140
ENDCHAR
STARTCHAR odotbelow
ENCODING 7885
SWIDTH 837 0
DWIDTH 9 0
BBX 8 13 0 -5
BITMAP
1000
7010
B0B4
B074
B074
B074
B000
B800
3F59
0B00
0744
07E0
0140
ENDCHAR
STARTCHAR Ohookabove
ENCODING 7886
SWIDTH 837 0
DWIDTH 9 0
BBX 8 14 0 -1
BITMAP
0100
0B90
0754
0500
1000
7000
B0B4
B0B4
B074
B074
B010
B400
7E59
1FE4
ENDCHAR
STARTCHAR ohookabove
ENCODING 7887
SWIDTH 837 0
DWIDTH 9 0
BBX 8 14 0 -1
BITMAP
0100
0B90
0754
0500
1000
7000
B0B4
B0B4
B074
B074
B010
B400
7E59
1FE4
ENDCHAR
STARTCHAR Ocircumflexacute
ENCODING 7888
SWIDTH 837 0
DWIDTH 9 0
BBX 8 16 0 -1
BITMAP
001B
007F
0092
0509
1C00
2DA9
1901
3000
B0B4
B0B4
B074
B074
B010
B400
7E59
1FF4
ENDCHAR
STARTCHAR ocircumflexacute
ENCODING 7889
SWIDTH 837 0
DWIDTH 9 0
BBX 8 16 0 -1
BITMAP
001B
007F
0092
0509
1C00
2DA9
1901
3000
B0B4
B0B4
B074
B074
B010
B400
7E59
1FF4
ENDCHAR
STARTCHAR Ocircumflexgrave
ENCODING 7890
SWIDTH 837 0
DWIDTH 9 0
BBX 8 16 0 -1
BITMAP
0029
00BF
0091
051E
1C00
2DA9
1901
3000
B0B4
B0B4
B074
B074
B010
B400
7E59
1FF4
ENDCHAR
STARTCHAR ocircumflexgrave
ENCODING 7891
SWIDTH 837 0
DWIDTH 9 0
BBX 8 16 0 -1
BITMAP
0029
00BF
0091
051E
1C00
2DA9
1901
3000
B0B4
B0B4
B074
B074
B010
B400
7E59
1FF4
ENDCHAR
STARTCHAR Ocircumflexhookabove
ENCODING 7892
SWIDTH 837 0
DWIDTH 9 0
BBX 8 17 0 -1
BITMAP
0010
0060
00B9
0065
0545
1C00
2DA9
1901
3000
B0B4
B0B4
B074
B074
B010
B400
7E59
1FF4
ENDCHAR
STARTCHAR ocircumflexhookabove
ENCODING 7893
SWIDTH 837 0
DWIDTH 9 0
BBX 8 17 0 -1
BITMAP
0010
0060
00B9
0065
0545
1C00
2DA9
1901
3000
B0B4
B0B4
B074
B074
B010
B400
7E59
1FF4
ENDCHAR
STARTCHAR Ocircumflextilde
ENCODING 7894
SWIDTH 837 0
DWIDTH 9 0
BBX 8 16 0 -1
BITMAP
0800
1C41
2F98
1901
1C00
2DA9
1901
3000
B0B4
B0B4
B074
B074
B010
B400
7E59
1FF4
ENDCHAR
STARTCHAR ocircumflextilde
ENCODING 7895
SWIDTH 837 0
DWIDTH 9 0
BBX 8 16 0 -1
BITMAP
0800
1C41
2F98
1901
1C00
2DA9
1901
3000
B0B4
B0B4
B074
B074
B010
B400
7E59
1FF4
ENDCHAR
STARTCHAR Ocircumflexdotbelow
ENCODING 7896
SWIDTH 837 0
DWIDTH 9 0
BBX 8 16 0 -5
BITMAP
0400
1DA9
2800
1000
7010
B0B4
B074
B074
B074
B000
B800
7F59
0700
0744
07E0
0140
ENDCHAR
STARTCHAR ocircumflexdotbelow
ENCODING 7897
SWIDTH 837 0
DWIDTH 9 0
BBX 8 16 0 -5
BITMAP
0400
1DA9
2800
1000
7010
B0B4
B074
B074
B074
B000
B800
7F59
0700
0744
07E0
0140
ENDCHAR
STARTCHAR Ohornacute
ENCODING 7898
SWIDTH 847 0
DWIDTH 9 0
BBX 8 13 0 -1
BITMAP
0168
0BA5
3801
2551
3001
B0B4
B0B4
B074
B074
B010
B400
7E59
2FE4
ENDCHAR
STARTCHAR ohornacute
ENCODING 7899
SWIDTH 847 0
DWIDTH 9 0
BBX 8 13 0 -1
BITMAP
0168
0BA5
3801
2551
3001
B0B4
B0B4
B074
B074
B010
B400
7E59
2FE4
ENDCHAR
STARTCHAR Ohorngrave
ENCODING 7900
SWIDTH 847 0
DWIDTH 9 0
BBX 8 14 0 -1
BITMAP
0100
1FF8
39A9
3401
1854
3001
70B4
B0B4
B074
B074
B010
B400
7E59
2FE4
ENDCHAR
STARTCHAR ohorngrave
ENCODING 7901
SWIDTH 847 0
DWIDTH 9 0
BBX 8 14 0 -1
BITMAP
0100
1FF8
39A9
3401
1854
3001
70B4
B0B4
B074
B074
B010
B400
7E59
2FE4
ENDCHAR
STARTCHAR Ohornhookabove
ENCODING 7902
SWIDTH 847 0
DWIDTH 9 0
BBX 8 14 0 -1
BITMAP
0100
0B90
0799
0119
0005
2001
70B4
B0B4
B074
B074
B010
B400
7E59
2FE4
ENDCHAR
STARTCHAR ohornhookabove
ENCODING 7903
SWIDTH 847 0
DWIDTH 9 0
BBX 8 14 0 -1
BITMAP
0100
0B90
0799
0119
0005
2001
70B4
B0B4
B074
B074
B010
B400
7E59
2FE4
ENDCHAR
STARTCHAR Ohorntilde
ENCODING 7904
SWIDTH 847 0
DWIDTH 9 0
BBX 8 14 0 -1
BITMAP
0100
0800
2801
3941
1905
3001
B0B4
B0B4
B074
B074
B010
B400
7E59
2FE4
ENDCHAR
STARTCHAR ohorntilde
ENCODING 7905
SWIDTH 847 0
DWIDTH 9 0
BBX 8 14 0 -1
BITMAP
0100
0800
2801
3941
1905
3001
B0B4
B0B4
B074
B074
B010
B400
7E59
2FE4
ENDCHAR
STARTCHAR Ohorndotbelow
ENCODING 7906
SWIDTH 847 0
DWIDTH 9 0
BBX 8 15 0 -5
BITMAP
0001
0000
1005
7010
B0B4
B074
B074
B074
B000
B800
3F59
0B00
0744
07E0
0140
ENDCHAR
STARTCHAR ohorndotbelow
ENCODING 7907
SWIDTH 847 0
DWIDTH 9 0
BBX 8 15 0 -5
BITMAP
0001
0000
1005
7010
B0B4
B074
B074
B074
B000
B800
3F59
0B00
0744
07E0
0140
ENDCHAR
STARTCHAR Udotbelow
ENCODING 7908
SWIDTH 846 0
DWIDTH 9 0
BBX 9 14 0 -5
BITMAP
101440
707400
B07400
B07400
B07400
B07400
B01000
B00000
780000
3F5900
070000
074400
07E000
014000
ENDCHAR
STARTCHAR udotbelow
ENCODING 7909
SWIDTH 846 0
DWIDTH 9 0
BBX 9 14 0 -5
BITMAP
101440
707400
B07400
B07400
B07400
B07400
B01000
B00000
780000
3F5900
070000
074400
07E000
014000
ENDCHAR
STARTCHAR Uhookabove
ENCODING 7910
SWIDTH 846 0
DWIDTH 9 0
BBX 9 13 0 -1
BITMAP
079000
078500
03FC00
10B440
707400
B07400
B07400
B07400
B07400
B01000
B40040
7E5900
1BF400
ENDCHAR
STARTCHAR uhookabove
ENCODING 7911
SWIDTH 846 0
DWIDTH 9 0
BBX 9 13 0 -1
BITMAP
079000
078500
03FC00
10B440
707400
B07400
B07400
B07400
B07400
B01000
B40040
7E5900
1BF400
ENDCHAR
STARTCHAR Uhornacute
ENCODING 7912
SWIDTH 856 0
DWIDTH 9 0
BBX 9 13 0 -1
BITMAP
016800
0BA500
380500
321400
707400
B07400
B07400
B07400
B07400
B01000
B40040
7E5900
1FF400
ENDCHAR
STARTCHAR uhornacute
ENCODING 7913
SWIDTH 856 0
DWIDTH 9 0
BBX 9 13 0 -1
BITMAP
016800
0BA500
380500
321400
707400
B07400
B07400
B07400
B07400
B01000
B40040
7E5900
1FF400
ENDCHAR
STARTCHAR Uhorngrave
ENCODING 7914
SWIDTH 856 0
DWIDTH 9 0
BBX 9 13 0 -1
BITMAP
1FE800
3AAD00
340100
315400
707400
B07400
B07400
B07400
B07400
B01000
B40040
7E5900
1FF400
ENDCHAR
STARTCHAR uhorngrave
ENCODING 7915
SWIDTH 856 0
DWIDTH 9 0
BBX 9 13 0 -1
BITMAP
1FE800
3AAD00
340100
315400
707400
B07400
B07400
B07400
B07400
B01000
B40040
7E5900
1FF400
ENDCHAR
STARTCHAR Uhornhookabove
ENCODING 7916
SWIDTH 856 0
DWIDTH 9 0
BBX 9 14 0 -1
BITMAP
010000
079000
079500
03FE00
10B400
707400
B07400
B07400
B07400
B07400
B01000
B40040
7E5900
1FF400
ENDCHAR
STARTCHAR uhornhookabove
ENCODING 7917
SWIDTH 856 0
DWIDTH 9 0
BBX 9 14 0 -1
BITMAP
010000
079000
079500
03FE00
10B400
707400
B07400
B07400
B07400
B07400
B01000
B40040
7E5900
1FF400
ENDCHAR
STARTCHAR Uhorntilde
ENCODING 7918
SWIDTH 856 0
DWIDTH 9 0
BBX 9 13 0 -1
BITMAP
180000
380100
394500
70B400
B07400
B07400
B07400
B07400
B07400
B01000
B40040
7E5900
1FF400
ENDCHAR
STARTCHAR uhorntilde
ENCODING 7919
SWIDTH 856 0
DWIDTH 9 0
BBX 9 13 0 -1
BITMAP
180000
380100
394500
70B400
B07400
B07400
B07400
B07400
B07400
B01000
B40040
7E5900
1FF400
ENDCHAR
STARTCHAR Uhorndotbelow
ENCODING 7920
SWIDTH 856 0
DWIDTH 9 0
BBX 8 15 0 -5
BITMAP
0001
1000
7074
B074
B074
B074
B074
B010
B000
7800
3F59
0700
0744
07E0
0140
ENDCHAR
STARTCHAR uhorndotbelow
ENCODING 7921
SWIDTH 856 0
DWIDTH 9 0
BBX 8 15 0 -5
BITMAP
0001
1000
7074
B074
B074
B074
B074
B010
B000
7800
3F59
0700
0744
07E0
0140
ENDCHAR
STARTCHAR Ygrave
ENCODING 7922
SWIDTH 805 0
DWIDTH 9 0
BBX 8 13 0 -1
BITMAP
0654
1EBD
2800
2054
A070
A0B0
B060
B400
7C10
2E00
0F00
0B50
0BD0
ENDCHAR
STARTCHAR ygrave
ENCODING 7923
SWIDTH 805 0
DWIDTH 9 0
BBX 8 13 0 -1
BITMAP
0654
1EBD
2800
2054
A070
A0B0
B060
B400
7C10
2E00
0F00
0B50
0BD0
ENDCHAR
STARTCHAR Ydotbelow
ENCODING 7924
SWIDTH 805 0
DWIDTH 9 0
BBX 7 14 0 -5
BITMAP
1014
A070
A0B0
B060
B400
7C10
2E00
0F00
0B54
0B00
0700
0B00
0BE0
0140
ENDCHAR
STARTCHAR ydotbelow
ENCODING 7925
SWIDTH 805 0
DWIDTH 9 0
BBX 7 14 0 -5
BITMAP
1014
A070
A0B0
B060
B400
7C10
2E00
0F00
0B54
0B00
0700
0B00
0BE0
0140
ENDCHAR
STARTCHAR Yhookabove
ENCODING 7926
SWIDTH 805 0
DWIDTH 9 0
BBX 7 13 0 -1
BITMAP
0B44
0F54
07F8
10A4
A070
A0B0
B060
B400
7C10
2E00
0F00
0B50
0BD0
ENDCHAR
STARTCHAR yhookabove
ENCODING 7927
SWIDTH 805 0
DWIDTH 9 0
BBX 7 13 0 -1
BITMAP
0B44
0F54
07F8
10A4
A070
A0B0
B060
B400
7C10
2E00
0F00
0B50
0BD0
ENDCHAR
STARTCHAR Ytilde
ENCODING 7928
SWIDTH 805 0
DWIDTH 9 0
BBX 7 12 0 -1
BITMAP
0800
2D40
20B4
A070
A0B0
B060
B400
7C10
2E00
0F00
0B50
0BD0
ENDCHAR
STARTCHAR ytilde
ENCODING 7929
SWIDTH 805 0
DWIDTH 9 0
BBX 7 12 0 -1
BITMAP
0800
2D40
20B4
A070
A0B0
B060
B400
7C10
2E00
0F00
0B50
0BD0
ENDCHAR
STARTCHAR enspace
ENCODING 8192
SWIDTH 500 0
DWIDTH 6 0
BBX 1 1 0 0
BITMAP
00
ENDCHAR
STARTCHAR emspace
ENCODING 8193
SWIDTH 1000 0
DWIDTH 11 0
BBX 1 1 0 0
BITMAP
00
ENDCHAR
STARTCHAR uni2002
ENCODING 8194
SWIDTH 500 0
DWIDTH 6 0
BBX 1 1 0 0
BITMAP
00
ENDCHAR
STARTCHAR uni2003
ENCODING 8195
SWIDTH 1000 0
DWIDTH 11 0
BBX 1 1 0 0
BITMAP
00
ENDCHAR
STARTCHAR space.tab_en
ENCODING 8199
SWIDTH 1100 0
DWIDTH 12 0
BBX 1 1 0 0
BITMAP
00
ENDCHAR
STARTCHAR uni2010
ENCODING 8208
SWIDTH 520 0
DWIDTH 6 0
BBX 6 4 0 1
BITMAP
6000
A010
BF80
5500
ENDCHAR
STARTCHAR figuredash
ENCODING 8210
SWIDTH 834 0
DWIDTH 9 0
BBX 9 4 0 1
BITMAP
300000
740040
7FFE00
155400
ENDCHAR
STARTCHAR endash
ENCODING 8211
SWIDTH 834 0
DWIDTH 9 0
BBX 9 4 0 1
BITMAP
300000
740040
7FFE00
155400
ENDCHAR
STARTCHAR emdash
ENCODING 8212
SWIDTH 1234 0
DWIDTH 14 0
BBX 13 4 0 1
BITMAP
30000000
74000040
7FFFFF40
15555400
ENDCHAR
STARTCHAR horizontalbar
ENCODING 8213
SWIDTH 1234 0
DWIDTH 14 0
BBX 13 4 0 1
BITMAP
30000000
74000040
7FFFFF40
15555400
ENDCHAR
STARTCHAR quoteleft
ENCODING 8216
SWIDTH 484 0
DWIDTH 5 0
BBX 5 7 0 2
BITMAP
0540
2140
7000
B000
B040
BF00
1400
ENDCHAR
STARTCHAR quoteright
ENCODING 8217
SWIDTH 484 0
DWIDTH 5 0
BBX 5 6 0 3
BITMAP
1040
B040
B040
B540
7A40
7D00
ENDCHAR
STARTCHAR quotesinglbase
ENCODING 8218
SWIDTH 484 0
DWIDTH 5 0
BBX 5 6 0 -3
BITMAP
2000
B040
B940
7000
7A00
6400
ENDCHAR
STARTCHAR quotedblleft
ENCODING 8220
SWIDTH 784 0
DWIDTH 9 0
BBX 8 7 0 2
BITMAP
0555
2195
A050
A050
B050
BFFD
5454
ENDCHAR
STARTCHAR quotedblright
ENCODING 8221
SWIDTH 784 0
DWIDTH 9 0
BBX 8 6 0 3
BITMAP
1050
A050
A050
B564
7AEA
BDF8
ENDCHAR
STARTCHAR quotedblbase
ENCODING 8222
SWIDTH 784 0
DWIDTH 9 0
BBX 7 6 0 -3
BITMAP
6050
A050
B964
B090
BAF8
6490
ENDCHAR
STARTCHAR dagger
ENCODING 8224
SWIDTH 818 0
DWIDTH 9 0
BBX 9 10 0 -1
BITMAP
020000
0B0000
200000
A01000
B50540
BF0A00
070000
070000
075400
07D000
ENDCHAR
STARTCHAR daggerdbl
ENCODING 8225
SWIDTH 818 0
DWIDTH 9 0
BBX 9 10 0 -1
BITMAP
024400
201000
B50540
BF0A00
150400
601000
A00000
BB0A40
6B5500
07D000
ENDCHAR
STARTCHAR bullet
ENCODING 8226
SWIDTH 543 0
DWIDTH 6 0
BBX 6 6 0 0
BITMAP
6000
A000
A000
A010
BF80
5500
ENDCHAR
STARTCHAR ellipsis
ENCODING 8230
SWIDTH 1210 0
DWIDTH 13 0
BBX 13 5 0 -1
BITMAP
00101000
60303000
B0303000
B5B5B540
BEBEBE00
ENDCHAR
STARTCHAR perthousand
ENCODING 8240
SWIDTH 1517 0
DWIDTH 17 0
BBX 16 10 0 -1
BITMAP
05584000
62180000
A2140000
A0144000
B5604040
7FA15848
14A25848
00D24080
01E7E6E5
01F2F9F8
ENDCHAR
STARTCHAR minute
ENCODING 8242
SWIDTH 456 0
DWIDTH 5 0
BBX 5 7 0 2
BITMAP
1040
7000
B000
B000
B000
BE00
1400
ENDCHAR
STARTCHAR second
ENCODING 8243
SWIDTH 766 0
DWIDTH 8 0
BBX 8 7 0 2
BITMAP
1050
7050
B050
B090
B091
BEFC
1450
ENDCHAR
STARTCHAR guilsinglleft
ENCODING 8249
SWIDTH 663 0
DWIDTH 7 0
BBX 7 6 0 0
BITMAP
0400
2014
B050
B400
7E54
1BE0
ENDCHAR
STARTCHAR guilsinglright
ENCODING 8250
SWIDTH 663 0
DWIDTH 7 0
BBX 6 7 0 0
BITMAP
0400
3000
7500
7A40
2000
7590
7E40
ENDCHAR
STARTCHAR fraction
ENCODING 8260
SWIDTH 417 0
DWIDTH 5 0
BBX 5 10 0 -1
BITMAP
0440
2800
3400
3000
7000
6000
A000
D000
E400
F400
ENDCHAR
STARTCHAR zero.sups
ENCODING 8304
SWIDTH 656 0
DWIDTH 7 0
BBX 5 8 0 1
BITMAP
0100
1000
6280
A280
A280
A000
7400
2F80
ENDCHAR
STARTCHAR foursuperior
ENCODING 8308
SWIDTH 608 0
DWIDTH 7 0
BBX 6 8 0 1
BITMAP
1140
A180
A180
A140
B540
BF80
17E0
0280
ENDCHAR
STARTCHAR five.sups
ENCODING 8309
SWIDTH 593 0
DWIDTH 7 0
BBX 6 9 0 0
BITMAP
1550
7000
B090
B000
BA40
7000
B010
BF80
1500
ENDCHAR
STARTCHAR six.sups
ENCODING 8310
SWIDTH 628 0
DWIDTH 7 0
BBX 7 8 0 1
BITMAP
0550
2000
7090
B000
B180
B044
BEA0
3F80
ENDCHAR
STARTCHAR seven.sups
ENCODING 8311
SWIDTH 577 0
DWIDTH 6 0
BBX 6 9 0 0
BITMAP
1550
A000
FF00
5800
2450
7440
7400
7D00
1400
ENDCHAR
STARTCHAR eight.sups
ENCODING 8312
SWIDTH 638 0
DWIDTH 7 0
BBX 7 8 0 1
BITMAP
0550
2400
7580
7540
6180
B044
BEA4
7F80
ENDCHAR
STARTCHAR nine.sups
ENCODING 8313
SWIDTH 628 0
DWIDTH 7 0
BBX 6 9 0 0
BITMAP
0150
2000
A180
B050
BE40
2400
3810
3F80
1500
ENDCHAR
STARTCHAR parenleft.sups
ENCODING 8317
SWIDTH 434 0
DWIDTH 5 0
BBX 4 8 0 1
BITMAP
10
91
90
90
90
90
A0
7E
ENDCHAR
STARTCHAR parenright.sups
ENCODING 8318
SWIDTH 435 0
DWIDTH 5 0
BBX 3 9 0 1
BITMAP
10
90
B4
24
24
24
10
90
B8
ENDCHAR
STARTCHAR n.sups
ENCODING 8319
SWIDTH 673 0
DWIDTH 7 0
BBX 6 7 0 2
BITMAP
0100
2140
6280
6180
6180
6180
79E0
ENDCHAR
STARTCHAR zero.sinf
ENCODING 8320
SWIDTH 656 0
DWIDTH 7 0
BBX 5 8 0 -1
BITMAP
0100
1000
6280
A280
A280
A000
7400
2F80
ENDCHAR
STARTCHAR one.sinf
ENCODING 8321
SWIDTH 557 0
DWIDTH 6 0
BBX 5 9 0 -2
BITMAP
1540
7400
BC00
2C00
2800
6000
B000
BFC0
5500
ENDCHAR
STARTCHAR two.sinf
ENCODING 8322
SWIDTH 585 0
DWIDTH 6 0
BBX 6 9 0 -2
BITMAP
1150
7A00
7900
2010
6140
A000
A000
BFD0
5540
ENDCHAR
STARTCHAR three.sinf
ENCODING 8323
SWIDTH 584 0
DWIDTH 6 0
BBX 6 9 0 -2
BITMAP
1540
A000
BA00
7450
3A40
2000
B010
BF80
5500
ENDCHAR
STARTCHAR four.sinf
ENCODING 8324
SWIDTH 620 0
DWIDTH 7 0
BBX 6 8 0 -1
BITMAP
1140
A240
E240
E140
F500
BF40
17E0
0280
ENDCHAR
STARTCHAR five.sinf
ENCODING 8325
SWIDTH 593 0
DWIDTH 7 0
BBX 6 9 0 -2
BITMAP
1550
7000
B090
B000
BA40
7000
B010
BF80
1500
ENDCHAR
STARTCHAR six.sinf
ENCODING 8326
SWIDTH 628 0
DWIDTH 7 0
BBX 7 8 0 -1
BITMAP
0550
2000
7090
B000
B180
B044
BEA0
3F80
ENDCHAR
STARTCHAR seven.sinf
ENCODING 8327
SWIDTH 577 0
DWIDTH 6 0
BBX 6 9 0 -2
BITMAP
1550
A000
FF00
5800
2450
7440
7400
7D00
1400
ENDCHAR
STARTCHAR eight.sinf
ENCODING 8328
SWIDTH 638 0
DWIDTH 7 0
BBX 7 8 0 -1
BITMAP
0550
2400
7580
7540
6180
B044
BEA4
7F80
ENDCHAR
STARTCHAR nine.sinf
ENCODING 8329
SWIDTH 628 0
DWIDTH 7 0
BBX 6 9 0 -2
BITMAP
0150
2000
A180
B050
BE40
2400
3810
3F80
1500
ENDCHAR
STARTCHAR parenleft.sinf
ENCODING 8333
SWIDTH 434 0
DWIDTH 5 0
BBX 4 8 0 -1
BITMAP
10
91
90
90
90
90
A0
7E
ENDCHAR
STARTCHAR parenright.sinf
ENCODING 8334
SWIDTH 435 0
DWIDTH 5 0
BBX 3 9 0 -1
BITMAP
10
90
B4
24
24
24
10
90
B8
ENDCHAR
STARTCHAR colonsign
ENCODING 8353
SWIDTH 728 0
DWIDTH 8 0
BBX 8 13 0 -3
BITMAP
0040
0220
0901
2000
7001
B0BC
B050
B000
B400
7D01
2F64
0BF4
0140
ENDCHAR
STARTCHAR lira
ENCODING 8356
SWIDTH 795 0
DWIDTH 9 0
BBX 8 9 0 -1
BITMAP
1440
7068
6110
E000
E120
F060
B000
B555
7FFD
ENDCHAR
STARTCHAR naira
ENCODING 8358
SWIDTH 853 0
DWIDTH 9 0
BBX 9 10 0 -1
BITMAP
101440
712400
A00000
A00000
E00000
E09100
F0B000
B0B400
B57940
7D3E00
ENDCHAR
STARTCHAR peseta
ENCODING 8359
SWIDTH 812 0
DWIDTH 9 0
BBX 9 10 0 -1
BITMAP
140000
700000
A06000
A0B100
F00040
B15500
B07800
B04000
B50000
7D0000
ENDCHAR
STARTCHAR dong
ENCODING 8363
SWIDTH 782 0
DWIDTH 9 0
BBX 8 13 0 -4
BITMAP
0050
0204
0791
0404
2000
A0D0
A0D0
B000
B804
7AA4
3400
7FF4
1550
ENDCHAR
STARTCHAR Euro
ENCODING 8364
SWIDTH 748 0
DWIDTH 8 0
BBX 8 10 0 -1
BITMAP
0001
1400
3019
6100
B064
A100
B014
B400
7E55
1FF8
ENDCHAR
STARTCHAR peso
ENCODING 8369
SWIDTH 812 0
DWIDTH 9 0
BBX 9 10 0 -1
BITMAP
100000
600000
A06100
E0B040
E00100
F15500
B07800
B04000
B50000
7D0000
ENDCHAR
STARTCHAR guarani
ENCODING 8370
SWIDTH 788 0
DWIDTH 9 0
BBX 8 11 0 -2
BITMAP
0200
0410
3001
70BD
B064
B060
B050
B410
7F06
1BA8
0690
ENDCHAR
STARTCHAR cedi
ENCODING 8373
SWIDTH 728 0
DWIDTH 8 0
BBX 8 13 0 -3
BITMAP
0040
0200
0905
2410
7001
B0BC
B050
B000
B400
7E01
2F44
0BE0
0140
ENDCHAR
STARTCHAR indianrupee
ENCODING 8377
SWIDTH 713 0
DWIDTH 8 0
BBX 8 10 0 -1
BITMAP
2554
B001
7614
A000
BA04
7540
BFC0
56C0
01D5
01F8
ENDCHAR
STARTCHAR turkishlira
ENCODING 8378
SWIDTH 795 0
DWIDTH 9 0
BBX 7 10 0 -1
BITMAP
1000
B000
9140
E104
D060
F070
F050
B000
B554
BFE0
ENDCHAR
STARTCHAR ruble
ENCODING 8381
SWIDTH 782 0
DWIDTH 9 0
BBX 8 10 0 -1
BITMAP
1400
7050
B0B0
B010
B100
B069
9110
E040
F500
7D00
ENDCHAR
STARTCHAR liter
ENCODING 8467
SWIDTH 749 0
DWIDTH 8 0
BBX 7 10 0 -2
BITMAP
0400
2000
7090
B040
B100
B064
B000
B800
3FF4
0540
ENDCHAR
STARTCHAR uni2117
ENCODING 8471
SWIDTH 967 0
DWIDTH 11 0
BBX 10 12 0 -3
BITMAP
015540
15BE50
7215C0
B20480
B21880
B200C0
B21AC0
B251C0
B59150
7D4140
2FFE00
015000
ENDCHAR
STARTCHAR uni2120
ENCODING 8480
SWIDTH 1003 0
DWIDTH 11 0
BBX 11 6 0 2
BITMAP
112150
61B050
B02000
B921C0
A576D4
BFBAE0
ENDCHAR
STARTCHAR trademark
ENCODING 8482
SWIDTH 1003 0
DWIDTH 11 0
BBX 11 6 0 2
BITMAP
555150
E46050
B8B000
38B1C0
39B6D4
3DBAE0
ENDCHAR
STARTCHAR Omega
ENCODING 8486
SWIDTH 877 0
DWIDTH 10 0
BBX 9 9 0 -2
BITMAP
140000
707400
707400
707400
743400
602100
A02000
FFFF80
551500
ENDCHAR
STARTCHAR estimated
ENCODING 8494
SWIDTH 815 0
DWIDTH 9 0
BBX 8 10 0 -2
BITMAP
0400
2000
B0B0
B000
B000
B0BE
B000
B800
3FFD
0550
ENDCHAR
STARTCHAR onethird
ENCODING 8531
SWIDTH 1269 0
DWIDTH 14 0
BBX 13 10 0 -1
BITMAP
15450000
741C0000
BC1C1000
2C285000
18287900
65547040
BFF4BA00
55709000
0075E540
00B9FE00
ENDCHAR
STARTCHAR twothirds
ENCODING 8532
SWIDTH 1269 0
DWIDTH 14 0
BBX 13 10 0 -1
BITMAP
11550000
750C0000
B94C1000
20285000
61587900
A4047040
BFF4BA00
55B09000
0075E540
00B9FE00
ENDCHAR
STARTCHAR oneeighth
ENCODING 8539
SWIDTH 1283 0
DWIDTH 14 0
BBX 14 10 0 -1
BITMAP
21450000
B81C0000
6C1C1000
2C285600
20085010
B5548000
BFF48700
55708100
0075E540
00B9FE00
ENDCHAR
STARTCHAR threeeighths
ENCODING 8540
SWIDTH 1293 0
DWIDTH 14 0
BBX 14 10 0 -1
BITMAP
25450000
B91D0000
641C1000
3A481200
20086010
75585000
BFF48700
55708100
0075E540
007DBE40
ENDCHAR
STARTCHAR fiveeighths
ENCODING 8541
SWIDTH 1303 0
DWIDTH 14 0
BBX 14 10 0 -1
BITMAP
15550000
705D0000
B00C1000
BA481200
B0082010
75585000
BFB44340
55349100
0079E540
007DBE40
ENDCHAR
STARTCHAR seveneighths
ENCODING 8542
SWIDTH 1241 0
DWIDTH 14 0
BBX 13 10 0 -1
BITMAP
25584000
A0080000
68144000
24644900
34B08040
75B08100
7DA14900
14A18000
00E6E540
00F6FD00
ENDCHAR
STARTCHAR arrowleft
ENCODING 8592
SWIDTH 1100 0
DWIDTH 12 0
BBX 9 6 1 -1
BITMAP
040000
280000
7E0380
1BD100
02F400
005000
ENDCHAR
STARTCHAR arrowup
ENCODING 8593
SWIDTH 1100 0
DWIDTH 12 0
BBX 8 8 2 -1
BITMAP
0200
0900
1800
2040
BA09
6E04
0B50
0B80
ENDCHAR
STARTCHAR arrowright
ENCODING 8594
SWIDTH 1100 0
DWIDTH 12 0
BBX 8 8 1 -1
BITMAP
0180
0380
1400
7410
7F81
1784
03D0
0100
ENDCHAR
STARTCHAR arrowdown
ENCODING 8595
SWIDTH 1100 0
DWIDTH 12 0
BBX 5 9 2 -1
BITMAP
0100
0600
0A00
6040
B400
7C00
2E00
0F80
0640
ENDCHAR
STARTCHAR arrowupleft
ENCODING 8598
SWIDTH 1100 0
DWIDTH 12 0
BBX 6 7 2 0
BITMAP
1000
7100
B400
7400
3840
3DE0
28E0
ENDCHAR
STARTCHAR arrowupright
ENCODING 8599
SWIDTH 1100 0
DWIDTH 12 0
BBX 7 6 2 0
BITMAP
1400
7C00
2800
1040
79F4
38A0
ENDCHAR
STARTCHAR arrowdownright
ENCODING 8600
SWIDTH 1100 0
DWIDTH 12 0
BBX 7 8 2 -1
BITMAP
0400
2000
7800
3C00
1400
7E94
1BF8
0010
ENDCHAR
STARTCHAR arrowdownleft
ENCODING 8601
SWIDTH 1100 0
DWIDTH 12 0
BBX 7 7 2 0
BITMAP
0410
1840
3400
3400
7100
7168
BE90
ENDCHAR
STARTCHAR uni21AA
ENCODING 8618
SWIDTH 1100 0
DWIDTH 12 0
BBX 9 10 1 -2
BITMAP
040000
346A40
74A900
749000
745000
780400
3E9040
1AD100
00E400
008000
ENDCHAR
STARTCHAR uni21AB
ENCODING 8619
SWIDTH 1100 0
DWIDTH 12 0
BBX 9 10 1 -2
BITMAP
080000
1EA900
1AAE00
000A00
000900
104000
7D0A40
2F8900
07F000
009000
ENDCHAR
STARTCHAR uni21B0
ENCODING 8624
SWIDTH 1100 0
DWIDTH 12 0
BBX 9 7 1 -2
BITMAP
204000
BD0900
2F8900
06FD00
005D00
000F80
000500
ENDCHAR
STARTCHAR uni21B1
ENCODING 8625
SWIDTH 1100 0
DWIDTH 12 0
BBX 10 10 1 -2
BITMAP
005000
01D000
015000
140510
349040
749500
74A000
744000
7E0000
140000
ENDCHAR
STARTCHAR uni21B2
ENCODING 8626
SWIDTH 1100 0
DWIDTH 12 0
BBX 9 10 1 -2
BITMAP
000100
000D00
000900
000D00
004400
744040
7E0E00
1FD400
02E000
004000
ENDCHAR
STARTCHAR uni21B3
ENCODING 8627
SWIDTH 1100 0
DWIDTH 12 0
BBX 9 9 1 -1
BITMAP
140000
700000
708000
70D000
740400
780400
3FD140
05D400
01D000
ENDCHAR
STARTCHAR partialdiff
ENCODING 8706
SWIDTH 792 0
DWIDTH 9 0
BBX 7 10 0 -2
BITMAP
0400
2800
3EA0
2400
2000
A0A0
B000
B400
7FF8
0550
ENDCHAR
STARTCHAR Delta
ENCODING 8710
SWIDTH 830 0
DWIDTH 9 0
BBX 9 10 0 -2
BITMAP
050000
1C0000
281000
346000
30B000
70B000
B10000
B00000
BFFF40
155400
ENDCHAR
STARTCHAR product
ENCODING 8719
SWIDTH 859 0
DWIDTH 9 0
BBX 9 10 0 -2
BITMAP
100000
710100
B06400
B07400
B07400
B07400
B07400
B07400
7E7F40
141400
ENDCHAR
STARTCHAR summation
ENCODING 8721
SWIDTH 750 0
DWIDTH 8 0
BBX 8 11 0 -3
BITMAP
1000
7100
B019
BC04
2E00
0800
1010
6000
A000
BFFD
5550
ENDCHAR
STARTCHAR minus
ENCODING 8722
SWIDTH 834 0
DWIDTH 9 0
BBX 8 4 0 1
BITMAP
2000
7000
7FFE
1554
ENDCHAR
STARTCHAR uni2215
ENCODING 8725
SWIDTH 417 0
DWIDTH 5 0
BBX 5 10 0 -1
BITMAP
0440
2800
3400
3000
7000
6000
A000
D000
E400
F400
ENDCHAR
STARTCHAR uni2219
ENCODING 8729
SWIDTH 464 0
DWIDTH 5 0
BBX 5 4 0 1
BITMAP
6000
A000
B540
BE00
ENDCHAR
STARTCHAR radical
ENCODING 8730
SWIDTH 841 0
DWIDTH 9 0
BBX 7 11 0 -2
BITMAP
0004
0018
0028
1034
A070
E420
FC00
2D00
1E00
0FF8
0150
ENDCHAR
STARTCHAR infinity
ENCODING 8734
SWIDTH 978 0
DWIDTH 11 0
BBX 10 7 0 -1
BITMAP
200100
A0C340
A0C640
B00000
B95550
7FBF80
000400
ENDCHAR
STARTCHAR integral
ENCODING 8747
SWIDTH 574 0
DWIDTH 6 0
BBX 6 11 0 -3
BITMAP
0800
2810
3800
3800
3800
3800
3400
5000
D040
FD00
5000
ENDCHAR
STARTCHAR approxequal
ENCODING 8776
SWIDTH 834 0
DWIDTH 9 0
BBX 8 6 0 0
BITMAP
7000
7AA5
6969
2000
7695
7AF9
ENDCHAR
STARTCHAR notequal
ENCODING 8800
SWIDTH 834 0
DWIDTH 9 0
BBX 9 9 0 -1
BITMAP
004000
104000
701000
BA0640
6A0500
201000
750540
7E5E00
0B8000
ENDCHAR
STARTCHAR lessequal
ENCODING 8804
SWIDTH 814 0
DWIDTH 9 0
BBX 8 9 0 -2
BITMAP
0400
2415
7068
7400
7E40
2000
7400
7FFE
1554
ENDCHAR
STARTCHAR greaterequal
ENCODING 8805
SWIDTH 814 0
DWIDTH 9 0
BBX 8 10 0 -2
BITMAP
1400
7400
7E40
2FE0
0400
3415
7400
7400
7FFE
1554
ENDCHAR
STARTCHAR block
ENCODING 9608
SWIDTH 1000 0
DWIDTH 11 0
BBX 13 12 -1 -2
BITMAP
6AAAAA40
7FFFFF40
7FFFFF40
7FFFFF40
7FFFFF40
7FFFFF40
7FFFFF40
7FFFFF40
7FFFFF40
7FFFFF40
7FFFFF40
7FFFFF40
ENDCHAR
STARTCHAR blacksquare
ENCODING 9632
SWIDTH 1100 0
DWIDTH 12 0
BBX 7 6 2 0
BITMAP
2400
7410
7410
7400
7AA4
2AA0
ENDCHAR
STARTCHAR blackuppointingtriangle
ENCODING 9650
SWIDTH 1100 0
DWIDTH 12 0
BBX 8 6 2 0
BITMAP
0200
0900
0800
2000
7AA9
6AA8
ENDCHAR
STARTCHAR whiteuppointingtriangle
ENCODING 9651
SWIDTH 1100 0
DWIDTH 12 0
BBX 6 6 4 1
BITMAP
0400
1100
1040
4040
0010
5550
ENDCHAR
STARTCHAR blackrightpointingtriangle
ENCODING 9654
SWIDTH 1100 0
DWIDTH 12 0
BBX 6 8 2 -1
BITMAP
1400
7400
7400
7400
7410
7540
7800
1000
ENDCHAR
STARTCHAR whiterightpointingtriangle
ENCODING 9655
SWIDTH 1100 0
DWIDTH 12 0
BBX 5 6 4 1
BITMAP
5000
4100
4040
4040
4100
5000
ENDCHAR
STARTCHAR blackdownpointingtriangle
ENCODING 9660
SWIDTH 1100 0
DWIDTH 12 0
BBX 5 7 2 0
BITMAP
1000
7000
B800
3D00
1F00
0B80
0200
ENDCHAR
STARTCHAR whitedownpointingtriangle
ENCODING 9661
SWIDTH 1100 0
DWIDTH 12 0
BBX 6 6 4 1
BITMAP
5550
0010
4040
1040
1100
0400
ENDCHAR
STARTCHAR blackleftpointingtriangle
ENCODING 9664
SWIDTH 1100 0
DWIDTH 12 0
BBX 6 6 3 -1
BITMAP
1040
A040
FD00
2F80
06E0
0040
ENDCHAR
STARTCHAR whiteleftpointingtriangle
ENCODING 9665
SWIDTH 1100 0
DWIDTH 12 0
BBX 6 6 4 1
BITMAP
0150
0410
4010
4010
0410
0150
ENDCHAR
STARTCHAR blackdiamond
ENCODING 9670
SWIDTH 1100 0
DWIDTH 12 0
BBX 5 5 2 -1
BITMAP
6000
B800
3E00
0F80
0100
ENDCHAR
STARTCHAR lozenge
ENCODING 9674
SWIDTH 831 0
DWIDTH 9 0
BBX 7 10 0 -2
BITMAP
0100
0800
1810
3070
7070
7410
3C00
2D00
1FF4
0550
ENDCHAR
STARTCHAR uni25D6
ENCODING 9686
SWIDTH 546 0
DWIDTH 6 0
BBX 7 12 0 -2
BITMAP
01A4
0BF4
2FF4
7FF4
BFF4
FFF4
FFF4
BFF4
7FF4
2FF4
0BF4
01B4
ENDCHAR
STARTCHAR uni25D7
ENCODING 9687
SWIDTH 546 0
DWIDTH 6 0
BBX 7 12 -1 -2
BITMAP
6900
7F80
7FE0
7FF4
7FF8
7FFC
7FFC
7FF8
7FF4
7FE0
7F80
7900
ENDCHAR
STARTCHAR uni25DC
ENCODING 9692
SWIDTH 1280 0
DWIDTH 14 0
BBX 12 12 1 -2
BITMAP
0006AA
00BFFF
06FFFF
0BFFFF
2FFFFF
3FFFFF
7FFFFF
BFFFFF
BFFFFF
BFFFFF
BFFFFF
BFFFFE
ENDCHAR
STARTCHAR uni25DD
ENCODING 9693
SWIDTH 1280 0
DWIDTH 14 0
BBX 12 12 1 -2
BITMAP
AA9000
BFFE00
BFFFD0
BFFFF0
BFFFF8
BFFFFD
BFFFFD
BFFFFE
BFFFFE
BFFFFE
BFFFFF
BFFFFE
ENDCHAR
STARTCHAR uni25DE
ENCODING 9694
SWIDTH 1280 0
DWIDTH 14 0
BBX 12 12 1 -2
BITMAP
AAAAAA
BFFFFF
BFFFFF
BFFFFE
BFFFFE
BFFFFD
BFFFFD
BFFFF8
BFFFF4
BFFFD0
BFFE40
BE9400
ENDCHAR
STARTCHAR uni25DF
ENCODING 9695
SWIDTH 1280 0
DWIDTH 14 0
BBX 12 12 1 -2
BITMAP
AAAAAA
BFFFFF
BFFFFF
BFFFFF
BFFFFF
7FFFFF
3FFFFF
2FFFFF
0FFFFF
07FFFF
01BFFF
0016BE
ENDCHAR
STARTCHAR uni261A
ENCODING 9754
SWIDTH 1100 0
DWIDTH 12 0
BBX 10 7 1 0
BITMAP
000140
200000
BE0000
1B0000
0B4000
07FF50
015B80
ENDCHAR
STARTCHAR uni261B
ENCODING 9755
SWIDTH 1100 0
DWIDTH 12 0
BBX 10 7 1 0
BITMAP
100000
700010
B001D0
B00100
B00000
B2F800
B95000
ENDCHAR
STARTCHAR uni261C
ENCODING 9756
SWIDTH 1100 0
DWIDTH 12 0
BBX 9 6 2 1
BITMAP
155180
550180
050180
010180
010180
005580
ENDCHAR
STARTCHAR uni261D
ENCODING 9757
SWIDTH 1100 0
DWIDTH 12 0
BBX 6 8 4 0
BITMAP
5000
5000
5540
4140
4040
4040
5550
AA90
ENDCHAR
STARTCHAR uni261E
ENCODING 9758
SWIDTH 1100 0
DWIDTH 12 0
BBX 9 6 2 1
BITMAP
255500
640540
640400
640400
641400
255000
ENDCHAR
STARTCHAR uni261F
ENCODING 9759
SWIDTH 1100 0
DWIDTH 12 0
BBX 6 8 4 0
BITMAP
AAA0
5550
4040
4010
5010
1510
0100
0140
ENDCHAR
STARTCHAR uni27A1
ENCODING 10145
SWIDTH 650 0
DWIDTH 7 0
BBX 8 16 -1 -4
BITMAP
2800
2E00
7F40
7FC0
7FE0
7FF8
7FFD
7FFE
7FFE
7FFD
7FF8
7FE0
7FD0
7F40
2E00
2800
ENDCHAR
STARTCHAR uni2B1B
ENCODING 11035
SWIDTH 1280 0
DWIDTH 14 0
BBX 12 12 1 -2
BITMAP
AAAAAA
BFFFFF
BFFFFF
BFFFFF
BFFFFF
BFFFFF
BFFFFF
BFFFFF
BFFFFF
BFFFFF
BFFFFF
BFFFFE
ENDCHAR
STARTCHAR uni2B24
ENCODING 11044
SWIDTH 1280 0
DWIDTH 14 0
BBX 14 13 0 -3
BITMAP
006FA000
07FFFD00
0FFFFF40
2FFFFF80
3FFFFFC0
7FFFFFD0
7FFFFFD0
3FFFFFC0
2FFFFF80
1FFFFF40
07FFFE00
01BFE400
00154000
ENDCHAR
STARTCHAR A.salt
ENCODING 57600
SWIDTH 836 0
DWIDTH 9 0
BBX 8 10 0 -2
BITMAP
0400
2000
70B0
B0B4
B100
B000
B0B4
B0B4
BE7F
1414
ENDCHAR
STARTCHAR Agrave.salt
ENCODING 57601
SWIDTH 836 0
DWIDTH 9 0
BBX 8 13 0 -2
BITMAP
0400
1C00
2E95
1800
2000
70B0
B0B4
B100
B000
B0B4
B0B4
BE7F
1414
ENDCHAR
STARTCHAR Aacute.salt
ENCODING 57602
SWIDTH 836 0
DWIDTH 9 0
BBX 8 12 0 -2
BITMAP
0800
1D59
1800
2000
70B0
B0B4
B100
B000
B0B4
B0B4
BE7F
1414
ENDCHAR
STARTCHAR Acircumflex.salt
ENCODING 57603
SWIDTH 836 0
DWIDTH 9 0
BBX 8 12 0 -2
BITMAP
0800
1DA9
2800
2000
70B0
B0B4
B100
B000
B0B4
B0B4
BE7F
1414
ENDCHAR
STARTCHAR Atilde.salt
ENCODING 57604
SWIDTH 836 0
DWIDTH 9 0
BBX 8 12 0 -2
BITMAP
0800
2D55
1800
2000
70B0
B0B4
B100
B000
B0B4
B0B4
BE7F
1414
ENDCHAR
STARTCHAR Adieresis.salt
ENCODING 57605
SWIDTH 836 0
DWIDTH 9 0
BBX 8 13 0 -2
BITMAP
0010
1820
2D65
2800
2000
70B0
B0B4
B100
B000
B0B4
B0B4
BE7F
1414
ENDCHAR
STARTCHAR Aring.salt
ENCODING 57606
SWIDTH 836 0
DWIDTH 9 0
BBX 8 12 0 -2
BITMAP
0810
2C70
2810
2000
70B0
B0B4
B100
B000
B0B4
B0B4
BE7F
1414
ENDCHAR
STARTCHAR Amacron.salt
ENCODING 57607
SWIDTH 836 0
DWIDTH 9 0
BBX 8 12 0 -2
BITMAP
0800
2D55
1800
2000
70B0
B0B4
B100
B000
B0B4
B0B4
BE7F
1414
ENDCHAR
STARTCHAR Abreve.salt
ENCODING 57608
SWIDTH 836 0
DWIDTH 9 0
BBX 8 13 0 -2
BITMAP
0410
1C10
2E54
1800
2000
70B0
B0B4
B100
B000
B0B4
B0B4
BE7F
1414
ENDCHAR
STARTCHAR Aogonek.salt
ENCODING 57609
SWIDTH 836 0
DWIDTH 9 0
BBX 9 12 0 -4
BITMAP
040000
200000
70B000
B0B400
B10000
B00000
B0B400
B0B400
BE7040
14B000
00BF40
001400
ENDCHAR
STARTCHAR E.salt
ENCODING 57610
SWIDTH 743 0
DWIDTH 8 0
BBX 8 9 0 -2
BITMAP
2000
70B9
B000
B000
B0B4
B000
7800
3FFD
0550
ENDCHAR
STARTCHAR Egrave.salt
ENCODING 57611
SWIDTH 743 0
DWIDTH 8 0
BBX 8 13 0 -2
BITMAP
0400
2800
3E94
1900
2000
70B9
B000
B000
B0B4
B000
7800
3FFD
0550
ENDCHAR
STARTCHAR Eacute.salt
ENCODING 57612
SWIDTH 743 0
DWIDTH 8 0
BBX 8 12 0 -2
BITMAP
0800
2D68
2900
2000
70B9
B000
B000
B0B4
B000
7800
3FFD
0550
ENDCHAR
STARTCHAR Ecircumflex.salt
ENCODING 57613
SWIDTH 743 0
DWIDTH 8 0
BBX 8 12 0 -2
BITMAP
0800
2DA5
2900
2000
70B9
B000
B000
B0B4
B000
7800
3FFD
0550
ENDCHAR
STARTCHAR Edieresis.salt
ENCODING 57614
SWIDTH 743 0
DWIDTH 8 0
BBX 8 12 0 -2
BITMAP
1810
3965
2900
2000
70B9
B000
B000
B0B4
B000
7800
3FFD
0550
ENDCHAR
STARTCHAR Emacron.salt
ENCODING 57615
SWIDTH 743 0
DWIDTH 8 0
BBX 8 12 0 -2
BITMAP
0800
2D55
2900
2000
70B9
B000
B000
B0B4
B000
7800
3FFD
0550
ENDCHAR
STARTCHAR Ebreve.salt
ENCODING 57616
SWIDTH 743 0
DWIDTH 8 0
BBX 8 13 0 -2
BITMAP
0410
2C10
2E54
1900
2000
70B9
B000
B000
B0B4
B000
7800
3FFD
0550
ENDCHAR
STARTCHAR Edotaccent.salt
ENCODING 57617
SWIDTH 743 0
DWIDTH 8 0
BBX 8 13 0 -2
BITMAP
0100
0700
0B54
0500
2000
70B9
B000
B000
B0B4
B000
7800
3FFD
0550
ENDCHAR
STARTCHAR Eogonek.salt
ENCODING 57618
SWIDTH 743 0
DWIDTH 8 0
BBX 8 11 0 -4
BITMAP
2000
70B9
B000
B000
B0B4
B000
7800
3FC1
06D0
01FD
0050
ENDCHAR
STARTCHAR Ecaron.salt
ENCODING 57619
SWIDTH 743 0
DWIDTH 8 0
BBX 8 13 0 -2
BITMAP
0400
2C00
2E54
1900
2000
70B9
B000
B000
B0B4
B000
7800
3FFD
0550
ENDCHAR
STARTCHAR I.salt
ENCODING 57620
SWIDTH 471 0
DWIDTH 5 0
BBX 4 10 0 -2
BITMAP
10
70
B0
B0
B0
B0
B0
B0
7E
14
ENDCHAR
STARTCHAR Igrave.salt
ENCODING 57621
SWIDTH 471 0
DWIDTH 5 0
BBX 6 13 0 -2
BITMAP
1000
6000
F950
7040
7000
B000
B000
B000
B000
B000
B000
7E00
1400
ENDCHAR
STARTCHAR Iacute.salt
ENCODING 57622
SWIDTH 471 0
DWIDTH 5 0
BBX 5 12 0 -2
BITMAP
2000
B680
B000
7000
B000
B000
B000
B000
B000
B000
7E00
1400
ENDCHAR
STARTCHAR Icircumflex.salt
ENCODING 57623
SWIDTH 471 0
DWIDTH 5 0
BBX 5 12 0 -2
BITMAP
5000
EA80
B040
7000
B000
B000
B000
B000
B000
B000
7E00
1400
ENDCHAR
STARTCHAR Idieresis.salt
ENCODING 57624
SWIDTH 471 0
DWIDTH 5 0
BBX 6 13 0 -2
BITMAP
0100
9200
E650
B040
7000
B000
B000
B000
B000
B000
B000
7E00
1400
ENDCHAR
STARTCHAR Itilde.salt
ENCODING 57625
SWIDTH 471 0
DWIDTH 5 0
BBX 5 12 0 -2
BITMAP
5000
E540
7040
7000
B000
B000
B000
B000
B000
B000
7E00
1400
ENDCHAR
STARTCHAR Imacron.salt
ENCODING 57626
SWIDTH 471 0
DWIDTH 5 0
BBX 5 12 0 -2
BITMAP
5000
E540
F000
7000
B000
B000
B000
B000
B000
B000
7E00
1400
ENDCHAR
STARTCHAR Ibreve.salt
ENCODING 57627
SWIDTH 471 0
DWIDTH 5 0
BBX 6 13 -1 -2
BITMAP
0440
3540
7D50
2C00
1C00
2C00
2C00
2C00
2C00
2C00
2C00
1F80
0500
ENDCHAR
STARTCHAR Iogonek.salt
ENCODING 57628
SWIDTH 471 0
DWIDTH 5 0
BBX 5 12 0 -4
BITMAP
1400
7000
7000
7000
7000
7000
7000
7000
7040
B000
BF40
1400
ENDCHAR
STARTCHAR Idotaccent.salt
ENCODING 57629
SWIDTH 471 0
DWIDTH 5 0
BBX 5 12 0 -2
BITMAP
7000
7540
7000
7000
B000
B000
B000
B000
B000
B000
7E00
1400
ENDCHAR
STARTCHAR L.salt
ENCODING 57630
SWIDTH 715 0
DWIDTH 8 0
BBX 8 10 0 -2
BITMAP
1000
7000
B000
B000
B000
B000
B100
B000
7FFD
1550
ENDCHAR
STARTCHAR Lacute.salt
ENCODING 57631
SWIDTH 715 0
DWIDTH 8 0
BBX 8 12 0 -2
BITMAP
2000
75A4
7050
7000
B000
B000
B000
B000
B100
B000
7FFD
1550
ENDCHAR
STARTCHAR Lcommaaccent.salt
ENCODING 57632
SWIDTH 715 0
DWIDTH 8 0
BBX 8 14 0 -6
BITMAP
1000
7000
B000
B000
B000
B000
B100
B000
7F59
1A00
0F40
0A10
0BC0
0500
ENDCHAR
STARTCHAR Lcaron.salt
ENCODING 57633
SWIDTH 715 0
DWIDTH 8 0
BBX 8 10 0 -2
BITMAP
1050
7060
B050
B078
B050
B000
B100
B000
7FFD
1550
ENDCHAR
STARTCHAR Ldot.salt
ENCODING 57634
SWIDTH 715 0
DWIDTH 8 0
BBX 8 10 0 -2
BITMAP
1000
7000
B050
B050
B069
B068
B100
B000
7FFD
1550
ENDCHAR
STARTCHAR Lslash.salt
ENCODING 57635
SWIDTH 725 0
DWIDTH 8 0
BBX 8 10 0 -2
BITMAP
1400
7000
7000
5100
E050
F000
7000
7400
7FFD
1550
ENDCHAR
STARTCHAR M.salt
ENCODING 57636
SWIDTH 1170 0
DWIDTH 13 0
BBX 12 10 0 -2
BITMAP
040001
200000
7060A0
B0B0B0
B0B0B0
B0B0B0
B0B0B0
B0B0B0
BEBEBE
141414
ENDCHAR
STARTCHAR N.salt
ENCODING 57637
SWIDTH 846 0
DWIDTH 9 0
BBX 9 10 0 -2
BITMAP
040000
200000
707000
B07400
B07400
B07400
B07400
B07400
BE7F40
141400
ENDCHAR
STARTCHAR Ntilde.salt
ENCODING 57638
SWIDTH 846 0
DWIDTH 9 0
BBX 9 12 0 -2
BITMAP
080000
1D5500
180000
200000
707000
B07400
B07400
B07400
B07400
B07400
BE7F40
141400
ENDCHAR
STARTCHAR Nacute.salt
ENCODING 57639
SWIDTH 846 0
DWIDTH 9 0
BBX 9 12 0 -2
BITMAP
050000
1D5900
180000
200000
707000
B07400
B07400
B07400
B07400
B07400
BE7F40
141400
ENDCHAR
STARTCHAR Ncommaaccent.salt
ENCODING 57640
SWIDTH 846 0
DWIDTH 9 0
BBX 9 14 0 -6
BITMAP
040000
200000
707000
B07400
B07400
B07400
B07400
B07400
BF5B40
170400
079000
075000
07D000
010000
ENDCHAR
STARTCHAR Ncaron.salt
ENCODING 57641
SWIDTH 846 0
DWIDTH 9 0
BBX 9 13 0 -2
BITMAP
050100
1C0000
1F5800
080000
200000
707000
B07400
B07400
B07400
B07400
B07400
BE7F40
141400
ENDCHAR
STARTCHAR W.salt
ENCODING 57642
SWIDTH 1170 0
DWIDTH 13 0
BBX 12 10 0 -2
BITMAP
101010
70B0B0
B0B0B0
B0B0B0
B0B0B0
B0B0A0
B00100
780101
3FFFF8
054550
ENDCHAR
STARTCHAR Wcircumflex.salt
ENCODING 57643
SWIDTH 1170 0
DWIDTH 13 0
BBX 12 12 0 -2
BITMAP
008000
02DA50
10B060
70B0B0
B0B0B0
B0B0B0
B0B0B0
B0B0A0
B00100
780101
3FFFF8
054550
ENDCHAR
STARTCHAR Wgrave.salt
ENCODING 57644
SWIDTH 1170 0
DWIDTH 13 0
BBX 12 13 0 -2
BITMAP
004000
018000
02E940
107050
70B0B0
B0B0B0
B0B0B0
B0B0B0
B0B0A0
B00100
780101
3FFFF8
054550
ENDCHAR
STARTCHAR Wacute.salt
ENCODING 57645
SWIDTH 1170 0
DWIDTH 13 0
BBX 12 12 0 -2
BITMAP
008000
02D680
10B050
70B0B0
B0B0B0
B0B0B0
B0B0B0
B0B0A0
B00100
780101
3FFFF8
054550
ENDCHAR
STARTCHAR Wdieresis.salt
ENCODING 57646
SWIDTH 1170 0
DWIDTH 13 0
BBX 12 13 0 -2
BITMAP
000100
018500
039A50
10B060
70B0B0
B0B0B0
B0B0B0
B0B0B0
B0B0A0
B00100
780101
3FFFF8
054550
ENDCHAR
STARTCHAR X.salt
ENCODING 57647
SWIDTH 837 0
DWIDTH 9 0
BBX 9 10 0 -2
BITMAP
141000
742000
382000
340000
300000
B07400
B07400
B07400
BE7F40
141400
ENDCHAR
STARTCHAR Y.salt
ENCODING 57648
SWIDTH 806 0
DWIDTH 9 0
BBX 8 10 0 -2
BITMAP
1010
A070
A0B0
A060
B000
B905
2F04
0B00
0BE0
0140
ENDCHAR
STARTCHAR Yacute.salt
ENCODING 57649
SWIDTH 806 0
DWIDTH 9 0
BBX 8 12 0 -2
BITMAP
0800
2D68
20B0
A070
A0B0
A060
B000
B905
2F04
0B00
0BE0
0140
ENDCHAR
STARTCHAR Ycircumflex.salt
ENCODING 57650
SWIDTH 806 0
DWIDTH 9 0
BBX 8 12 0 -2
BITMAP
0800
2DA5
20B0
A070
A0B0
A060
B000
B905
2F04
0B00
0BE0
0140
ENDCHAR
STARTCHAR Ydieresis.salt
ENCODING 57651
SWIDTH 806 0
DWIDTH 9 0
BBX 8 13 0 -2
BITMAP
0010
1850
39A5
20B0
A070
A0B0
A060
B000
B905
2F04
0B00
0BE0
0140
ENDCHAR
STARTCHAR Ygrave.salt
ENCODING 57652
SWIDTH 806 0
DWIDTH 9 0
BBX 8 13 0 -2
BITMAP
0400
1800
2E94
20B0
A0B0
A0B0
A060
B000
B905
2F04
0B00
0BE0
0140
ENDCHAR
STARTCHAR AE.salt
ENCODING 57653
SWIDTH 1113 0
DWIDTH 12 0
BBX 12 9 0 -2
BITMAP
200100
70707D
B0B400
B10100
B00074
B0B400
B0B400
BE7FFD
141550
ENDCHAR
STARTCHAR IJ.salt
ENCODING 57654
SWIDTH 1133 0
DWIDTH 12 0
BBX 11 10 0 -2
BITMAP
100050
7000D0
B000D0
B001D0
B050D0
B060D0
B06000
B07400
7EBFF4
141540
ENDCHAR
STARTCHAR IJ.stack
ENCODING 57655
SWIDTH 1363 0
DWIDTH 15 0
BBX 13 10 0 -2
BITMAP
10000100
B0400700
B9080B00
6D000B00
1D020B00
1D070B00
20420000
B0028000
BFFBFF80
15505500
ENDCHAR
STARTCHAR quoteleft.salt
ENCODING 57656
SWIDTH 407 0
DWIDTH 4 0
BBX 4 5 0 3
BITMAP
15
71
B0
BD
54
ENDCHAR
STARTCHAR quoteright.salt
ENCODING 57657
SWIDTH 407 0
DWIDTH 4 0
BBX 4 5 0 3
BITMAP
20
B4
B5
78
10
ENDCHAR
STARTCHAR ampersand.salt
ENCODING 57658
SWIDTH 732 0
DWIDTH 8 0
BBX 8 12 0 -3
BITMAP
0100
0500
1400
3429
3800
2000
A0B4
E000
B400
7F05
0BE0
0140
ENDCHAR
STARTCHAR caron.2
ENCODING 57659
SWIDTH 600 0
DWIDTH 7 0
BBX 4 5 1 3
BITMAP
10
60
A0
FD
50
ENDCHAR
STARTCHAR indexup
ENCODING 57660
SWIDTH 1100 0
DWIDTH 12 0
BBX 7 10 2 -2
BITMAP
0400
3800
3440
3400
3400
3800
3400
7000
BFFC
1550
ENDCHAR
STARTCHAR indexdown
ENCODING 57661
SWIDTH 1100 0
DWIDTH 12 0
BBX 8 10 2 -2
BITMAP
2001
7405
7800
3400
3400
3464
3990
3800
3C00
1000
ENDCHAR
STARTCHAR indexupleft
ENCODING 57662
SWIDTH 1100 0
DWIDTH 12 0
BBX 5 10 2 -2
BITMAP
2000
B800
3400
2000
9000
F400
7D00
1E00
0F40
0500
ENDCHAR
STARTCHAR indexupright
ENCODING 57663
SWIDTH 1100 0
DWIDTH 12 0
BBX 8 9 2 -2
BITMAP
0004
0100
0501
1000
F400
BD10
2F40
0BC0
0240
ENDCHAR
STARTCHAR indexdownleft
ENCODING 57664
SWIDTH 1100 0
DWIDTH 12 0
BBX 10 8 1 -1
BITMAP
001000
00D000
000000
040000
140090
578140
EBE000
409000
ENDCHAR
STARTCHAR indexdownright
ENCODING 57665
SWIDTH 1100 0
DWIDTH 12 0
BBX 10 8 1 -1
BITMAP
010000
051000
140000
500000
F90000
6F4680
07E6D0
018040
ENDCHAR
STARTCHAR indexdownleft.outline
ENCODING 57666
SWIDTH 1100 0
DWIDTH 12 0
BBX 10 8 2 0
BITMAP
001000
005800
005600
050580
000190
150140
514400
005000
ENDCHAR
STARTCHAR indexdownright.outline
ENCODING 57667
SWIDTH 1100 0
DWIDTH 12 0
BBX 9 8 2 0
BITMAP
004000
024000
095000
250400
940100
140440
015540
004000
ENDCHAR
STARTCHAR indexupleft.outline
ENCODING 57668
SWIDTH 1100 0
DWIDTH 12 0
BBX 8 10 3 -1
BITMAP
1000
5400
1100
1440
5014
4015
1058
0560
0580
0100
ENDCHAR
STARTCHAR indexupright.outline
ENCODING 57669
SWIDTH 1100 0
DWIDTH 12 0
BBX 7 10 3 -1
BITMAP
0004
0014
0150
0014
1404
9404
2504
0950
0240
0040
ENDCHAR
STARTCHAR uni261A.salt
ENCODING 57670
SWIDTH 1100 0
DWIDTH 12 0
BBX 10 7 1 0
BITMAP
000140
600000
BF8000
578000
03E200
01E7D0
00E100
ENDCHAR
STARTCHAR uni261B.salt
ENCODING 57671
SWIDTH 1100 0
DWIDTH 12 0
BBX 10 7 1 0
BITMAP
100000
710000
B003D0
B10100
B24400
BBD000
52D000
ENDCHAR
STARTCHAR indexdown.salt
ENCODING 57672
SWIDTH 1100 0
DWIDTH 12 0
BBX 8 10 2 -2
BITMAP
0800
2D05
2D00
1000
7A00
5BE0
01B0
00B0
00B4
0010
ENDCHAR
STARTCHAR indexdownleft.salt
ENCODING 57673
SWIDTH 1100 0
DWIDTH 12 0
BBX 9 8 1 -1
BITMAP
001000
006400
010000
050080
144080
22E800
B1AE00
401800
ENDCHAR
STARTCHAR indexdownright.salt
ENCODING 57674
SWIDTH 1100 0
DWIDTH 12 0
BBX 10 8 1 -1
BITMAP
010000
041000
100000
750000
BE1100
0D6B40
0E97D0
080140
ENDCHAR
STARTCHAR indexup.salt
ENCODING 57675
SWIDTH 1100 0
DWIDTH 12 0
BBX 7 10 2 -2
BITMAP
0400
3400
3400
7000
7000
7404
3400
7000
BFF4
1540
ENDCHAR
STARTCHAR indexupleft.salt
ENCODING 57676
SWIDTH 1100 0
DWIDTH 12 0
BBX 7 10 2 -2
BITMAP
1000
B400
7D00
1800
3404
6000
AA40
AB00
0780
0100
ENDCHAR
STARTCHAR indexupright.salt
ENCODING 57677
SWIDTH 1100 0
DWIDTH 12 0
BBX 8 8 2 -2
BITMAP
0104
0600
1500
A000
B829
2E18
0B40
0100
ENDCHAR
STARTCHAR uni261C.salt
ENCODING 57678
SWIDTH 1100 0
DWIDTH 12 0
BBX 9 6 2 1
BITMAP
155140
500180
014180
014180
004580
005000
ENDCHAR
STARTCHAR uni261D.salt
ENCODING 57679
SWIDTH 1100 0
DWIDTH 12 0
BBX 6 8 4 0
BITMAP
5000
5000
5400
5140
4510
4040
5540
AA80
ENDCHAR
STARTCHAR uni261E.salt
ENCODING 57680
SWIDTH 1100 0
DWIDTH 12 0
BBX 9 6 2 1
BITMAP
255500
640040
645400
645000
255000
005000
ENDCHAR
STARTCHAR uni261F.salt
ENCODING 57681
SWIDTH 1100 0
DWIDTH 12 0
BBX 6 8 4 0
BITMAP
6AA0
1550
1000
4410
5110
0510
0010
0040
ENDCHAR
STARTCHAR indexdownleft.salt_outline
ENCODING 57682
SWIDTH 1100 0
DWIDTH 12 0
BBX 9 8 2 0
BITMAP
001000
001800
005600
010580
044140
111000
445100
000400
ENDCHAR
STARTCHAR indexdownright.salt_outline
ENCODING 57683
SWIDTH 1100 0
DWIDTH 12 0
BBX 9 8 2 0
BITMAP
010000
064000
195000
640400
141100
045440
055140
040000
ENDCHAR
STARTCHAR indexupleft.salt_outline
ENCODING 57684
SWIDTH 1100 0
DWIDTH 12 0
BBX 7 8 3 0
BITMAP
5400
1100
0440
1400
1414
5058
5560
0180
ENDCHAR
STARTCHAR indexupright.salt_outline
ENCODING 57685
SWIDTH 1100 0
DWIDTH 12 0
BBX 7 8 3 0
BITMAP
0014
0044
0010
0440
5414
6404
1954
0640
ENDCHAR
STARTCHAR block.v
ENCODING 57687
SWIDTH 1000 0
DWIDTH 11 0
BBX 13 12 -1 -2
BITMAP
7FFFFF40
7FFFFF40
7FFFFF40
7FFFFF40
7FFFFF40
7FFFFF40
7FFFFF40
7FFFFF40
7FFFFF40
7FFFFF40
7FFFFF40
7FFFFF40
ENDCHAR
STARTCHAR uni25D6.v
ENCODING 57688
SWIDTH 1335 0
DWIDTH 15 0
BBX 13 7 1 0
BITMAP
01BF9000
0BFFF400
2FFFFD00
3FFFFE00
7FFFFF00
7FFFFF40
15555500
ENDCHAR
STARTCHAR uni25D7.v
ENCODING 57689
SWIDTH 1335 0
DWIDTH 15 0
BBX 13 8 1 0
BITMAP
15555500
7FFFFF40
7FFFFF00
7FFFFE00
2FFFFD00
0BFFF800
01FF9000
00140000
ENDCHAR
STARTCHAR uni27A1.w
ENCODING 57690
SWIDTH 650 0
DWIDTH 7 0
BBX 8 16 0 -4
BITMAP
0028
007C
01FD
02FE
0BFE
1FFE
7FFE
BFFE
BFFE
7FFE
1FFE
0BFE
02FE
01FE
007C
0028
ENDCHAR
STARTCHAR uni27A1.n
ENCODING 57691
SWIDTH 1000 0
DWIDTH 11 0
BBX 17 8 -3 0
BITMAP
16AAAAA500
7FFFFFFF40
2FFFFFFE00
0BFFFFF800
01FFFFD000
006FFE4000
000BF80000
0001900000
ENDCHAR
STARTCHAR uni27A1.s
ENCODING 57692
SWIDTH 1000 0
DWIDTH 11 0
BBX 17 8 -3 0
BITMAP
0001900000
000BF80000
002FFE0000
01FFFFD000
0BFFFFF800
2FFFFFFE00
7FFFFFFF40
16AAAAA500
ENDCHAR
STARTCHAR uni2B24.salt
ENCODING 57693
SWIDTH 1280 0
DWIDTH 14 0
BBX 12 14 1 -3
BITMAP
001400
06FF90
2FFFF8
BFFFFE
BFFFFF
BFFFFF
BFFFFF
BFFFFF
BFFFFF
BFFFFF
BFFFFE
2FFFF8
06FF90
001500
ENDCHAR
STARTCHAR uni25DD.curve
ENCODING 57694
SWIDTH 1280 0
DWIDTH 14 0
BBX 12 12 1 -2
BITMAP
AAAA90
BFFFF4
BFFFFD
BFFFFE
BFFFFE
BFFFFF
BFFFFF
BFFFFF
BFFFFF
BFFFFF
BFFFFF
BFFFFE
ENDCHAR
STARTCHAR uni2B1B.trapezoid_e
ENCODING 57695
SWIDTH 1280 0
DWIDTH 14 0
BBX 13 12 1 -2
BITMAP
AAAAAA80
BFFFFF80
BFFFFF80
BFFFFF40
BFFFFF40
BFFFFF00
BFFFFE00
BFFFFE00
BFFFFD00
BFFFFD00
BFFFFC00
BFFFF800
ENDCHAR
STARTCHAR uni2B1B.trapezoid_w
ENCODING 57696
SWIDTH 1280 0
DWIDTH 14 0
BBX 13 12 0 -2
BITMAP
AAAAAA80
BFFFFFC0
7FFFFFC0
7FFFFFC0
3FFFFFC0
3FFFFFC0
2FFFFFC0
1FFFFFC0
1FFFFFC0
0FFFFFC0
0FFFFFC0
0BFFFF80
ENDCHAR
STARTCHAR arrowleft.chevron
ENCODING 57697
SWIDTH 1330 0
DWIDTH 15 0
BBX 15 16 0 -4
BITMAP
00080000
00280000
00BEAAA4
01FFFFF4
07FFFFE0
0BFFFFD0
2FFFFFC0
BFFFFF80
BFFFFF40
2FFFFF80
0FFFFFD0
07FFFFE0
01FFFFF0
00BFFFF4
00280000
00080000
ENDCHAR
STARTCHAR arrowup.chevron
ENCODING 57698
SWIDTH 1280 0
DWIDTH 14 0
BBX 16 16 -1 -4
BITMAP
00014000
0007E000
002FF800
00BFFE40
06FFFFD0
1FFFFFF8
6FFFFFFE
1BFFFFF4
0BFFFFF0
0BFFFFF0
0BFFFFF0
0BFFFFF0
0BFFFFF0
0BFEBFF0
0BE41BF0
09000060
ENDCHAR
STARTCHAR arrowright.chevron
ENCODING 57699
SWIDTH 1330 0
DWIDTH 15 0
BBX 15 16 0 -4
BITMAP
00014000
0001D000
AAAAF400
7FFFF800
3FFFFE00
2FFFFF80
1FFFFFD0
0BFFFFF4
0BFFFFF4
1FFFFFD0
2FFFFF80
3FFFFE00
7FFFFC00
BFFFF400
0001D000
00014000
ENDCHAR
STARTCHAR arrowdown.chevron
ENCODING 57700
SWIDTH 1280 0
DWIDTH 14 0
BBX 16 16 -1 -4
BITMAP
05000050
0B9006F0
0BFEBFF0
0BFFFFF0
0BFFFFF0
0BFFFFF0
0BFFFFF0
0BFFFFF0
0BFFFFF0
7FFFFFFE
2FFFFFF8
07FFFFE0
01FFFF40
002FFD00
000BE000
00018000
ENDCHAR
STARTCHAR uni25D6.deco
ENCODING 57701
SWIDTH 560 0
DWIDTH 6 0
BBX 7 14 0 -3
BITMAP
00A0
02F4
0BF8
2FF8
7FF8
7FF8
7FF8
7FF8
7FF8
7FF8
2FF8
0BF8
02F8
00A0
ENDCHAR
STARTCHAR uni25D7.deco
ENCODING 57702
SWIDTH 560 0
DWIDTH 6 0
BBX 7 14 -1 -3
BITMAP
1800
7F40
7F80
7FE0
7FF4
7FF4
7FF4
7FF4
7FF4
7FF4
7FE0
7F90
7F40
1800
ENDCHAR
STARTCHAR uni25D6.v_deco
ENCODING 57703
SWIDTH 1280 0
DWIDTH 14 0
BBX 14 7 0 0
BITMAP
00555000
02FFF900
1BFFFE40
3FFFFFC0
BFFFFFE0
7FFFFFE0
15555540
ENDCHAR
STARTCHAR uni25D7.v_deco
ENCODING 57704
SWIDTH 1280 0
DWIDTH 14 0
BBX 14 7 0 1
BITMAP
15555540
7FFFFFD0
BFFFFFE0
3FFFFFD0
1BFFFE40
06FFFD00
005A9000
ENDCHAR
STARTCHAR uni25D6.bevel
ENCODING 57705
SWIDTH 350 0
DWIDTH 4 0
BBX 5 12 0 -2
BITMAP
0240
1F40
2F40
7F40
7F40
7F40
7F40
7F40
7F40
2F40
1F40
0640
ENDCHAR
STARTCHAR uni25D7.bevel
ENCODING 57706
SWIDTH 350 0
DWIDTH 4 0
BBX 4 12 -1 -2
BITMAP
60
78
7E
7F
7F
7F
7F
7F
7F
7E
7C
60
ENDCHAR
STARTCHAR uni25D6.v_bevel
ENCODING 57707
SWIDTH 1280 0
DWIDTH 14 0
BBX 12 4 1 2
BITMAP
06AA90
2FFFF8
7FFFFD
AAAAAA
ENDCHAR
STARTCHAR uni25D7.v_bevel
ENCODING 57708
SWIDTH 1280 0
DWIDTH 14 0
BBX 12 4 1 2
BITMAP
AAAAAA
7FFFFE
2FFFF8
06AAA0
ENDCHAR
STARTCHAR uni25D6.spike
ENCODING 57709
SWIDTH 350 0
DWIDTH 4 0
BBX 5 13 0 -3
BITMAP
2E40
1F40
0F40
0B40
1F40
7F40
7F40
1F40
0B40
0F40
1F40
2F40
1000
ENDCHAR
STARTCHAR uni25D7.spike
ENCODING 57710
SWIDTH 350 0
DWIDTH 4 0
BBX 5 13 -1 -3
BITMAP
6E00
7D00
7800
7800
7D00
7F00
7F40
7D00
7800
7800
7D00
7E00
0100
ENDCHAR
STARTCHAR uni25D6.v_spike
ENCODING 57711
SWIDTH 1280 0
DWIDTH 14 0
BBX 13 4 1 2
BITMAP
00180000
A4BE1A40
FFFFFF00
BFFFFF00
ENDCHAR
STARTCHAR uni25D7.v_spike
ENCODING 57712
SWIDTH 1280 0
DWIDTH 14 0
BBX 13 4 1 2
BITMAP
BFFFFE00
FFFFFF00
A5BE5A40
40280100
ENDCHAR
STARTCHAR uni25D6.square
ENCODING 57713
SWIDTH 350 0
DWIDTH 4 0
BBX 4 12 1 -2
BITMAP
A9
BD
BD
BD
BD
BD
BD
BD
BD
BD
BD
BD
ENDCHAR
STARTCHAR uni25D7.square
ENCODING 57714
SWIDTH 350 0
DWIDTH 4 0
BBX 4 12 -1 -2
BITMAP
69
7E
7E
7E
7E
7E
7E
7E
7E
7E
7E
7E
ENDCHAR
STARTCHAR uni25D6.v_square
ENCODING 57715
SWIDTH 1280 0
DWIDTH 14 0
BBX 12 4 1 2
BITMAP
555555
BFFFFF
BFFFFF
AAAAAA
ENDCHAR
STARTCHAR uni25D7.v_square
ENCODING 57716
SWIDTH 1280 0
DWIDTH 14 0
BBX 12 4 1 2
BITMAP
6AAAA9
BFFFFF
BFFFFF
6AAAA9
ENDCHAR
STARTCHAR uni25D6.rounded
ENCODING 57717
SWIDTH 350 0
DWIDTH 4 0
BBX 5 12 0 -2
BITMAP
0A40
1F40
2F40
3F40
7F40
7F40
7F40
7F40
3F40
2F40
1F40
0B40
ENDCHAR
STARTCHAR uni25D7.rounded
ENCODING 57718
SWIDTH 350 0
DWIDTH 4 0
BBX 4 12 -1 -2
BITMAP
64
7D
7E
7E
7F
7F
7F
7F
7E
7E
7D
68
ENDCHAR
STARTCHAR uni25D6.v_rounded
ENCODING 57719
SWIDTH 1280 0
DWIDTH 14 0
BBX 12 4 1 2
BITMAP
05AA50
6FFFFD
BFFFFE
AAAAAA
ENDCHAR
STARTCHAR uni25D7.v_rounded
ENCODING 57720
SWIDTH 1280 0
DWIDTH 14 0
BBX 12 4 1 2
BITMAP
AAAAAA
BFFFFE
7FFFFD
06AA90
ENDCHAR
STARTCHAR uni21AB.arrow
ENCODING 57721
SWIDTH 1000 0
DWIDTH 11 0
BBX 14 20 -1 -10
BITMAP
6AA50000
7FFF8000
7FFFE000
7FFFF800
7FFFFC00
7FFFFD00
7FFFFE00
7FFFFE00
7FFFFE00
7FFFFF00
7FFFFF00
7FFFFF00
0FFFFF00
6FFFFFA0
2FFFFFD0
0BFFFF40
02FFF900
00BFE000
002F8000
000A0000
ENDCHAR
STARTCHAR uni21AC.arrow
ENCODING 57722
SWIDTH 1000 0
DWIDTH 11 0
BBX 14 20 -1 -2
BITMAP
000A0000
002F8000
00BFE000
02FFF800
0BFFFE40
2FFFFFD0
6FFFFFA0
0FFFFF00
6FFFFF00
7FFFFF00
7FFFFF00
7FFFFF00
7FFFFE00
7FFFFE00
7FFFFD00
7FFFFD00
7FFFF800
7FFFE000
7FFF8000
7FE90000
ENDCHAR
STARTCHAR uni21AB.v_arrow
ENCODING 57723
SWIDTH 1335 0
DWIDTH 15 0
BBX 21 14 -7 -4
BITMAP
00197FFFFF40
002DBFFFFF40
00BFFFFFFF40
02FFFFFFFF40
0BFFFFFFFF40
2FFFFFFFFF00
7FFFFFFFFE00
2FFFFFFFFD00
0BFFFFFFF800
07FFFFFFE000
01FFFFFE4000
007D55500000
001900000000
000400000000
ENDCHAR
STARTCHAR uni21AC.v_arrow
ENCODING 57724
SWIDTH 1335 0
DWIDTH 15 0
BBX 21 14 1 -4
BITMAP
7FFFFF580000
7FFFFFAE0000
7FFFFFFF8000
7FFFFFFFE000
7FFFFFFFF800
7FFFFFFFFE00
3FFFFFFFFF40
2FFFFFFFFE00
0BFFFFFFF800
06FFFFFFE000
006FFFFF8000
0005556E0000
000000180000
000000100000
ENDCHAR
STARTCHAR uni25D6.wings
ENCODING 57725
SWIDTH 900 0
DWIDTH 10 0
BBX 11 16 0 -4
BITMAP
0BFE40
0BFF40
AFFFE4
BFFFF4
BFFFF4
BFFFF4
BFFFF4
BFFFF4
BFFFF4
BFFFF4
BFFFF4
BFFFF4
BFFFF4
BFFFF4
0BFF80
0BFF40
ENDCHAR
STARTCHAR uni25D7.wings
ENCODING 57726
SWIDTH 900 0
DWIDTH 10 0
BBX 11 16 -1 -4
BITMAP
07FF80
0BFF80
7FFFE4
7FFFF8
7FFFF8
7FFFF8
7FFFF8
7FFFF8
7FFFF8
7FFFF8
7FFFF8
7FFFF8
7FFFF8
7FFFF8
0BFF80
07FF80
ENDCHAR
STARTCHAR uni25D6.v_wings
ENCODING 57727
SWIDTH 1280 0
DWIDTH 14 0
BBX 16 10 -1 -1
BITMAP
0BFFFFE0
0BFFFFF0
BFFFFFFE
FFFFFFFF
FFFFFFFF
FFFFFFFF
FFFFFFFF
BFFFFFFE
1FFFFFF4
0BFFFFF0
ENDCHAR
STARTCHAR uni25D7.v_wings
ENCODING 57728
SWIDTH 1280 0
DWIDTH 14 0
BBX 16 10 -1 -1
BITMAP
0BFFFFF0
1FFFFFF4
BFFFFFFE
FFFFFFFF
FFFFFFFF
FFFFFFFF
FFFFFFFF
BFFFFFFE
0BFFFFF0
0BFFFFE0
ENDCHAR
STARTCHAR uni2B1B.chevron_e
ENCODING 57729
SWIDTH 1280 0
DWIDTH 14 0
BBX 14 12 0 -2
BITMAP
AAAAAA00
7FFFFF40
3FFFFF80
2FFFFFC0
1FFFFFD0
0BFFFFE0
0BFFFFE0
1FFFFFD0
2FFFFFC0
3FFFFF80
7FFFFF40
BFFFFE00
ENDCHAR
STARTCHAR uni2B1B.chevron_n
ENCODING 57730
SWIDTH 1280 0
DWIDTH 14 0
BBX 12 14 1 -3
BITMAP
006900
1BFFE4
BFFFFE
BFFFFF
BFFFFF
BFFFFF
BFFFFF
BFFFFF
BFFFFF
BFFFFF
BFFFFF
BFFFFF
BE41BF
A40016
ENDCHAR
STARTCHAR uni2B1B.chevron_s
ENCODING 57731
SWIDTH 1280 0
DWIDTH 14 0
BBX 12 14 1 -3
BITMAP
A40006
BE41BF
BFFBFF
BFFFFF
BFFFFF
BFFFFF
BFFFFF
BFFFFF
BFFFFF
BFFFFF
BFFFFF
BFFFFE
1BFFE4
006900
ENDCHAR
STARTCHAR uni2B1B.chevron_w
ENCODING 57732
SWIDTH 1280 0
DWIDTH 14 0
BBX 14 12 0 -2
BITMAP
0AAAAAA0
1FFFFFE0
1FFFFFD0
2FFFFF80
7FFFFF40
BFFFFF00
BFFFFF00
7FFFFF40
3FFFFF80
2FFFFFD0
1FFFFFD0
0BFFFFE0
ENDCHAR
STARTCHAR uni2B1B.semichevron_e
ENCODING 57733
SWIDTH 650 0
DWIDTH 7 0
BBX 8 12 0 -2
BITMAP
AAAA
7FFE
3FFE
2FFE
1FFE
0BFE
0BFE
1FFE
2FFE
3FFE
7FFE
BFFE
ENDCHAR
STARTCHAR uni2B1B.semichevron_w
ENCODING 57734
SWIDTH 650 0
DWIDTH 7 0
BBX 8 12 -1 -2
BITMAP
6AAA
7FFE
7FFD
7FF8
7FF4
7FF0
7FF0
7FF4
7FF8
7FFD
7FFE
7FFE
ENDCHAR
STARTCHAR uni2B1B.semichevron_n
ENCODING 57735
SWIDTH 1000 0
DWIDTH 11 0
BBX 13 8 -1 0
BITMAP
50000140
7E406F40
7FEAFF40
7FFFFF40
7FFFFF40
7FFFFF40
7FFFFF40
6AAAAA40
ENDCHAR
STARTCHAR uni2B1B.semichevron_s
ENCODING 57736
SWIDTH 1000 0
DWIDTH 11 0
BBX 13 8 -1 0
BITMAP
6AAAAA40
7FFFFF40
7FFFFF40
7FFFFF40
7FFFFF40
7FFBFF40
7E406F40
64000640
ENDCHAR
STARTCHAR space.v
ENCODING 57737
SWIDTH 1000 0
DWIDTH 11 0
BBX 1 1 0 0
BITMAP
00
ENDCHAR
STARTCHAR Agrave.v
ENCODING 57738
SWIDTH 1000 0
DWIDTH 11 0
BBX 8 12 1 -2
BITMAP
0800
2D40
2EA5
0800
1800
3460
7010
B100
B060
B0B0
BEBE
1414
ENDCHAR
STARTCHAR Aacute.v
ENCODING 57739
SWIDTH 1000 0
DWIDTH 11 0
BBX 8 12 1 -2
BITMAP
0400
1C05
2E64
1C00
1800
3460
7010
B100
B060
B0B0
BEBE
1414
ENDCHAR
STARTCHAR Acircumflex.v
ENCODING 57740
SWIDTH 1000 0
DWIDTH 11 0
BBX 8 12 1 -2
BITMAP
0400
1C50
2EA9
1C00
1800
3460
7010
B100
B060
B0B0
BEBE
1414
ENDCHAR
STARTCHAR Atilde.v
ENCODING 57741
SWIDTH 1000 0
DWIDTH 11 0
BBX 8 12 1 -2
BITMAP
0400
1C00
2E94
1C00
1800
3460
7010
B100
B060
B0B0
BEBE
1414
ENDCHAR
STARTCHAR Adieresis.v
ENCODING 57742
SWIDTH 1000 0
DWIDTH 11 0
BBX 8 12 1 -2
BITMAP
0410
2820
3E55
1C00
1800
3460
7010
B100
B060
B0B0
BEBE
1414
ENDCHAR
STARTCHAR Aring.v
ENCODING 57743
SWIDTH 1000 0
DWIDTH 11 0
BBX 8 12 1 -2
BITMAP
0400
1860
2C50
2C00
2810
3460
7010
B100
B0A0
B0B0
BEBE
1414
ENDCHAR
STARTCHAR Amacron.v
ENCODING 57744
SWIDTH 1000 0
DWIDTH 11 0
BBX 8 12 1 -2
BITMAP
0400
1C00
2E55
1C00
1800
3460
7010
B100
B060
B0B0
BEBE
1414
ENDCHAR
STARTCHAR Abreve.v
ENCODING 57745
SWIDTH 1000 0
DWIDTH 11 0
BBX 8 12 1 -2
BITMAP
1810
2D00
1E54
0C00
1800
3460
7010
B100
B060
B0B0
BEBE
1414
ENDCHAR
STARTCHAR Aogonek.v
ENCODING 57746
SWIDTH 1000 0
DWIDTH 11 0
BBX 9 11 1 -3
BITMAP
050000
180000
241000
306000
710000
B00000
B0B000
B5B040
7DA000
00B540
007D00
ENDCHAR
STARTCHAR Ccedilla.v
ENCODING 57747
SWIDTH 1000 0
DWIDTH 11 0
BBX 8 10 1 -3
BITMAP
2000
706A
B064
B000
B000
B400
7E05
1F09
0BD0
0100
ENDCHAR
STARTCHAR Cacute.v
ENCODING 57748
SWIDTH 1000 0
DWIDTH 11 0
BBX 8 12 1 -2
BITMAP
0400
1C05
2EA4
1400
7015
B0BD
B000
B000
B000
B800
3FFE
0554
ENDCHAR
STARTCHAR Ccircumflex.v
ENCODING 57749
SWIDTH 1000 0
DWIDTH 11 0
BBX 8 12 1 -2
BITMAP
0400
1C50
2EA9
1400
7015
B0BD
B000
B000
B000
B800
3FFE
0554
ENDCHAR
STARTCHAR Cdotaccent.v
ENCODING 57750
SWIDTH 1000 0
DWIDTH 11 0
BBX 8 12 1 -2
BITMAP
0200
0700
0654
1400
7015
B0BD
B000
B000
B000
B800
3FFE
0554
ENDCHAR
STARTCHAR Ccaron.v
ENCODING 57751
SWIDTH 1000 0
DWIDTH 11 0
BBX 8 12 1 -2
BITMAP
0C00
2D05
1E94
1400
7015
B0BD
B000
B000
B000
B800
3FFE
0554
ENDCHAR
STARTCHAR Dcaron.v
ENCODING 57752
SWIDTH 1000 0
DWIDTH 11 0
BBX 8 12 1 -2
BITMAP
1800
2D04
2A54
7000
B050
B0B0
B070
B070
B100
B001
BFF8
1550
ENDCHAR
STARTCHAR Egrave.v
ENCODING 57753
SWIDTH 1000 0
DWIDTH 11 0
BBX 8 12 1 -2
BITMAP
0800
2D40
2AA5
7000
B055
B055
B100
B0B9
B100
B000
BFFE
1554
ENDCHAR
STARTCHAR Eacute.v
ENCODING 57754
SWIDTH 1000 0
DWIDTH 11 0
BBX 8 12 1 -2
BITMAP
0400
1C05
2964
7000
B055
B055
B100
B0B9
B100
B000
BFFE
1554
ENDCHAR
STARTCHAR Ecircumflex.v
ENCODING 57755
SWIDTH 1000 0
DWIDTH 11 0
BBX 8 12 1 -2
BITMAP
0400
1C50
29A5
7000
B055
B055
B100
B0B9
B100
B000
BFFE
1554
ENDCHAR
STARTCHAR Edieresis.v
ENCODING 57756
SWIDTH 1000 0
DWIDTH 11 0
BBX 8 12 1 -2
BITMAP
0410
2810
3955
7000
B055
B055
B100
B0B9
B100
B000
BFFE
1554
ENDCHAR
STARTCHAR Emacron.v
ENCODING 57757
SWIDTH 1000 0
DWIDTH 11 0
BBX 8 12 1 -2
BITMAP
0400
1C00
2955
7000
B055
B055
B100
B0B9
B100
B000
BFFE
1554
ENDCHAR
STARTCHAR Ebreve.v
ENCODING 57758
SWIDTH 1000 0
DWIDTH 11 0
BBX 8 12 1 -2
BITMAP
1810
2D00
2A54
7000
B055
B055
B100
B0B9
B100
B000
BFFE
1554
ENDCHAR
STARTCHAR Edotaccent.v
ENCODING 57759
SWIDTH 1000 0
DWIDTH 11 0
BBX 8 12 1 -2
BITMAP
0200
0B00
0654
7000
B055
B055
B100
B0B9
B100
B000
BFFE
1554
ENDCHAR
STARTCHAR Eogonek.v
ENCODING 57760
SWIDTH 1000 0
DWIDTH 11 0
BBX 8 11 1 -3
BITMAP
1000
B100
B06A
B100
B055
B064
B000
B551
7FE0
00B5
00BD
ENDCHAR
STARTCHAR Ecaron.v
ENCODING 57761
SWIDTH 1000 0
DWIDTH 11 0
BBX 8 12 1 -2
BITMAP
1800
2D04
2A54
7000
B055
B055
B100
B0B9
B100
B000
BFFE
1554
ENDCHAR
STARTCHAR Gcircumflex.v
ENCODING 57762
SWIDTH 1000 0
DWIDTH 11 0
BBX 8 12 1 -2
BITMAP
0400
1C50
2EA5
2400
7015
B0B8
B020
B070
B000
B800
3FFE
0554
ENDCHAR
STARTCHAR Gbreve.v
ENCODING 57763
SWIDTH 1000 0
DWIDTH 11 0
BBX 8 12 1 -2
BITMAP
1810
2D00
2E54
1400
7015
B0B8
B020
B070
B000
B800
3FFE
0554
ENDCHAR
STARTCHAR Gdotaccent.v
ENCODING 57764
SWIDTH 1000 0
DWIDTH 11 0
BBX 8 12 1 -2
BITMAP
0200
0B00
0A54
1000
7015
B0B8
B020
B070
B000
B800
3FFE
0554
ENDCHAR
STARTCHAR Gcommaaccent.v
ENCODING 57765
SWIDTH 1000 0
DWIDTH 11 0
BBX 9 13 1 -5
BITMAP
040000
200000
706900
B06400
B07000
B05000
B40000
7E5540
1B5900
075000
0B5000
07D000
054000
ENDCHAR
STARTCHAR Hcircumflex.v
ENCODING 57766
SWIDTH 1000 0
DWIDTH 11 0
BBX 8 12 1 -2
BITMAP
0400
1C50
29F9
7070
B0B0
B000
B100
B060
B0B0
B0B0
BEBE
1414
ENDCHAR
STARTCHAR Igrave.v
ENCODING 57767
SWIDTH 1000 0
DWIDTH 11 0
BBX 8 12 1 -2
BITMAP
0800
2D40
2AA5
7000
B501
7F05
0B00
0A00
2010
7000
BFFE
1554
ENDCHAR
STARTCHAR Iacute.v
ENCODING 57768
SWIDTH 1000 0
DWIDTH 11 0
BBX 8 12 1 -2
BITMAP
0400
1C05
2964
7000
B501
7F05
0B00
0A00
2010
7000
BFFE
1554
ENDCHAR
STARTCHAR Icircumflex.v
ENCODING 57769
SWIDTH 1000 0
DWIDTH 11 0
BBX 8 12 1 -2
BITMAP
0400
1C50
29A5
7000
B501
7F05
0B00
0A00
2010
7000
BFFE
1554
ENDCHAR
STARTCHAR Idieresis.v
ENCODING 57770
SWIDTH 1000 0
DWIDTH 11 0
BBX 8 12 1 -2
BITMAP
0410
2810
3955
7000
B501
7F05
0B00
0A00
2010
7000
BFFE
1554
ENDCHAR
STARTCHAR Itilde.v
ENCODING 57771
SWIDTH 1000 0
DWIDTH 11 0
BBX 8 12 1 -2
BITMAP
0400
1C00
2995
7000
B501
7F05
0B00
0A00
2010
7000
BFFE
1554
ENDCHAR
STARTCHAR Imacron.v
ENCODING 57772
SWIDTH 1000 0
DWIDTH 11 0
BBX 8 12 1 -2
BITMAP
0400
1C00
2955
7000
B501
7F05
0B00
0A00
2010
7000
BFFE
1554
ENDCHAR
STARTCHAR Ibreve.v
ENCODING 57773
SWIDTH 1000 0
DWIDTH 11 0
BBX 8 12 1 -2
BITMAP
1810
2D00
2A54
7000
B501
7F05
0B00
0A00
2010
7000
BFFE
1554
ENDCHAR
STARTCHAR Iogonek.v
ENCODING 57774
SWIDTH 1000 0
DWIDTH 11 0
BBX 8 11 1 -3
BITMAP
1000
7010
BA06
6B04
0B00
0500
7000
B551
7FE0
00B5
00BD
ENDCHAR
STARTCHAR Idotaccent.v
ENCODING 57775
SWIDTH 1000 0
DWIDTH 11 0
BBX 8 12 1 -2
BITMAP
0200
0B00
0654
7000
B501
7F05
0B00
0A00
2010
7000
BFFE
1554
ENDCHAR
STARTCHAR Jcircumflex.v
ENCODING 57776
SWIDTH 1000 0
DWIDTH 11 0
BBX 9 12 1 -2
BITMAP
010000
071400
0BF940
057000
00B000
00B000
20B000
B0B000
B00000
B80100
3FF800
055000
ENDCHAR
STARTCHAR Kcommaaccent.v
ENCODING 57777
SWIDTH 1000 0
DWIDTH 11 0
BBX 9 13 1 -5
BITMAP
101000
B09000
B04100
B11000
B00000
B0B000
B0B000
B5B540
7E1900
075000
0B5000
07D000
054000
ENDCHAR
STARTCHAR Lacute.v
ENCODING 57778
SWIDTH 1000 0
DWIDTH 11 0
BBX 8 12 1 -2
BITMAP
1000
7014
B5A0
7000
B000
B000
B020
B070
B100
B000
BFFE
1554
ENDCHAR
STARTCHAR Lcommaaccent.v
ENCODING 57779
SWIDTH 1000 0
DWIDTH 11 0
BBX 9 13 1 -5
BITMAP
100000
B00000
B00000
B00400
B07000
B05000
B00000
B55540
7F5900
075000
0B5000
07D000
054000
ENDCHAR
STARTCHAR Lcaron.v
ENCODING 57780
SWIDTH 1000 0
DWIDTH 11 0
BBX 8 10 1 -2
BITMAP
1014
B074
B070
B0BA
B070
B070
B100
B000
BFFE
1554
ENDCHAR
STARTCHAR Ntilde.v
ENCODING 57781
SWIDTH 1000 0
DWIDTH 11 0
BBX 8 12 1 -2
BITMAP
0400
1C00
2AF5
7070
B110
B000
B000
B090
B0B0
B0B0
BE7E
1414
ENDCHAR
STARTCHAR Nacute.v
ENCODING 57782
SWIDTH 1000 0
DWIDTH 11 0
BBX 8 12 1 -2
BITMAP
0400
1C05
29F8
7070
B110
B000
B000
B090
B0B0
B0B0
BE7E
1414
ENDCHAR
STARTCHAR Ncommaaccent.v
ENCODING 57783
SWIDTH 1000 0
DWIDTH 11 0
BBX 9 13 1 -5
BITMAP
101400
B12000
B00000
B00000
B04000
B0A000
B0B000
B5B940
7E1900
075000
0B5000
07D000
054000
ENDCHAR
STARTCHAR Ncaron.v
ENCODING 57784
SWIDTH 1000 0
DWIDTH 11 0
BBX 8 12 1 -2
BITMAP
1800
2D04
2AF4
7070
B110
B000
B000
B090
B0B0
B0B0
BE7E
1414
ENDCHAR
STARTCHAR Ograve.v
ENCODING 57785
SWIDTH 1000 0
DWIDTH 11 0
BBX 8 12 1 -2
BITMAP
0800
2D40
2E55
1000
7050
B0B0
B070
B070
B000
B800
3FF8
0550
ENDCHAR
STARTCHAR Oacute.v
ENCODING 57786
SWIDTH 1000 0
DWIDTH 11 0
BBX 8 12 1 -2
BITMAP
0400
1C05
2D54
2400
7050
B0B0
B070
B070
B000
B800
3FF8
0550
ENDCHAR
STARTCHAR Ocircumflex.v
ENCODING 57787
SWIDTH 1000 0
DWIDTH 11 0
BBX 8 12 1 -2
BITMAP
0400
1C50
2E55
2400
7050
B0B0
B070
B070
B000
B800
3FF8
0550
ENDCHAR
STARTCHAR Otilde.v
ENCODING 57788
SWIDTH 1000 0
DWIDTH 11 0
BBX 8 12 1 -2
BITMAP
0400
1C00
2E55
2400
7050
B0B0
B070
B070
B000
B800
3FF8
0550
ENDCHAR
STARTCHAR Odieresis.v
ENCODING 57789
SWIDTH 1000 0
DWIDTH 11 0
BBX 8 12 1 -2
BITMAP
0410
2810
3D55
2400
7050
B0B0
B070
B070
B000
B800
3FF8
0550
ENDCHAR
STARTCHAR Omacron.v
ENCODING 57790
SWIDTH 1000 0
DWIDTH 11 0
BBX 8 12 1 -2
BITMAP
0400
1C00
2E55
1400
7050
B0B0
B070
B070
B000
B800
3FF8
0550
ENDCHAR
STARTCHAR Obreve.v
ENCODING 57791
SWIDTH 1000 0
DWIDTH 11 0
BBX 7 12 1 -2
BITMAP
1810
2D00
2E54
1400
7050
B0B0
B070
B070
B000
B800
3FF8
0550
ENDCHAR
STARTCHAR Ohungarumlaut.v
ENCODING 57792
SWIDTH 1000 0
DWIDTH 11 0
BBX 8 13 1 -2
BITMAP
0514
0C30
1C60
2D55
2400
7050
B0B0
B070
B070
B000
B800
3FF8
0550
ENDCHAR
STARTCHAR Racute.v
ENCODING 57793
SWIDTH 1000 0
DWIDTH 11 0
BBX 8 12 1 -2
BITMAP
0400
2804
29A4
7000
B050
B050
B104
B010
B0B0
B0B0
BE7F
1414
ENDCHAR
STARTCHAR Rcommaaccent.v
ENCODING 57794
SWIDTH 1000 0
DWIDTH 11 0
BBX 9 13 1 -5
BITMAP
100000
B10000
B09000
B04000
B10000
B06000
B0B000
B5B940
7E1900
075000
0B5000
07D000
054000
ENDCHAR
STARTCHAR Rcaron.v
ENCODING 57795
SWIDTH 1000 0
DWIDTH 11 0
BBX 8 12 1 -2
BITMAP
1800
2D04
2A54
7000
B050
B050
B104
B010
B0B0
B0B0
BE7F
1414
ENDCHAR
STARTCHAR Sacute.v
ENCODING 57796
SWIDTH 1000 0
DWIDTH 11 0
BBX 8 12 1 -2
BITMAP
0400
1C05
2E64
2400
7055
B015
B400
7EA0
2000
B001
BFF8
1550
ENDCHAR
STARTCHAR Scircumflex.v
ENCODING 57797
SWIDTH 1000 0
DWIDTH 11 0
BBX 8 12 1 -2
BITMAP
0400
1C50
2EA5
2400
7055
B015
B400
7EA0
2000
B001
BFF8
1550
ENDCHAR
STARTCHAR Scedilla.v
ENCODING 57798
SWIDTH 1000 0
DWIDTH 11 0
BBX 8 11 1 -3
BITMAP
0400
2000
706A
B000
B900
7AA0
6000
B505
7E14
0F80
0500
ENDCHAR
STARTCHAR Scaron.v
ENCODING 57799
SWIDTH 1000 0
DWIDTH 11 0
BBX 8 12 1 -2
BITMAP
1800
2D04
1E54
1000
7055
B015
B400
7EA0
2000
B001
BFF8
1550
ENDCHAR
STARTCHAR Scommaaccent.v
ENCODING 57800
SWIDTH 1000 0
DWIDTH 11 0
BBX 8 13 1 -5
BITMAP
0400
2000
706A
B000
B900
7AA0
6000
B555
7F54
0750
0B50
07D0
0540
ENDCHAR
STARTCHAR Tcommaaccent.v
ENCODING 57801
SWIDTH 1000 0
DWIDTH 11 0
BBX 8 12 1 -4
BITMAP
1000
B010
BA06
6B04
0B00
0B00
0B54
0B00
0B50
0B50
07D0
0140
ENDCHAR
STARTCHAR Tcaron.v
ENCODING 57802
SWIDTH 1000 0
DWIDTH 11 0
BBX 9 12 1 -2
BITMAP
180000
2D0400
2A5400
700000
B50540
BF0500
0B0000
0B0000
0B0000
0B0000
0BE000
014000
ENDCHAR
STARTCHAR Ugrave.v
ENCODING 57803
SWIDTH 1000 0
DWIDTH 11 0
BBX 8 12 1 -2
BITMAP
0800
2D40
2AB5
7070
B0B0
B0B0
B0B0
B070
B000
B800
3FF8
0550
ENDCHAR
STARTCHAR Uacute.v
ENCODING 57804
SWIDTH 1000 0
DWIDTH 11 0
BBX 8 12 1 -2
BITMAP
0100
1C05
19B8
7070
B0B0
B0B0
B0B0
B070
B000
B800
3FF8
0550
ENDCHAR
STARTCHAR Ucircumflex.v
ENCODING 57805
SWIDTH 1000 0
DWIDTH 11 0
BBX 8 12 1 -2
BITMAP
0400
1C50
29B9
7070
B0B0
B0B0
B0B0
B070
B000
B800
3FF8
0550
ENDCHAR
STARTCHAR Udieresis.v
ENCODING 57806
SWIDTH 1000 0
DWIDTH 11 0
BBX 8 12 1 -2
BITMAP
0410
2810
39B5
7070
B0B0
B0B0
B0B0
B070
B000
B800
3FF8
0550
ENDCHAR
STARTCHAR Utilde.v
ENCODING 57807
SWIDTH 1000 0
DWIDTH 11 0
BBX 8 12 1 -2
BITMAP
0400
1C00
29B5
7070
B0B0
B0B0
B0B0
B070
B000
B800
3FF8
0550
ENDCHAR
STARTCHAR Umacron.v
ENCODING 57808
SWIDTH 1000 0
DWIDTH 11 0
BBX 8 12 1 -2
BITMAP
0400
1C00
29B5
7070
B0B0
B0B0
B0B0
B070
B000
B800
3FF8
0550
ENDCHAR
STARTCHAR Ubreve.v
ENCODING 57809
SWIDTH 1000 0
DWIDTH 11 0
BBX 7 12 1 -2
BITMAP
1810
2D00
2AB4
7070
B0B0
B0B0
B0B0
B070
B000
B800
3FF8
0550
ENDCHAR
STARTCHAR Uring.v
ENCODING 57810
SWIDTH 1000 0
DWIDTH 11 0
BBX 7 13 1 -2
BITMAP
1850
2C60
2D00
2AB4
7070
B0B0
B0B0
B0B0
B070
B000
B800
3FF8
0550
ENDCHAR
STARTCHAR Uhungarumlaut.v
ENCODING 57811
SWIDTH 1000 0
DWIDTH 11 0
BBX 8 13 1 -2
BITMAP
0514
0C30
1C60
29B5
7070
B0B0
B0B0
B0B0
B070
B000
B800
3FF8
0550
ENDCHAR
STARTCHAR Uogonek.v
ENCODING 57812
SWIDTH 1000 0
DWIDTH 11 0
BBX 8 11 1 -3
BITMAP
1010
B070
B0B0
B0B0
B0B0
B060
B000
7D05
2F04
0794
07E0
ENDCHAR
STARTCHAR Wcircumflex.v
ENCODING 57813
SWIDTH 1000 0
DWIDTH 11 0
BBX 8 12 1 -2
BITMAP
0400
1C50
29F9
6078
E068
E044
A000
A000
B160
B470
7EBD
1414
ENDCHAR
STARTCHAR Wgrave.v
ENCODING 57814
SWIDTH 1000 0
DWIDTH 11 0
BBX 8 12 1 -2
BITMAP
0800
2D40
2AF9
6078
E068
E044
A000
A000
B160
B470
7EBD
1414
ENDCHAR
STARTCHAR Wacute.v
ENCODING 57815
SWIDTH 1000 0
DWIDTH 11 0
BBX 8 12 1 -2
BITMAP
0400
1C05
19F8
6068
E068
E044
A000
A000
B160
B470
7EBD
1414
ENDCHAR
STARTCHAR Wdieresis.v
ENCODING 57816
SWIDTH 1000 0
DWIDTH 11 0
BBX 8 12 1 -2
BITMAP
0810
2820
29F9
6078
E068
E044
A000
A000
B160
B470
7EBD
1414
ENDCHAR
STARTCHAR Yacute.v
ENCODING 57817
SWIDTH 1000 0
DWIDTH 11 0
BBX 8 12 1 -2
BITMAP
0100
1C05
19B8
7070
B0B0
B060
B800
3D10
1F00
0B00
0BE0
0140
ENDCHAR
STARTCHAR Ycircumflex.v
ENCODING 57818
SWIDTH 1000 0
DWIDTH 11 0
BBX 8 12 1 -2
BITMAP
0400
1C50
29F9
7070
B0B0
B060
B800
3D10
1F00
0B00
0BE0
0140
ENDCHAR
STARTCHAR Ydieresis.v
ENCODING 57819
SWIDTH 1000 0
DWIDTH 11 0
BBX 8 12 1 -2
BITMAP
0810
2820
29B9
7070
B0B0
B060
B800
3D10
1F00
0B00
0BE0
0140
ENDCHAR
STARTCHAR Ygrave.v
ENCODING 57820
SWIDTH 1000 0
DWIDTH 11 0
BBX 8 12 1 -2
BITMAP
0800
2D40
2AF9
7070
B0B0
B060
B800
3D10
1F00
0B00
0BE0
0140
ENDCHAR
STARTCHAR Zacute.v
ENCODING 57821
SWIDTH 1000 0
DWIDTH 11 0
BBX 8 12 1 -2
BITMAP
0100
1C05
1968
7000
B540
7F40
0000
1010
7000
B000
BFFE
1554
ENDCHAR
STARTCHAR Zdotaccent.v
ENCODING 57822
SWIDTH 1000 0
DWIDTH 11 0
BBX 8 12 1 -2
BITMAP
0200
0B00
0654
7000
B540
7F40
0000
1010
7000
B000
BFFE
1554
ENDCHAR
STARTCHAR Zcaron.v
ENCODING 57823
SWIDTH 1000 0
DWIDTH 11 0
BBX 8 12 1 -2
BITMAP
0800
2D04
1A54
7000
B540
7F40
0000
1010
7000
B000
BFFE
1554
ENDCHAR
STARTCHAR AE.v
ENCODING 57824
SWIDTH 1000 0
DWIDTH 11 0
BBX 9 10 1 -2
BITMAP
040000
181000
304240
608000
A00000
E00240
E1C000
E1C000
FEFF00
505400
ENDCHAR
STARTCHAR Eth.v
ENCODING 57825
SWIDTH 1000 0
DWIDTH 11 0
BBX 9 10 0 -2
BITMAP
040000
2C4000
2C2800
240800
744800
7C2C00
2C4000
2C0040
2FFE00
055000
ENDCHAR
STARTCHAR Oslash.v
ENCODING 57826
SWIDTH 1000 0
DWIDTH 11 0
BBX 7 11 1 -2
BITMAP
0010
0400
2004
7090
B080
B014
B024
B000
B400
79B8
3E50
ENDCHAR
STARTCHAR Thorn.v
ENCODING 57827
SWIDTH 1000 0
DWIDTH 11 0
BBX 8 10 1 -2
BITMAP
1000
B000
B100
B060
B0B0
B100
B005
B0B8
BE00
1400
ENDCHAR
STARTCHAR Dcroat.v
ENCODING 57828
SWIDTH 1000 0
DWIDTH 11 0
BBX 9 10 0 -2
BITMAP
040000
2C4000
2C2800
240800
744800
7C2C00
2C4000
2C0040
2FFE00
055000
ENDCHAR
STARTCHAR Hbar.v
ENCODING 57829
SWIDTH 1000 0
DWIDTH 11 0
BBX 8 10 1 -2
BITMAP
1010
A050
9101
E060
F010
B100
B060
B0B0
BEBE
1414
ENDCHAR
STARTCHAR IJ.v
ENCODING 57830
SWIDTH 1000 0
DWIDTH 11 0
BBX 8 10 1 -2
BITMAP
1010
B0B0
B0B0
B0B0
BAB0
69A0
2000
B001
BFF8
1550
ENDCHAR
STARTCHAR Ldot.v
ENCODING 57831
SWIDTH 1000 0
DWIDTH 11 0
BBX 9 12 1 -4
BITMAP
100000
B00000
B00000
B00400
B07000
B05000
B00000
B55540
7F5500
070000
07A400
069000
ENDCHAR
STARTCHAR Lslash.v
ENCODING 57832
SWIDTH 1000 0
DWIDTH 11 0
BBX 8 10 1 -2
BITMAP
1000
B000
B000
A100
E060
F070
B100
B000
BFFE
1554
ENDCHAR
STARTCHAR Eng.v
ENCODING 57833
SWIDTH 1000 0
DWIDTH 11 0
BBX 8 10 1 -3
BITMAP
1000
7060
B0B0
B0B0
B0B0
B0B0
B080
BFC1
16F8
0040
ENDCHAR
STARTCHAR OE.v
ENCODING 57834
SWIDTH 1000 0
DWIDTH 11 0
BBX 9 9 1 -2
BITMAP
200400
A08240
A0C000
E0C000
E0C240
A00400
B80000
7FFF40
055400
ENDCHAR
STARTCHAR Tbar.v
ENCODING 57835
SWIDTH 1000 0
DWIDTH 11 0
BBX 9 10 1 -1
BITMAP
100000
B01000
BF0740
5A0500
181000
390100
2F0400
0B0000
0B5000
0BD000
ENDCHAR
STARTCHAR Germandbls.v
ENCODING 57836
SWIDTH 1000 0
DWIDTH 11 0
BBX 8 10 1 -2
BITMAP
1000
B100
B090
B094
B090
B0B4
B080
B080
BFFD
1550
ENDCHAR
STARTCHAR A.salt_v
ENCODING 57837
SWIDTH 1000 0
DWIDTH 11 0
BBX 8 10 1 -2
BITMAP
0400
2000
70B0
B0B0
B100
B000
B0B0
B0B0
BE7E
1414
ENDCHAR
STARTCHAR Agrave.salt_v
ENCODING 57838
SWIDTH 1000 0
DWIDTH 11 0
BBX 8 12 1 -2
BITMAP
0800
2D40
2E55
1000
7050
B0B0
B010
B100
B0A0
B0B0
BE7E
1414
ENDCHAR
STARTCHAR Aacute.salt_v
ENCODING 57839
SWIDTH 1000 0
DWIDTH 11 0
BBX 8 12 1 -2
BITMAP
0400
1C05
2D54
2400
7050
B0B0
B010
B100
B0A0
B0B0
BE7E
1414
ENDCHAR
STARTCHAR Acircumflex.salt_v
ENCODING 57840
SWIDTH 1000 0
DWIDTH 11 0
BBX 8 12 1 -2
BITMAP
0400
1C50
2D55
2400
7050
B0B0
B010
B100
B0A0
B0B0
BE7E
1414
ENDCHAR
STARTCHAR Atilde.salt_v
ENCODING 57841
SWIDTH 1000 0
DWIDTH 11 0
BBX 8 12 1 -2
BITMAP
0400
1C00
2E55
2400
7050
B0B0
B010
B100
B0A0
B0B0
BE7E
1414
ENDCHAR
STARTCHAR Adieresis.salt_v
ENCODING 57842
SWIDTH 1000 0
DWIDTH 11 0
BBX 8 12 1 -2
BITMAP
0410
2810
3D55
2400
7050
B0B0
B010
B100
B0A0
B0B0
BE7E
1414
ENDCHAR
STARTCHAR Aring.salt_v
ENCODING 57843
SWIDTH 1000 0
DWIDTH 11 0
BBX 8 12 1 -2
BITMAP
0400
1860
2850
2400
7060
B0B0
B000
B100
B0A0
B0B0
BEBE
1414
ENDCHAR
STARTCHAR Amacron.salt_v
ENCODING 57844
SWIDTH 1000 0
DWIDTH 11 0
BBX 8 12 1 -2
BITMAP
0400
1C00
2D55
1400
7050
B0B0
B010
B100
B0A0
B0B0
BE7E
1414
ENDCHAR
STARTCHAR Abreve.salt_v
ENCODING 57845
SWIDTH 1000 0
DWIDTH 11 0
BBX 8 12 1 -2
BITMAP
1810
2D00
2E54
1400
7050
B0B0
B010
B100
B0A0
B0B0
BE7E
1414
ENDCHAR
STARTCHAR Aogonek.salt_v
ENCODING 57846
SWIDTH 1000 0
DWIDTH 11 0
BBX 9 11 1 -4
BITMAP
100000
705000
B0B000
B01000
B10000
B0A000
B0B000
BEB040
14B000
00BE00
001400
ENDCHAR
STARTCHAR E.salt_v
ENCODING 57847
SWIDTH 1000 0
DWIDTH 11 0
BBX 8 10 1 -2
BITMAP
0400
2000
707E
B000
B000
B0B9
B000
7800
2FFE
0554
ENDCHAR
STARTCHAR Egrave.salt_v
ENCODING 57848
SWIDTH 1000 0
DWIDTH 11 0
BBX 8 12 1 -2
BITMAP
0800
2D40
2EA5
1400
7055
B055
B100
B0B9
B000
B800
3FFE
0554
ENDCHAR
STARTCHAR Eacute.salt_v
ENCODING 57849
SWIDTH 1000 0
DWIDTH 11 0
BBX 8 12 1 -2
BITMAP
0400
1C05
2EA4
1400
7055
B055
B100
B0B9
B000
B800
3FFE
0554
ENDCHAR
STARTCHAR Ecircumflex.salt_v
ENCODING 57850
SWIDTH 1000 0
DWIDTH 11 0
BBX 8 12 1 -2
BITMAP
0400
1C50
2EA5
1400
7055
B055
B100
B0B9
B000
B800
3FFE
0554
ENDCHAR
STARTCHAR Edieresis.salt_v
ENCODING 57851
SWIDTH 1000 0
DWIDTH 11 0
BBX 8 12 1 -2
BITMAP
0410
2810
3E55
2400
7055
B055
B100
B079
B000
B800
3FFE
0554
ENDCHAR
STARTCHAR Emacron.salt_v
ENCODING 57852
SWIDTH 1000 0
DWIDTH 11 0
BBX 8 12 1 -2
BITMAP
0400
1C00
2E55
1400
7055
B055
B100
B0B9
B000
B800
3FFE
0554
ENDCHAR
STARTCHAR Ebreve.salt_v
ENCODING 57853
SWIDTH 1000 0
DWIDTH 11 0
BBX 8 12 1 -2
BITMAP
1810
2D00
2E54
1400
7055
B055
B100
B0B9
B000
B800
3FFE
0554
ENDCHAR
STARTCHAR Edotaccent.salt_v
ENCODING 57854
SWIDTH 1000 0
DWIDTH 11 0
BBX 8 12 1 -2
BITMAP
0200
0B00
0A54
1400
7055
B055
B100
B0B9
B000
B800
3FFE
0554
ENDCHAR
STARTCHAR Eogonek.salt_v
ENCODING 57855
SWIDTH 1000 0
DWIDTH 11 0
BBX 8 10 1 -3
BITMAP
2000
706A
B100
B055
B064
B400
7E51
1BE0
00B5
00BD
ENDCHAR
STARTCHAR Ecaron.salt_v
ENCODING 57856
SWIDTH 1000 0
DWIDTH 11 0
BBX 8 12 1 -2
BITMAP
1800
2D04
1E94
1400
7055
B055
B100
B0B9
B000
B800
3FFE
0554
ENDCHAR
STARTCHAR I.salt_v
ENCODING 57857
SWIDTH 1000 0
DWIDTH 11 0
BBX 4 10 3 -2
BITMAP
10
70
B0
B0
B0
B0
B0
B0
BE
14
ENDCHAR
STARTCHAR I_I.salt_v
ENCODING 57858
SWIDTH 1000 0
DWIDTH 11 0
BBX 8 10 1 -2
BITMAP
1010
B0B0
B0B0
B0B0
B0B0
B0B0
B0B0
B0B0
BEBE
1414
ENDCHAR
STARTCHAR Igrave.salt_v
ENCODING 57859
SWIDTH 1000 0
DWIDTH 11 0
BBX 6 12 2 -2
BITMAP
2000
B500
BEA0
1C00
2C00
2C00
2C00
2C00
2C00
2C00
2F80
0500
ENDCHAR
STARTCHAR Iacute.salt_v
ENCODING 57860
SWIDTH 1000 0
DWIDTH 11 0
BBX 7 12 2 -2
BITMAP
1000
7014
BE90
6C00
2C00
2C00
2C00
2C00
2C00
2C00
2F80
0500
ENDCHAR
STARTCHAR Icircumflex.salt_v
ENCODING 57861
SWIDTH 1000 0
DWIDTH 11 0
BBX 7 12 2 -2
BITMAP
1000
7140
BEA4
6C00
2C00
2C00
2C00
2C00
2C00
2C00
2F80
0500
ENDCHAR
STARTCHAR Idieresis.salt_v
ENCODING 57862
SWIDTH 1000 0
DWIDTH 11 0
BBX 7 12 2 -2
BITMAP
1040
A040
FD64
6C00
2C00
2C00
2C00
2C00
2C00
2C00
2F80
0500
ENDCHAR
STARTCHAR Itilde.salt_v
ENCODING 57863
SWIDTH 1000 0
DWIDTH 11 0
BBX 6 12 2 -2
BITMAP
1000
7000
BE50
6C00
2C00
2C00
2C00
2C00
2C00
2C00
2F80
0500
ENDCHAR
STARTCHAR Imacron.salt_v
ENCODING 57864
SWIDTH 1000 0
DWIDTH 11 0
BBX 6 12 2 -2
BITMAP
1000
7000
BD60
6C00
2C00
2C00
2C00
2C00
2C00
2C00
2F80
0500
ENDCHAR
STARTCHAR Ibreve.salt_v
ENCODING 57865
SWIDTH 1000 0
DWIDTH 11 0
BBX 6 12 2 -2
BITMAP
6040
B400
BD50
2C00
2C00
2C00
2C00
2C00
2C00
2C00
2F80
0500
ENDCHAR
STARTCHAR Iogonek.salt_v
ENCODING 57866
SWIDTH 1000 0
DWIDTH 11 0
BBX 5 11 3 -4
BITMAP
7000
7000
B000
B000
B000
B000
B000
B040
B000
BE00
1400
ENDCHAR
STARTCHAR Idotaccent.salt_v
ENCODING 57867
SWIDTH 1000 0
DWIDTH 11 0
BBX 5 12 3 -2
BITMAP
2000
B000
B540
7000
B000
B000
B000
B000
B000
B000
BE00
1400
ENDCHAR
STARTCHAR L.salt_v
ENCODING 57868
SWIDTH 1000 0
DWIDTH 11 0
BBX 8 10 1 -2
BITMAP
1000
B000
B000
B000
B000
B000
B100
B000
BFFE
1554
ENDCHAR
STARTCHAR Lacute.salt_v
ENCODING 57869
SWIDTH 1000 0
DWIDTH 11 0
BBX 8 12 1 -2
BITMAP
1000
7014
B5A0
7000
B000
B000
B000
B000
B100
B000
BFFE
1554
ENDCHAR
STARTCHAR Lcommaaccent.salt_v
ENCODING 57870
SWIDTH 1000 0
DWIDTH 11 0
BBX 8 13 1 -5
BITMAP
1000
B000
B000
B000
B000
B000
B000
B555
7F59
0750
0B50
07D0
0540
ENDCHAR
STARTCHAR Lcaron.salt_v
ENCODING 57871
SWIDTH 1000 0
DWIDTH 11 0
BBX 9 10 1 -2
BITMAP
100400
B01800
B02800
B03F40
B01400
B00000
B10000
B00000
BFFE00
155400
ENDCHAR
STARTCHAR Ldot.salt_v
ENCODING 57872
SWIDTH 1000 0
DWIDTH 11 0
BBX 8 12 1 -4
BITMAP
1000
B000
B000
B000
B000
B000
B000
B555
7E5D
0D00
0E90
0A80
ENDCHAR
STARTCHAR Lslash.salt_v
ENCODING 57873
SWIDTH 1000 0
DWIDTH 11 0
BBX 9 10 0 -2
BITMAP
040000
2C0000
2C0000
244000
741000
7C0000
2C4000
2C0000
2FFF80
055500
ENDCHAR
STARTCHAR L.salt_s_v
ENCODING 57874
SWIDTH 1000 0
DWIDTH 11 0
BBX 8 9 1 -2
BITMAP
7000
B000
B000
B000
B000
B100
B000
BFFE
1554
ENDCHAR
STARTCHAR M.salt_v
ENCODING 57875
SWIDTH 1000 0
DWIDTH 11 0
BBX 9 10 1 -2
BITMAP
100000
500000
D10800
D24800
D24800
D24800
D24800
D24800
FFFF40
514500
ENDCHAR
STARTCHAR N.salt_v
ENCODING 57876
SWIDTH 1000 0
DWIDTH 11 0
BBX 8 10 1 -2
BITMAP
0400
2000
70B0
B0B0
B0B0
B0B0
B0B0
B0B0
BEBE
1414
ENDCHAR
STARTCHAR Ntilde.salt_v
ENCODING 57877
SWIDTH 1000 0
DWIDTH 11 0
BBX 8 12 1 -2
BITMAP
0400
1C00
2E55
2400
7050
B0B0
B0B0
B0B0
B0B0
B0B0
BEBE
1414
ENDCHAR
STARTCHAR Nacute.salt_v
ENCODING 57878
SWIDTH 1000 0
DWIDTH 11 0
BBX 8 12 1 -2
BITMAP
0400
1C05
2D54
2400
7050
B0B0
B0B0
B0B0
B0B0
B0B0
BEBE
1414
ENDCHAR
STARTCHAR Ncommaaccent.salt_v
ENCODING 57879
SWIDTH 1000 0
DWIDTH 11 0
BBX 9 11 1 -4
BITMAP
200000
706000
B0B000
B0B000
B0B000
B5B540
BF0900
0B5000
0B5000
07D000
014000
ENDCHAR
STARTCHAR Ncaron.salt_v
ENCODING 57880
SWIDTH 1000 0
DWIDTH 11 0
BBX 8 12 1 -2
BITMAP
1800
2D04
1E54
1000
7050
B0B0
B0B0
B0B0
B0B0
B0B0
BEBE
1414
ENDCHAR
STARTCHAR W.salt_v
ENCODING 57881
SWIDTH 1000 0
DWIDTH 11 0
BBX 8 10 1 -2
BITMAP
5148
D248
D248
D248
D248
D208
D000
F010
BFFE
1454
ENDCHAR
STARTCHAR Wcircumflex.salt_v
ENCODING 57882
SWIDTH 1000 0
DWIDTH 11 0
BBX 8 12 1 -2
BITMAP
0400
1C50
1AAD
9248
D248
D248
D248
D208
D000
F010
BFFE
1454
ENDCHAR
STARTCHAR Wgrave.salt_v
ENCODING 57883
SWIDTH 1000 0
DWIDTH 11 0
BBX 8 12 1 -2
BITMAP
0800
2D40
1AA9
9248
D248
D248
D248
D208
D000
F010
BFFE
1454
ENDCHAR
STARTCHAR Wacute.salt_v
ENCODING 57884
SWIDTH 1000 0
DWIDTH 11 0
BBX 8 12 1 -2
BITMAP
0400
1C05
1AA8
9248
D248
D248
D248
D208
D000
F010
BFFE
1454
ENDCHAR
STARTCHAR Wdieresis.salt_v
ENCODING 57885
SWIDTH 1000 0
DWIDTH 11 0
BBX 8 12 1 -2
BITMAP
0410
2810
2A99
9248
D248
D248
D248
D208
D000
F010
BFFE
1454
ENDCHAR
STARTCHAR X.salt_v
ENCODING 57886
SWIDTH 1100 0
DWIDTH 12 0
BBX 8 10 2 -2
BITMAP
2050
B090
B480
6000
9000
D0E0
D0E0
D0E0
FDFE
5054
ENDCHAR
STARTCHAR Y.salt_v
ENCODING 57887
SWIDTH 1000 0
DWIDTH 11 0
BBX 8 10 1 -2
BITMAP
1010
B0B0
B0B0
B060
B000
7D05
2F04
0B00
0BE0
0140
ENDCHAR
STARTCHAR Yacute.salt_v
ENCODING 57888
SWIDTH 1000 0
DWIDTH 11 0
BBX 8 12 1 -2
BITMAP
0400
1C05
29B8
7070
B0B0
B060
B000
7901
3F04
0B00
0BE0
0140
ENDCHAR
STARTCHAR Ycircumflex.salt_v
ENCODING 57889
SWIDTH 1000 0
DWIDTH 11 0
BBX 8 12 1 -2
BITMAP
0400
1C50
29F9
7070
B0B0
B060
B000
7901
3F04
0B00
0BE0
0140
ENDCHAR
STARTCHAR Ydieresis.salt_v
ENCODING 57890
SWIDTH 1000 0
DWIDTH 11 0
BBX 8 12 1 -2
BITMAP
0410
2810
39B9
7070
B0B0
B060
B000
7901
3F04
0B00
0BE0
0140
ENDCHAR
STARTCHAR Ygrave.salt_v
ENCODING 57891
SWIDTH 1000 0
DWIDTH 11 0
BBX 8 12 1 -2
BITMAP
0800
2D40
2AF9
7070
B0B0
B060
B000
7901
3F04
0B00
0BE0
0140
ENDCHAR
STARTCHAR AE.salt_v
ENCODING 57892
SWIDTH 1000 0
DWIDTH 11 0
BBX 9 9 1 -2
BITMAP
200400
A0C240
A0C000
E00000
E00240
E0C400
E0C000
FEFF40
505400
ENDCHAR
STARTCHAR IJ.salt_v
ENCODING 57893
SWIDTH 1000 0
DWIDTH 11 0
BBX 7 18 1 -6
BITMAP
0700
0B00
0B00
0B00
0B00
0B00
0B00
0BE0
0140
0070
00B0
00B0
20B0
B0B0
B000
7800
3FF8
0550
ENDCHAR
STARTCHAR IJ.stack_v
ENCODING 57894
SWIDTH 1000 0
DWIDTH 11 0
BBX 8 18 1 -6
BITMAP
2000
7010
BE06
1B04
0B00
1500
7000
BAAA
6AB9
0070
00B0
00B0
20B0
B0B0
B000
B800
3FA8
0550
ENDCHAR
STARTCHAR commaaccent.v
ENCODING 57895
SWIDTH 1000 0
DWIDTH 11 0
BBX 4 4 3 -5
BITMAP
70
B5
79
78
ENDCHAR
STARTCHAR hyphen.v
ENCODING 57896
SWIDTH 1000 0
DWIDTH 11 0
BBX 4 6 3 0
BITMAP
14
70
70
74
7E
14
ENDCHAR
STARTCHAR endash.v
ENCODING 57897
SWIDTH 1000 0
DWIDTH 11 0
BBX 4 8 3 -1
BITMAP
20
70
70
70
70
70
7A
68
ENDCHAR
STARTCHAR emdash.v
ENCODING 57898
SWIDTH 1000 0
DWIDTH 11 0
BBX 4 12 3 -3
BITMAP
30
70
70
70
70
70
70
70
70
70
79
69
ENDCHAR
STARTCHAR parenleft.v
ENCODING 57899
SWIDTH 1000 0
DWIDTH 11 0
BBX 11 5 0 0
BITMAP
100000
D05540
D2FFC0
F802F4
500040
ENDCHAR
STARTCHAR parenright.v
ENCODING 57900
SWIDTH 1000 0
DWIDTH 11 0
BBX 10 6 0 0
BITMAP
100040
D00040
E00000
F40010
7FFFD0
055500
ENDCHAR
STARTCHAR bracketleft.v
ENCODING 57901
SWIDTH 1000 0
DWIDTH 11 0
BBX 11 6 0 0
BITMAP
100000
D00000
D05540
D2FFC0
F802F4
500040
ENDCHAR
STARTCHAR bracketright.v
ENCODING 57902
SWIDTH 1000 0
DWIDTH 11 0
BBX 11 6 0 0
BITMAP
100040
D00040
D00000
D00000
FFFFF4
555540
ENDCHAR
STARTCHAR braceleft.v
ENCODING 57903
SWIDTH 1000 0
DWIDTH 11 0
BBX 11 5 0 0
BITMAP
100000
900400
D1FF80
F956F4
500190
ENDCHAR
STARTCHAR braceright.v
ENCODING 57904
SWIDTH 1000 0
DWIDTH 11 0
BBX 10 6 0 0
BITMAP
500080
D00400
E00000
FA8190
6BFA80
005000
ENDCHAR
STARTCHAR quoteleft.v
ENCODING 57905
SWIDTH 1000 0
DWIDTH 11 0
BBX 5 7 3 0
BITMAP
0500
2140
A000
A000
A000
BF00
5400
ENDCHAR
STARTCHAR quoteright.v
ENCODING 57906
SWIDTH 1000 0
DWIDTH 11 0
BBX 5 6 3 1
BITMAP
1000
A000
A000
B540
BA40
BD00
ENDCHAR
STARTCHAR quotedblleft.v
ENCODING 57907
SWIDTH 1000 0
DWIDTH 11 0
BBX 9 7 1 0
BITMAP
055500
21A240
701000
B01000
B06000
BFFE00
145400
ENDCHAR
STARTCHAR quotedblright.v
ENCODING 57908
SWIDTH 1000 0
DWIDTH 11 0
BBX 9 6 1 1
BITMAP
101000
701000
B01000
756440
7AFA00
7DF800
ENDCHAR
STARTCHAR quotesinglbase.v
ENCODING 57909
SWIDTH 1000 0
DWIDTH 11 0
BBX 4 6 3 0
BITMAP
60
A0
B9
B0
B9
64
ENDCHAR
STARTCHAR quotedblbase.v
ENCODING 57910
SWIDTH 1000 0
DWIDTH 11 0
BBX 9 6 1 1
BITMAP
101000
701000
B01000
756440
7AFA00
7DF800
ENDCHAR
STARTCHAR guilsinglleft.v
ENCODING 57911
SWIDTH 1000 0
DWIDTH 11 0
BBX 7 6 2 0
BITMAP
1400
3000
7080
A180
FAE4
A590
ENDCHAR
STARTCHAR guilsinglright.v
ENCODING 57912
SWIDTH 1000 0
DWIDTH 11 0
BBX 6 6 2 0
BITMAP
6080
E080
B000
B400
7E90
2A40
ENDCHAR
STARTCHAR guillemotleft.v
ENCODING 57913
SWIDTH 1000 0
DWIDTH 11 0
BBX 7 9 2 -1
BITMAP
0400
2400
7040
A1C4
F954
2400
7040
A1D4
BAF4
ENDCHAR
STARTCHAR guillemotright.v
ENCODING 57914
SWIDTH 1000 0
DWIDTH 11 0
BBX 7 10 2 -2
BITMAP
1044
B040
B000
7810
6584
E040
B000
7800
3F80
0500
ENDCHAR
STARTCHAR period.v
ENCODING 57915
SWIDTH 1000 0
DWIDTH 11 0
BBX 5 4 3 1
BITMAP
6000
A000
B540
BE00
ENDCHAR
STARTCHAR comma.v
ENCODING 57916
SWIDTH 1000 0
DWIDTH 11 0
BBX 4 6 3 0
BITMAP
60
A0
B9
B0
B9
64
ENDCHAR
STARTCHAR ellipsis.v
ENCODING 57917
SWIDTH 1000 0
DWIDTH 11 0
BBX 13 5 -1 1
BITMAP
00101000
60606000
A0606000
B5B5B540
BEBEBE00
ENDCHAR
STARTCHAR exclamdown.v
ENCODING 57918
SWIDTH 1000 0
DWIDTH 11 0
BBX 5 10 3 -1
BITMAP
1000
B000
BA40
7000
7000
B000
B000
A000
B540
BE00
ENDCHAR
STARTCHAR questiondown.v
ENCODING 57919
SWIDTH 1000 0
DWIDTH 11 0
BBX 8 10 1 -1
BITMAP
0040
0280
0395
02A5
1400
3004
7064
7400
7E55
2FFD
ENDCHAR
STARTCHAR dagger.v
ENCODING 57920
SWIDTH 1000 0
DWIDTH 11 0
BBX 9 10 1 -1
BITMAP
020000
0B0000
200000
A01000
B50540
BF0A00
070000
070000
075400
07D000
ENDCHAR
STARTCHAR daggerdbl.v
ENCODING 57921
SWIDTH 1000 0
DWIDTH 11 0
BBX 9 10 1 -1
BITMAP
024400
201000
B50540
BF0A00
150400
601000
A00000
BB0A40
6B5500
07D000
ENDCHAR
STARTCHAR perthousand.v
ENCODING 57922
SWIDTH 1000 0
DWIDTH 11 0
BBX 10 10 0 -2
BITMAP
014400
711400
B10000
B40400
7E0100
190440
084550
21D100
7AFFE0
105540
ENDCHAR
STARTCHAR ampersand.salt_v
ENCODING 57923
SWIDTH 1000 0
DWIDTH 11 0
BBX 8 12 1 -3
BITMAP
0044
0100
1800
282E
3800
2000
70BD
B100
B400
7F46
07F4
0140
ENDCHAR
STARTCHAR quoteleft.salt_v
ENCODING 57924
SWIDTH 1000 0
DWIDTH 11 0
BBX 4 5 1 1
BITMAP
01
21
B0
B9
68
ENDCHAR
STARTCHAR quoteright.salt_v
ENCODING 57925
SWIDTH 1000 0
DWIDTH 11 0
BBX 4 4 1 1
BITMAP
70
B4
79
74
ENDCHAR
STARTCHAR A.s_v
ENCODING 57926
SWIDTH 1000 0
DWIDTH 11 0
BBX 8 9 1 -2
BITMAP
0800
1800
3460
7010
B100
B060
B0B0
BEBE
1414
ENDCHAR
STARTCHAR C.s_v
ENCODING 57927
SWIDTH 1000 0
DWIDTH 11 0
BBX 8 9 1 -2
BITMAP
1400
7015
B0BD
B000
B000
B000
B800
3FFE
0554
ENDCHAR
STARTCHAR D.s_v
ENCODING 57928
SWIDTH 1000 0
DWIDTH 11 0
BBX 8 9 1 -2
BITMAP
7000
B050
B0B0
B070
B070
B100
B001
BFF8
1550
ENDCHAR
STARTCHAR E.s_v
ENCODING 57929
SWIDTH 1000 0
DWIDTH 11 0
BBX 8 9 1 -2
BITMAP
7000
B055
B055
B100
B0B9
B100
B000
BFFE
1554
ENDCHAR
STARTCHAR G.s_v
ENCODING 57930
SWIDTH 1000 0
DWIDTH 11 0
BBX 8 9 1 -2
BITMAP
1000
7015
B0B8
B020
B070
B000
B800
3FFE
0554
ENDCHAR
STARTCHAR H.s_v
ENCODING 57931
SWIDTH 1000 0
DWIDTH 11 0
BBX 8 9 1 -2
BITMAP
7070
B0B0
B000
B100
B060
B0B0
B0B0
BEBE
1414
ENDCHAR
STARTCHAR I.s_v
ENCODING 57932
SWIDTH 1000 0
DWIDTH 11 0
BBX 8 9 1 -2
BITMAP
7000
B501
7F05
0B00
0A00
2010
7000
BFFE
1554
ENDCHAR
STARTCHAR J.s_v
ENCODING 57933
SWIDTH 1000 0
DWIDTH 11 0
BBX 8 9 1 -2
BITMAP
0070
00B0
00B0
20B0
B0B0
B000
B801
3FF8
0550
ENDCHAR
STARTCHAR K.s_v
ENCODING 57934
SWIDTH 1000 0
DWIDTH 11 0
BBX 8 9 1 -2
BITMAP
7050
B080
B000
B100
B060
B0B0
B0B0
BEBE
1414
ENDCHAR
STARTCHAR L.s_v
ENCODING 57935
SWIDTH 1000 0
DWIDTH 11 0
BBX 8 9 1 -2
BITMAP
7000
B000
B000
B020
B070
B100
B000
BFFE
1554
ENDCHAR
STARTCHAR N.s_v
ENCODING 57936
SWIDTH 1000 0
DWIDTH 11 0
BBX 8 9 1 -2
BITMAP
7030
B110
B000
B000
B090
B0B0
B0B0
BE7E
1414
ENDCHAR
STARTCHAR O.s_v
ENCODING 57937
SWIDTH 1000 0
DWIDTH 11 0
BBX 7 9 1 -2
BITMAP
1000
7050
B0B0
B070
B070
B000
B800
3FF8
0550
ENDCHAR
STARTCHAR R.s_v
ENCODING 57938
SWIDTH 1000 0
DWIDTH 11 0
BBX 8 9 1 -2
BITMAP
7000
B050
B050
B104
B010
B0B0
B0B0
BE7F
1414
ENDCHAR
STARTCHAR S.s_v
ENCODING 57939
SWIDTH 1000 0
DWIDTH 11 0
BBX 8 9 1 -2
BITMAP
1000
7055
B015
B400
7EA0
2000
B001
BFF8
1550
ENDCHAR
STARTCHAR T.s_v
ENCODING 57940
SWIDTH 1000 0
DWIDTH 11 0
BBX 9 9 1 -2
BITMAP
700000
B50540
BF0500
0B0000
0B0000
0B0000
0B0000
0BE000
014000
ENDCHAR
STARTCHAR U.s_v
ENCODING 57941
SWIDTH 1000 0
DWIDTH 11 0
BBX 7 9 1 -2
BITMAP
7070
B0B0
B0B0
B0B0
B070
B000
B800
3FF8
0550
ENDCHAR
STARTCHAR W.s_v
ENCODING 57942
SWIDTH 1000 0
DWIDTH 11 0
BBX 8 10 1 -2
BITMAP
1004
6028
E068
E044
A000
A000
B160
B470
7EBD
1414
ENDCHAR
STARTCHAR Y.s_v
ENCODING 57943
SWIDTH 1000 0
DWIDTH 11 0
BBX 6 9 1 -2
BITMAP
7070
B0B0
B060
B800
3D10
1F00
0B00
0BE0
0140
ENDCHAR
STARTCHAR Z.s_v
ENCODING 57944
SWIDTH 1000 0
DWIDTH 11 0
BBX 8 9 1 -2
BITMAP
7000
B540
7F40
0000
1010
7000
B000
BFFE
1554
ENDCHAR
STARTCHAR A.salt_s_v
ENCODING 57945
SWIDTH 1000 0
DWIDTH 11 0
BBX 8 9 1 -2
BITMAP
1000
7050
B0B0
B010
B100
B0A0
B0B0
BE7E
1414
ENDCHAR
STARTCHAR E.salt_s_v
ENCODING 57946
SWIDTH 1000 0
DWIDTH 11 0
BBX 8 9 1 -2
BITMAP
1400
7055
B055
B100
B0B9
B000
B800
3FFE
0554
ENDCHAR
STARTCHAR I.salt_s_v
ENCODING 57947
SWIDTH 1000 0
DWIDTH 11 0
BBX 4 9 3 -2
BITMAP
70
B0
B0
B0
B0
B0
B0
BE
14
ENDCHAR
STARTCHAR N.salt_s_v
ENCODING 57948
SWIDTH 1000 0
DWIDTH 11 0
BBX 8 9 1 -2
BITMAP
1000
7050
B0B0
B0B0
B0B0
B0B0
B0B0
BEBE
1414
ENDCHAR
STARTCHAR W.salt_s_v
ENCODING 57949
SWIDTH 1000 0
DWIDTH 11 0
BBX 8 10 1 -2
BITMAP
1044
9248
D248
D248
D248
D208
D000
F010
BFFE
1454
ENDCHAR
STARTCHAR Y.salt_s_v
ENCODING 57950
SWIDTH 1000 0
DWIDTH 11 0
BBX 8 9 1 -2
BITMAP
7070
B0B0
B060
B000
7901
3F04
0B00
0BE0
0140
ENDCHAR
STARTCHAR uniF6C3
ENCODING 63171
SWIDTH 600 0
DWIDTH 7 0
BBX 3 5 1 -5
BITMAP
60
A0
B4
B0
B8
ENDCHAR
STARTCHAR fi
ENCODING 64257
SWIDTH 1423 0
DWIDTH 16 0
BBX 15 10 0 -1
BITMAP
14011000
7010A040
B07DB804
B014BD14
B1001D00
B0041D00
B0701800
B0406000
B540B554
7D00BFF4
ENDCHAR
STARTCHAR fl
ENCODING 64258
SWIDTH 1513 0
DWIDTH 17 0
BBX 16 10 0 -1
BITMAP
14011000
70107000
B07DB000
B014B000
B100B060
B004B0B0
B070B010
B040B000
B540B555
7D00BFFD
ENDCHAR
STARTCHAR exclam.v
ENCODING 65281
SWIDTH 1000 0
DWIDTH 11 0
BBX 5 10 3 -1
BITMAP
1040
A000
B000
B000
B000
B400
BA00
6000
B540
BE00
ENDCHAR
STARTCHAR quotedbl.v
ENCODING 65282
SWIDTH 1000 0
DWIDTH 11 0
BBX 8 7 1 0
BITMAP
1450
7420
7460
7460
7460
7FFD
1454
ENDCHAR
STARTCHAR percent.v
ENCODING 65285
SWIDTH 1000 0
DWIDTH 11 0
BBX 9 10 1 -2
BITMAP
110440
612400
E10000
F00400
BE0000
190500
089500
21D000
79FE00
105400
ENDCHAR
STARTCHAR ampersand.v
ENCODING 65286
SWIDTH 1000 0
DWIDTH 11 0
BBX 7 9 1 -2
BITMAP
1400
3834
3804
2014
A0B4
A000
B400
7FF8
0550
ENDCHAR
STARTCHAR quotesingle.v
ENCODING 65287
SWIDTH 1000 0
DWIDTH 11 0
BBX 5 7 3 0
BITMAP
1040
7000
B000
B000
B400
BE00
1400
ENDCHAR
STARTCHAR asterisk.v
ENCODING 65290
SWIDTH 1000 0
DWIDTH 11 0
BBX 9 9 1 -1
BITMAP
014400
074000
240000
701040
7E0600
181000
1D7500
2FB400
045000
ENDCHAR
STARTCHAR zero.v
ENCODING 65296
SWIDTH 1000 0
DWIDTH 11 0
BBX 8 10 1 -2
BITMAP
0400
2000
7070
B0B0
B0B0
B0B0
B000
B801
3FF8
0550
ENDCHAR
STARTCHAR one.v
ENCODING 65297
SWIDTH 1000 0
DWIDTH 11 0
BBX 8 10 1 -2
BITMAP
1400
7000
7E00
2B00
0700
0700
2010
B000
BFFE
1554
ENDCHAR
STARTCHAR two.v
ENCODING 65298
SWIDTH 1000 0
DWIDTH 11 0
BBX 8 10 1 -2
BITMAP
1400
7000
7EA0
1900
1001
7068
B100
B000
BFFE
1554
ENDCHAR
STARTCHAR three.v
ENCODING 65299
SWIDTH 1000 0
DWIDTH 11 0
BBX 7 10 1 -2
BITMAP
1000
B000
BA90
6800
2C00
2FF0
2000
B000
BFFC
1550
ENDCHAR
STARTCHAR four.v
ENCODING 65300
SWIDTH 1000 0
DWIDTH 11 0
BBX 8 10 1 -2
BITMAP
1010
B0B0
B0B0
B070
B000
B400
7FF0
15B0
007E
0014
ENDCHAR
STARTCHAR five.v
ENCODING 65301
SWIDTH 1000 0
DWIDTH 11 0
BBX 8 10 1 -2
BITMAP
1000
7100
B06A
B100
B000
7FF0
2000
B001
BFF8
1550
ENDCHAR
STARTCHAR six.v
ENCODING 65302
SWIDTH 1000 0
DWIDTH 11 0
BBX 8 9 1 -2
BITMAP
2000
7069
B000
B110
B0B0
B000
B800
3FF8
0550
ENDCHAR
STARTCHAR seven.v
ENCODING 65303
SWIDTH 1000 0
DWIDTH 11 0
BBX 8 10 1 -2
BITMAP
1000
B000
BAA0
6A90
0500
1C09
2C14
2C00
2F80
0500
ENDCHAR
STARTCHAR eight.v
ENCODING 65304
SWIDTH 1000 0
DWIDTH 11 0
BBX 8 10 1 -2
BITMAP
0400
2400
3470
7850
3100
70B0
B010
B400
7FF9
0550
ENDCHAR
STARTCHAR nine.v
ENCODING 65305
SWIDTH 1000 0
DWIDTH 11 0
BBX 8 10 1 -2
BITMAP
0400
2000
70B0
B011
B400
7FA0
1800
2801
2FF8
1540
ENDCHAR
STARTCHAR colon.v
ENCODING 65306
SWIDTH 1000 0
DWIDTH 11 0
BBX 5 9 3 0
BITMAP
6000
A000
A000
B540
BA00
A000
A000
B540
BE00
ENDCHAR
STARTCHAR semicolon.v
ENCODING 65307
SWIDTH 1000 0
DWIDTH 11 0
BBX 5 10 3 -2
BITMAP
1000
A000
A000
BA40
6000
A100
B500
B000
BD00
5400
ENDCHAR
STARTCHAR question.v
ENCODING 65311
SWIDTH 1000 0
DWIDTH 11 0
BBX 9 10 1 -1
BITMAP
140000
755000
7E9000
180040
1D1640
1FFD00
1D1400
1C0000
2D5000
1F8000
ENDCHAR
STARTCHAR A.v
ENCODING 65313
SWIDTH 1000 0
DWIDTH 11 0
BBX 8 10 1 -2
BITMAP
0500
1800
2410
3060
7000
B100
B0B0
B0B0
BEBE
1414
ENDCHAR
STARTCHAR B.v
ENCODING 65314
SWIDTH 1000 0
DWIDTH 11 0
BBX 8 10 1 -2
BITMAP
1000
B100
B0A0
B000
B010
B0B0
B150
B001
BFFC
1550
ENDCHAR
STARTCHAR C.v
ENCODING 65315
SWIDTH 1000 0
DWIDTH 11 0
BBX 8 10 1 -2
BITMAP
0400
2000
706A
B064
B000
B000
B000
B800
3FFE
0554
ENDCHAR
STARTCHAR D.v
ENCODING 65316
SWIDTH 1000 0
DWIDTH 11 0
BBX 8 10 1 -2
BITMAP
1000
B100
B060
B0B0
B070
B070
B100
B001
BFF8
1550
ENDCHAR
STARTCHAR E.v
ENCODING 65317
SWIDTH 1000 0
DWIDTH 11 0
BBX 8 10 1 -2
BITMAP
1000
B100
B0BE
B000
B000
B0B9
B100
B000
BFFE
1554
ENDCHAR
STARTCHAR F.v
ENCODING 65318
SWIDTH 1000 0
DWIDTH 11 0
BBX 8 10 1 -2
BITMAP
1000
B100
B06A
B055
B100
B069
B064
B000
BE00
1400
ENDCHAR
STARTCHAR G.v
ENCODING 65319
SWIDTH 1000 0
DWIDTH 11 0
BBX 8 10 1 -2
BITMAP
0400
2000
7069
B064
B020
B0B0
B000
B800
3FFE
0554
ENDCHAR
STARTCHAR H.v
ENCODING 65320
SWIDTH 1000 0
DWIDTH 11 0
BBX 8 10 1 -2
BITMAP
1010
B0B0
B0B0
B000
B100
B0B0
B0B0
B0B0
BEBE
1414
ENDCHAR
STARTCHAR I.v
ENCODING 65321
SWIDTH 1000 0
DWIDTH 11 0
BBX 8 10 1 -2
BITMAP
1000
7010
BA06
6B04
0B00
0A00
2010
7000
BFFE
1554
ENDCHAR
STARTCHAR J.v
ENCODING 65322
SWIDTH 1000 0
DWIDTH 11 0
BBX 7 10 1 -2
BITMAP
0010
0070
00B0
00B0
20B0
B0B0
B000
B800
3FF8
0550
ENDCHAR
STARTCHAR K.v
ENCODING 65323
SWIDTH 1000 0
DWIDTH 11 0
BBX 8 10 1 -2
BITMAP
1010
B090
B040
B000
B100
B0B0
B0B0
B0B0
BEBE
1414
ENDCHAR
STARTCHAR L.v
ENCODING 65324
SWIDTH 1000 0
DWIDTH 11 0
BBX 8 10 1 -2
BITMAP
1000
B000
B000
B000
B020
B070
B100
B000
BFFE
1554
ENDCHAR
STARTCHAR M.v
ENCODING 65325
SWIDTH 1000 0
DWIDTH 11 0
BBX 9 10 1 -2
BITMAP
101000
A16000
A00000
A00000
A04400
A0A400
A0B400
E07400
FD7F40
501400
ENDCHAR
STARTCHAR N.v
ENCODING 65326
SWIDTH 1000 0
DWIDTH 11 0
BBX 8 10 1 -2
BITMAP
1014
B130
B010
B000
B040
B0A0
B0B0
B0B0
BE7E
1414
ENDCHAR
STARTCHAR O.v
ENCODING 65327
SWIDTH 1000 0
DWIDTH 11 0
BBX 7 10 1 -2
BITMAP
0400
2000
70B0
B0B0
B070
B070
B000
B800
3FF8
0550
ENDCHAR
STARTCHAR P.v
ENCODING 65328
SWIDTH 1000 0
DWIDTH 11 0
BBX 8 10 1 -2
BITMAP
1000
B100
B0B0
B060
B100
B015
B0B8
B000
BE00
1400
ENDCHAR
STARTCHAR Q.v
ENCODING 65329
SWIDTH 1000 0
DWIDTH 11 0
BBX 8 11 1 -3
BITMAP
0400
2000
7070
B0B0
B070
B070
B000
B811
3F04
0BE0
0140
ENDCHAR
STARTCHAR R.v
ENCODING 65330
SWIDTH 1000 0
DWIDTH 11 0
BBX 8 10 1 -2
BITMAP
1000
B100
B090
B050
B100
B060
B0B0
B070
BE7F
1414
ENDCHAR
STARTCHAR S.v
ENCODING 65331
SWIDTH 1000 0
DWIDTH 11 0
BBX 8 10 1 -2
BITMAP
0400
2000
706A
B000
B400
7FA0
2000
B001
BFF8
1550
ENDCHAR
STARTCHAR T.v
ENCODING 65332
SWIDTH 1000 0
DWIDTH 11 0
BBX 8 10 1 -2
BITMAP
1000
B010
BA06
6B04
0B00
0B00
0B00
0B00
0BE0
0140
ENDCHAR
STARTCHAR U.v
ENCODING 65333
SWIDTH 1000 0
DWIDTH 11 0
BBX 7 10 1 -2
BITMAP
1010
B070
B0B0
B0B0
B0B0
B070
B000
B800
3FF8
0550
ENDCHAR
STARTCHAR V.v
ENCODING 65334
SWIDTH 1000 0
DWIDTH 11 0
BBX 7 10 1 -2
BITMAP
1014
B070
B070
B070
B070
B410
3800
2D00
1FF4
0550
ENDCHAR
STARTCHAR W.v
ENCODING 65335
SWIDTH 1000 0
DWIDTH 11 0
BBX 8 10 1 -2
BITMAP
1004
A038
E068
E044
A000
A000
B160
B470
7EBD
1414
ENDCHAR
STARTCHAR X.v
ENCODING 65336
SWIDTH 1100 0
DWIDTH 12 0
BBX 8 10 2 -2
BITMAP
1010
D0E0
E040
F410
7400
2090
90E0
E0E0
FDFD
5054
ENDCHAR
STARTCHAR Y.v
ENCODING 65337
SWIDTH 1000 0
DWIDTH 11 0
BBX 7 10 1 -2
BITMAP
1014
B070
B070
B010
B800
3D00
1F00
0B00
0BE0
0140
ENDCHAR
STARTCHAR Z.v
ENCODING 65338
SWIDTH 1000 0
DWIDTH 11 0
BBX 8 10 1 -2
BITMAP
1000
7000
BA80
6A00
0400
1410
7000
B000
BFFE
1554
ENDCHAR
STARTCHAR uni2B24.salt_v
ENCODING 65339
SWIDTH 1280 0
DWIDTH 14 0
BBX 14 12 0 -2
BITMAP
02AAA800
0BFFFE00
1FFFFF40
2FFFFF80
3FFFFFC0
7FFFFFD0
7FFFFFD0
3FFFFFC0
2FFFFF80
1FFFFF40
0BFFFE00
02FFF800
ENDCHAR
STARTCHAR uni25DD.curve_v
ENCODING 65340
SWIDTH 1280 0
DWIDTH 14 0
BBX 12 12 1 -2
BITMAP
06AAAA
1FFFFF
7FFFFF
BFFFFF
BFFFFF
BFFFFF
BFFFFF
BFFFFF
BFFFFF
BFFFFF
BFFFFF
BFFFFE
ENDCHAR
STARTCHAR uni2B1B.trapezoid_e_v
ENCODING 65341
SWIDTH 1280 0
DWIDTH 14 0
BBX 12 13 1 -2
BITMAP
A94000
BFFA50
BFFFFE
BFFFFF
BFFFFF
BFFFFF
BFFFFF
BFFFFF
BFFFFF
BFFFFF
BFFFFF
BFFFFF
BFFFFE
ENDCHAR
STARTCHAR uni2B1B.trapezoid_w_v
ENCODING 65342
SWIDTH 1280 0
DWIDTH 14 0
BBX 12 13 1 -3
BITMAP
AAAAAA
BFFFFF
BFFFFF
BFFFFF
BFFFFF
BFFFFF
BFFFFF
BFFFFF
BFFFFF
BFFFFF
BFFFFE
BFFA50
A94000
ENDCHAR
STARTCHAR .notdef
ENCODING -1
SWIDTH 1100 0
DWIDTH 12 0
BBX 10 11 1 -2
BITMAP
155550
AAAAA0
EAAAE0
E000E0
E000E0
E000E0
E000E0
E000E0
E000A0
EAAAA0
AAAA80
ENDCHAR
STARTCHAR one.sups
ENCODING -1
SWIDTH 557 0
DWIDTH 6 0
BBX 5 9 0 0
BITMAP
1540
7400
BC00
2C00
2800
6000
B000
BFC0
5500
ENDCHAR
STARTCHAR two.sups
ENCODING -1
SWIDTH 585 0
DWIDTH 6 0
BBX 6 9 0 0
BITMAP
1150
7A00
7900
2010
6140
A000
A000
BFD0
5540
ENDCHAR
STARTCHAR three.sups
ENCODING -1
SWIDTH 584 0
DWIDTH 6 0
BBX 6 9 0 0
BITMAP
1540
A000
BA00
7450
3A40
2000
B010
BF80
5500
ENDCHAR
STARTCHAR four.sups
ENCODING -1
SWIDTH 620 0
DWIDTH 7 0
BBX 6 8 0 1
BITMAP
1140
A240
E240
E140
F500
BF40
17E0
0280
ENDCHAR
ENDFONT
